{
copyright = "Copyright (c) 2022 by Thanos Poulakidas. All rights reserved.";
designer = "Thanos Poulakidas";
familyName = Geom;
customParameters = (
{
name = glyphOrder;
value = (
.notdef,
uni0000,
uni000D,
space,
quotedbl,
numbersign,
dollar,
percent,
ampersand,
quotesingle,
parenleft,
parenright,
asterisk,
plus,
comma,
hyphen,
period,
slash,
zero,
one,
two,
three,
four,
five,
six,
seven,
eight,
nine,
colon,
semicolon,
less,
equal,
greater,
question,
at,
A,
B,
C,
D,
E,
F,
G,
H,
I,
J,
K,
L,
M,
N,
O,
P,
Q,
R,
S,
T,
U,
V,
W,
X,
Y,
Z,
bracketleft,
backslash,
bracketright,
asciicircum,
underscore,
grave,
a,
b,
c,
d,
e,
f,
g,
h,
i,
j,
k,
l,
m,
n,
o,
p,
q,
r,
s,
t,
u,
v,
w,
x,
y,
z,
braceleft,
bar,
braceright,
asciitilde,
Euro,
quotesinglbase,
florin,
quotedblbase,
ellipsis,
dagger,
daggerdbl,
circumflex,
perthousand,
guilsinglleft,
quoteleft,
quoteright,
quotedblleft,
quotedblright,
bullet,
endash,
emdash,
tilde,
trademark,
guilsinglright,
exclamdown,
cent,
sterling,
currency,
yen,
brokenbar,
section,
dieresis,
copyright,
ordfeminine,
guillemotleft,
logicalnot,
registered,
degree,
plusminus,
acute,
paragraph,
cedilla,
ordmasculine,
guillemotright,
onequarter,
onehalf,
threequarters,
questiondown,
germandbls,
divide,
oslash,
fraction,
fi,
fl,
breve,
dotaccent,
ring,
hungarumlaut,
ogonek,
caron,
dotlessi,
greaterequal,
radical,
notequal,
product,
summation,
lessequal,
uni02C9,
lozenge,
minus,
uni2215,
approxequal,
integral,
uni2113,
partialdiff,
uni2206,
infinity,
uni2126,
uni2219,
estimated,
exclam,
Alpha,
Epsilon,
Eta,
Iota,
Kappa,
Mu,
Nu,
Omicron,
Chi,
Tau,
Rho,
Upsilon,
uni0394,
uni03A9,
Lambda,
Beta,
Zeta,
Pi,
Xi,
Sigma,
Psi,
omicron,
kappa,
nu,
tonos,
Alphatonos,
Epsilontonos,
Etatonos,
Iotatonos,
Omicrontonos,
Upsilontonos,
Gamma,
Theta,
Iotadieresis,
Upsilondieresis,
dieresistonos,
alpha,
rho,
iota,
eta,
gamma,
upsilon,
beta,
pi,
uni03BC,
tau,
Phi,
chi,
sigma,
theta,
lambda,
psi,
epsilon,
delta,
alphatonos,
etatonos,
iotatonos,
omicrontonos,
upsilontonos,

glyphs = (
{
glyphname = .notdef;
layers = (
{
hints = (
{
horizontal = 1;
place = "{0, 57}";
type = Stem;
},
{
horizontal = 1;
place = "{663, 57}";
type = Stem;
},
{
place = "{-7, 68}";
type = Stem;
},
{
place = "{452, 68}";
type = Stem;
}
);
layerId = "61C708DC-9E63-4DDF-9A9E-D605D0F8404A";
paths = (
{
closed = 1;
nodes = (
"-7 0 LINE",
"520 0 LINE",
"520 720 LINE",
"-7 720 LINE"
);
},
{
closed = 1;
nodes = (
"257 420 LINE",
"93 663 LINE",
"419 663 LINE"
);
},
{
closed = 1;
nodes = (
"61 596 LINE",
"218 360 LINE",
"61 126 LINE"
);
},
{
closed = 1;
nodes = (
"295 360 LINE",
"452 595 LINE",
"452 126 LINE"
);
},
{
closed = 1;
nodes = (
"93 57 LINE",
"257 301 LINE",
"419 57 LINE"
);
}
);
width = 515;
}
);
},
{
glyphname = quotedbl;
layers = (
{
hints = (
{
place = "{38, 420}";
type = Stem;
},
{
horizontal = 1;
place = "{375, 328}";
type = Stem;
},
{
horizontal = 1;
place = "{703, -20}";
target = down;
type = TopGhost;
}
);
layerId = "61C708DC-9E63-4DDF-9A9E-D605D0F8404A";
paths = (
{
closed = 1;
nodes = (
"122 375 LINE",
"223 683 LINE",
"227 702 LINE",
"227 703 LINE",
"61 703 LINE",
"38 375 LINE"
);
},
{
closed = 1;
nodes = (
"268 375 LINE",
"353 375 LINE",
"454 683 LINE",
"458 702 LINE",
"458 703 LINE",
"292 703 LINE"
);
}
);
width = 495;
}
);
unicode = 0022;
},
{
glyphname = numbersign;
layers = (
{
hints = (
{
horizontal = 1;
place = "{0, 21}";
target = up;
type = BottomGhost;
},
{
horizontal = 1;
place = "{155, 131}";
type = Stem;
},
{
horizontal = 1;
place = "{421, 131}";
type = Stem;
},
{
horizontal = 1;
place = "{702, -20}";
target = down;
type = TopGhost;
},
{
place = "{39, 619}";
type = Stem;
}
);
layerId = "61C708DC-9E63-4DDF-9A9E-D605D0F8404A";
paths = (
{
closed = 1;
nodes = (
"101 0 LINE",
"222 0 LINE",
"247 155 LINE",
"386 155 LINE",
"360 0 LINE",
"481 0 LINE",
"507 155 LINE",
"625 155 LINE",
"625 286 LINE",
"528 286 LINE",
"551 421 LINE",
"658 421 LINE",
"658 552 LINE",
"573 552 LINE",
"596 702 LINE",
"476 702 LINE",
"452 552 LINE",
"313 552 LINE",
"337 702 LINE",
"217 702 LINE",
"192 552 LINE",
"72 552 LINE",
"72 421 LINE",
"170 421 LINE",
"148 286 LINE",
"39 286 LINE",
"39 155 LINE",
"126 155 LINE"
);
},
{
closed = 1;
nodes = (
"432 423 LINE",
"409 283 LINE",
"266 283 LINE",
"289 423 LINE"
);
}
);
width = 696;
}
);
unicode = 0023;
},
{
glyphname = dollar;
layers = (
{
hints = (
{
place = "{83, 145}";
type = Stem;
},
{
place = "{306, 91}";
type = Stem;
},
{
place = "{310, 84}";
type = Stem;
},
{
place = "{478, 143}";
type = Stem;
},
{
horizontal = 1;
place = "{-1, 21}";
target = up;
type = BottomGhost;
},
{
horizontal = 1;
place = "{0, 21}";
target = up;
type = BottomGhost;
},
{
horizontal = 1;
place = "{583, 181}";
type = Stem;
},
{
horizontal = 1;
place = "{702, -20}";
target = down;
type = TopGhost;
},
{
horizontal = 1;
place = "{704, -20}";
target = down;
type = TopGhost;
}
);
layerId = "61C708DC-9E63-4DDF-9A9E-D605D0F8404A";
paths = (
{
closed = 1;
nodes = (
"306 -97 LINE",
"397 -97 LINE",
"397 -1 LINE",
"529 12 OFFCURVE",
"621 89 OFFCURVE",
"621 205 CURVE SMOOTH",
"621 317 OFFCURVE",
"546 375 OFFCURVE",
"394 416 CURVE",
"394 583 LINE",
"439 575 OFFCURVE",
"479 555 OFFCURVE",
"508 518 CURVE",
"590 607 LINE",
"549 656 OFFCURVE",
"482 694 OFFCURVE",
"398 702 CURVE",
"398 764 LINE",
"307 764 LINE",
"307 704 LINE",
"168 693 OFFCURVE",
"83 614 OFFCURVE",
"83 502 CURVE SMOOTH",
"83 385 OFFCURVE",
"163 326 OFFCURVE",
"310 289 CURVE",
"310 118 LINE",
"247 125 OFFCURVE",
"188 159 OFFCURVE",
"148 206 CURVE",
"58 109 LINE",
"126 41 OFFCURVE",
"214 0 OFFCURVE",
"306 0 CURVE"
);
},
{
closed = 1;
nodes = (
"228 551 OFFCURVE",
"253 578 OFFCURVE",
"310 583 CURVE",
"310 435 LINE",
"251 455 OFFCURVE",
"228 479 OFFCURVE",
"228 515 CURVE SMOOTH"
);
},
{
closed = 1;
nodes = (
"478 156 OFFCURVE",
"453 127 OFFCURVE",
"394 119 CURVE",
"394 271 LINE",
"462 250 OFFCURVE",
"478 221 OFFCURVE",
"478 192 CURVE SMOOTH"
);
}
);
width = 678;
}
);
unicode = 0024;
},
{
glyphname = percent;
layers = (
{
hints = (
{
place = "{28, 104}";
type = Stem;
},
{
place = "{276, 103}";
type = Stem;
},
{
place = "{480, 104}";
type = Stem;
},
{
place = "{727, 104}";
type = Stem;
},
{
horizontal = 1;
place = "{-10, 93}";
type = Stem;
},
{
horizontal = 1;
place = "{-6, 21}";
target = up;
type = BottomGhost;
},
{
horizontal = 1;
place = "{-1, 21}";
target = up;
type = BottomGhost;
},
{
horizontal = 1;
place = "{267, 94}";
type = Stem;
},
{
horizontal = 1;
place = "{342, 94}";
type = Stem;
},
{
horizontal = 1;
place = "{621, 93}";
type = Stem;
},
{
horizontal = 1;
place = "{708, -20}";
target = down;
type = TopGhost;
}
);
layerId = "61C708DC-9E63-4DDF-9A9E-D605D0F8404A";
paths = (
{
closed = 1;
nodes = (
"379 631 OFFCURVE",
"310 714 OFFCURVE",
"204 714 CURVE SMOOTH",
"100 714 OFFCURVE",
"28 631 OFFCURVE",
"28 529 CURVE SMOOTH",
"28 427 OFFCURVE",
"100 342 OFFCURVE",
"203 342 CURVE SMOOTH",
"308 342 OFFCURVE",
"379 427 OFFCURVE",
"379 530 CURVE SMOOTH"
);
},
{
closed = 1;
nodes = (
"745 703 LINE",
"633 708 LINE",
"112 -1 LINE",
"224 -6 LINE"
);
},
{
closed = 1;
nodes = (
"276 476 OFFCURVE",
"248 436 OFFCURVE",
"204 436 CURVE SMOOTH",
"163 436 OFFCURVE",
"132 475 OFFCURVE",
"132 530 CURVE SMOOTH",
"132 582 OFFCURVE",
"160 621 OFFCURVE",
"203 621 CURVE SMOOTH",
"246 621 OFFCURVE",
"276 583 OFFCURVE",
"276 528 CURVE SMOOTH"
);
},
{
closed = 1;
nodes = (
"831 279 OFFCURVE",
"762 361 OFFCURVE",
"656 361 CURVE SMOOTH",
"552 361 OFFCURVE",
"480 277 OFFCURVE",
"480 175 CURVE SMOOTH",
"480 74 OFFCURVE",
"550 -10 OFFCURVE",
"655 -10 CURVE SMOOTH",
"760 -10 OFFCURVE",
"831 76 OFFCURVE",
"831 176 CURVE SMOOTH"
);
},
{
closed = 1;
nodes = (
"727 123 OFFCURVE",
"700 83 OFFCURVE",
"656 83 CURVE SMOOTH",
"615 83 OFFCURVE",
"584 121 OFFCURVE",
"584 176 CURVE SMOOTH",
"584 231 OFFCURVE",
"611 267 OFFCURVE",
"655 267 CURVE SMOOTH",
"698 267 OFFCURVE",
"727 230 OFFCURVE",
"727 175 CURVE SMOOTH"
);
}
);
width = 861;
}
);
unicode = 0025;
},
{
glyphname = ampersand;
layers = (
{
hints = (
{
place = "{32, 158}";
type = Stem;
},
{
place = "{130, 136}";
type = Stem;
},
{
place = "{400, 130}";
type = Stem;
},
{
horizontal = 1;
place = "{-12, 118}";
type = Stem;
},
{
horizontal = 1;
place = "{-5, 21}";
target = up;
type = BottomGhost;
},
{
horizontal = 1;
place = "{608, 111}";
type = Stem;
}
);
layerId = "61C708DC-9E63-4DDF-9A9E-D605D0F8404A";
paths = (
{
closed = 1;
nodes = (
"561 380 LINE",
"538 335 OFFCURVE",
"516 294 OFFCURVE",
"489 255 CURVE",
"386 366 LINE",
"473 405 OFFCURVE",
"530 460 OFFCURVE",
"530 547 CURVE SMOOTH",
"530 645 OFFCURVE",
"453 719 OFFCURVE",
"334 719 CURVE SMOOTH",
"210 719 OFFCURVE",
"130 639 OFFCURVE",
"130 540 CURVE SMOOTH",
"130 489 OFFCURVE",
"148 442 OFFCURVE",
"183 394 CURVE",
"84 353 OFFCURVE",
"32 285 OFFCURVE",
"32 192 CURVE SMOOTH",
"32 66 OFFCURVE",
"135 -12 OFFCURVE",
"273 -12 CURVE SMOOTH",
"357 -12 OFFCURVE",
"423 18 OFFCURVE",
"483 70 CURVE",
"554 -5 LINE",
"702 27 LINE",
"573 168 LINE",
"609 217 OFFCURVE",
"646 286 OFFCURVE",
"675 343 CURVE"
);
},
{
closed = 1;
nodes = (
"373 608 OFFCURVE",
"400 582 OFFCURVE",
"400 541 CURVE SMOOTH",
"400 500 OFFCURVE",
"367 466 OFFCURVE",
"311 441 CURVE",
"282 477 OFFCURVE",
"266 504 OFFCURVE",
"266 535 CURVE SMOOTH",
"266 579 OFFCURVE",
"294 608 OFFCURVE",
"334 608 CURVE SMOOTH"
);
},
{
closed = 1;
nodes = (
"401 157 LINE",
"369 128 OFFCURVE",
"332 106 OFFCURVE",
"292 106 CURVE SMOOTH",
"232 106 OFFCURVE",
"190 146 OFFCURVE",
"190 199 CURVE SMOOTH",
"190 243 OFFCURVE",
"216 276 OFFCURVE",
"265 303 CURVE"
);
}
);
width = 709;
}
);
unicode = 0026;
},
{
glyphname = quotesingle;
layers = (
{
hints = (
{
place = "{38, 192}";
type = Stem;
},
{
horizontal = 1;
place = "{375, 328}";
type = Stem;
},
{
horizontal = 1;
place = "{703, -20}";
target = down;
type = TopGhost;
}
);
layerId = "61C708DC-9E63-4DDF-9A9E-D605D0F8404A";
paths = (
{
closed = 1;
nodes = (
"38 375 LINE",
"125 375 LINE",
"226 683 LINE",
"230 702 LINE",
"230 703 LINE",
"61 703 LINE"
);
}
);
width = 267;
}
);
unicode = 0027;
},
{
glyphname = parenleft;
layers = (
{
hints = (
{
horizontal = 1;
place = "{716, -20}";
target = down;
type = TopGhost;
},
{
place = "{62, 152}";
type = Stem;
}
);
layerId = "61C708DC-9E63-4DDF-9A9E-D605D0F8404A";
paths = (
{
closed = 1;
nodes = (
"214 426 OFFCURVE",
"271 527 OFFCURVE",
"399 627 CURVE",
"321 716 LINE",
"164 612 OFFCURVE",
"62 482 OFFCURVE",
"62 286 CURVE SMOOTH",
"62 89 OFFCURVE",
"159 -45 OFFCURVE",
"319 -141 CURVE",
"399 -53 LINE",
"271 47 OFFCURVE",
"214 146 OFFCURVE",
"214 286 CURVE SMOOTH"
);
}
);
width = 435;
}
);
unicode = 0028;
},
{
glyphname = parenright;
layers = (
{
hints = (
{
horizontal = 1;
place = "{716, -20}";
target = down;
type = TopGhost;
},
{
place = "{222, 151}";
type = Stem;
}
);
layerId = "61C708DC-9E63-4DDF-9A9E-D605D0F8404A";
paths = (
{
closed = 1;
nodes = (
"222 147 OFFCURVE",
"165 47 OFFCURVE",
"36 -53 CURVE",
"116 -141 LINE",
"281 -42 OFFCURVE",
"373 91 OFFCURVE",
"373 286 CURVE SMOOTH",
"373 480 OFFCURVE",
"280 611 OFFCURVE",
"114 716 CURVE",
"36 627 LINE",
"167 527 OFFCURVE",
"222 425 OFFCURVE",
"222 286 CURVE SMOOTH"
);
}
);
width = 437;
}
);
unicode = 0029;
},
{
glyphname = asterisk;
layers = (
{
hints = (
{
horizontal = 1;
place = "{531, -20}";
target = down;
type = TopGhost;
},
{
horizontal = 1;
place = "{715, -20}";
target = down;
type = TopGhost;
},
{
place = "{171, 75}";
type = Stem;
}
);
layerId = "61C708DC-9E63-4DDF-9A9E-D605D0F8404A";
paths = (
{
closed = 1;
nodes = (
"148 572 LINE",
"31 531 LINE",
"54 462 LINE",
"171 502 LINE",
"171 373 LINE",
"246 373 LINE",
"246 500 LINE",
"362 462 LINE",
"385 531 LINE",
"270 570 LINE",
"341 673 LINE",
"280 715 LINE",
"208 616 LINE",
"136 715 LINE",
"75 672 LINE"
);
}
);
width = 415;
}
);
unicode = 002A;
},
{
glyphname = plus;
layers = (
{
hints = (
{
horizontal = 1;
place = "{281, 137}";
type = Stem;
},
{
place = "{223, 142}";
type = Stem;
}
);
layerId = "61C708DC-9E63-4DDF-9A9E-D605D0F8404A";
paths = (
{
closed = 1;
nodes = (
"365 602 LINE",
"223 602 LINE",
"223 418 LINE",
"42 418 LINE",
"42 281 LINE",
"223 281 LINE",
"223 97 LINE",
"365 97 LINE",
"365 281 LINE",
"547 281 LINE",
"547 418 LINE",
"365 418 LINE"
);
}
);
width = 588;
}
);
unicode = 002B;
},
{
glyphname = comma;
layers = (
{
hints = (
{
horizontal = 1;
place = "{-156, 327}";
type = Stem;
},
{
place = "{2, 203}";
type = Stem;
}
);
layerId = "61C708DC-9E63-4DDF-9A9E-D605D0F8404A";
paths = (
{
closed = 1;
nodes = (
"205 171 LINE",
"58 171 LINE",
"2 -156 LINE",
"112 -156 LINE"
);
}
);
width = 238;
}
);
unicode = 002C;
},
{
glyphname = hyphen;
layers = (
{
hints = (
{
horizontal = 1;
place = "{231, 137}";
type = Stem;
},
{
place = "{32, 309}";
type = Stem;
}
);
layerId = "61C708DC-9E63-4DDF-9A9E-D605D0F8404A";
paths = (
{
closed = 1;
nodes = (
"341 368 LINE",
"32 368 LINE",
"32 231 LINE",
"341 231 LINE"
);
}
);
width = 373;
}
);
unicode = 002D;
},
{
glyphname = period;
layers = (
{
hints = (
{
horizontal = 1;
place = "{-12, 186}";
type = Stem;
},
{
place = "{52, 190}";
type = Stem;
}
);
layerId = "61C708DC-9E63-4DDF-9A9E-D605D0F8404A";
paths = (
{
closed = 1;
nodes = (
"52 22 OFFCURVE",
"94 -12 OFFCURVE",
"147 -12 CURVE SMOOTH",
"200 -12 OFFCURVE",
"242 22 OFFCURVE",
"242 81 CURVE SMOOTH",
"242 141 OFFCURVE",
"200 174 OFFCURVE",
"147 174 CURVE SMOOTH",
"94 174 OFFCURVE",
"52 141 OFFCURVE",
"52 81 CURVE SMOOTH"
);
}
);
width = 274;
}
);
unicode = 002E;
},
{
glyphname = slash;
layers = (
{
hints = (
{
horizontal = 1;
place = "{-115, 908}";
type = Stem;
},
{
place = "{16, 564}";
type = Stem;
}
);
layerId = "61C708DC-9E63-4DDF-9A9E-D605D0F8404A";
paths = (
{
closed = 1;
nodes = (
"580 788 LINE",
"455 793 LINE",
"16 -111 LINE",
"142 -115 LINE"
);
}
);
width = 580;
}
);
unicode = 002F;
},
{
glyphname = zero;
layers = (
{
hints = (
{
horizontal = 1;
place = "{-14, 140}";
type = Stem;
},
{
horizontal = 1;
place = "{576, 140}";
type = Stem;
},
{
place = "{34, 159}";
type = Stem;
},
{
place = "{484, 159}";
type = Stem;
}
);
layerId = "61C708DC-9E63-4DDF-9A9E-D605D0F8404A";
paths = (
{
closed = 1;
nodes = (
"149 716 OFFCURVE",
"34 555 OFFCURVE",
"34 351 CURVE SMOOTH",
"34 145 OFFCURVE",
"146 -14 OFFCURVE",
"338 -14 CURVE SMOOTH",
"530 -14 OFFCURVE",
"643 149 OFFCURVE",
"643 352 CURVE SMOOTH",
"643 557 OFFCURVE",
"530 716 OFFCURVE",
"339 716 CURVE SMOOTH"
);
},
{
closed = 1;
nodes = (
"428 576 OFFCURVE",
"484 482 OFFCURVE",
"484 351 CURVE SMOOTH",
"484 221 OFFCURVE",
"429 126 OFFCURVE",
"340 126 CURVE SMOOTH",
"248 126 OFFCURVE",
"193 219 OFFCURVE",
"193 354 CURVE SMOOTH",
"193 483 OFFCURVE",
"248 576 OFFCURVE",
"338 576 CURVE SMOOTH"
);
}
);
width = 677;
}
);
unicode = 0030;
},
{
glyphname = one;
layers = (
{
hints = (
{
horizontal = 1;
place = "{0, 21}";
target = up;
type = BottomGhost;
},
{
horizontal = 1;
place = "{559, 147}";
type = Stem;
},
{
place = "{230, 155}";
type = Stem;
}
);
layerId = "61C708DC-9E63-4DDF-9A9E-D605D0F8404A";
paths = (
{
closed = 1;
nodes = (
"385 706 LINE",
"90 706 LINE",
"90 559 LINE",
"230 559 LINE",
"230 0 LINE",
"385 0 LINE"
);
}
);
width = 566;
}
);
unicode = 0031;
},
{
glyphname = two;
layers = (
{
hints = (
{
horizontal = 1;
place = "{0, 131}";
type = Stem;
},
{
horizontal = 1;
place = "{576, 138}";
type = Stem;
},
{
place = "{404, 159}";
type = Stem;
}
);
layerId = "61C708DC-9E63-4DDF-9A9E-D605D0F8404A";
paths = (
{
closed = 1;
nodes = (
"173 714 OFFCURVE",
"59 633 OFFCURVE",
"51 473 CURVE",
"200 473 LINE",
"205 541 OFFCURVE",
"252 576 OFFCURVE",
"310 576 CURVE SMOOTH",
"371 576 OFFCURVE",
"404 540 OFFCURVE",
"404 493 CURVE SMOOTH",
"404 452 OFFCURVE",
"379 398 OFFCURVE",
"316 322 CURVE",
"44 0 LINE",
"573 0 LINE",
"573 131 LINE",
"342 131 LINE",
"437 250 LINE SMOOTH",
"522 357 OFFCURVE",
"563 423 OFFCURVE",
"563 502 CURVE SMOOTH",
"563 627 OFFCURVE",
"462 714 OFFCURVE",
"313 714 CURVE SMOOTH"
);
}
);
width = 626;
}
);
unicode = 0032;
},
{
glyphname = three;
layers = (
{
hints = (
{
place = "{425, 154}";
type = Stem;
},
{
horizontal = 1;
place = "{-14, 136}";
type = Stem;
},
{
horizontal = 1;
place = "{576, 130}";
type = Stem;
},
{
horizontal = 1;
place = "{589, 117}";
type = Stem;
}
);
layerId = "61C708DC-9E63-4DDF-9A9E-D605D0F8404A";
paths = (
{
closed = 1;
nodes = (
"560 589 LINE",
"560 706 LINE",
"86 706 LINE",
"86 576 LINE",
"366 576 LINE",
"188 404 LINE",
"211 321 LINE",
"227 324 OFFCURVE",
"274 324 OFFCURVE",
"289 324 CURVE SMOOTH",
"372 324 OFFCURVE",
"425 291 OFFCURVE",
"425 224 CURVE SMOOTH",
"425 163 OFFCURVE",
"378 122 OFFCURVE",
"310 122 CURVE SMOOTH",
"246 122 OFFCURVE",
"193 155 OFFCURVE",
"153 215 CURVE",
"40 125 LINE",
"97 41 OFFCURVE",
"192 -14 OFFCURVE",
"317 -14 CURVE SMOOTH",
"473 -14 OFFCURVE",
"579 85 OFFCURVE",
"579 222 CURVE SMOOTH",
"579 347 OFFCURVE",
"493 410 OFFCURVE",
"384 426 CURVE"
);
}
);
width = 640;
}
);
unicode = 0033;
},
{
glyphname = four;
layers = (
{
hints = (
{
horizontal = 1;
place = "{0, 21}";
target = up;
type = BottomGhost;
},
{
horizontal = 1;
place = "{142, 121}";
type = Stem;
},
{
horizontal = 1;
place = "{707, -20}";
target = down;
type = TopGhost;
},
{
place = "{401, 153}";
type = Stem;
}
);
layerId = "61C708DC-9E63-4DDF-9A9E-D605D0F8404A";
paths = (
{
closed = 1;
nodes = (
"381 707 LINE",
"24 259 LINE",
"51 142 LINE",
"401 142 LINE",
"401 0 LINE",
"554 0 LINE",
"554 142 LINE",
"646 142 LINE",
"646 263 LINE",
"554 263 LINE",
"554 707 LINE"
);
},
{
closed = 1;
nodes = (
"401 263 LINE",
"192 263 LINE",
"401 532 LINE"
);
}
);
width = 669;
}
);
unicode = 0034;
},
{
glyphname = five;
layers = (
{
hints = (
{
horizontal = 1;
place = "{-14, 135}";
type = Stem;
},
{
horizontal = 1;
place = "{334, 120}";
type = Stem;
},
{
horizontal = 1;
place = "{570, 132}";
type = Stem;
},
{
place = "{430, 154}";
type = Stem;
}
);
layerId = "61C708DC-9E63-4DDF-9A9E-D605D0F8404A";
paths = (
{
closed = 1;
nodes = (
"194 304 LINE",
"227 321 OFFCURVE",
"262 334 OFFCURVE",
"302 334 CURVE SMOOTH",
"377 334 OFFCURVE",
"430 292 OFFCURVE",
"430 229 CURVE SMOOTH",
"430 165 OFFCURVE",
"382 121 OFFCURVE",
"305 121 CURVE SMOOTH",
"244 121 OFFCURVE",
"189 150 OFFCURVE",
"134 198 CURVE",
"44 92 LINE",
"115 27 OFFCURVE",
"192 -14 OFFCURVE",
"307 -14 CURVE SMOOTH",
"472 -14 OFFCURVE",
"584 81 OFFCURVE",
"584 232 CURVE SMOOTH",
"584 379 OFFCURVE",
"472 454 OFFCURVE",
"344 454 CURVE SMOOTH",
"300 454 OFFCURVE",
"268 444 OFFCURVE",
"233 431 CURVE",
"245 570 LINE",
"553 570 LINE",
"556 702 LINE",
"120 702 LINE",
"96 357 LINE"
);
}
);
width = 640;
}
);
unicode = 0035;
},
{
glyphname = six;
layers = (
{
hints = (
{
horizontal = 1;
place = "{-14, 125}";
type = Stem;
},
{
horizontal = 1;
place = "{333, 115}";
type = Stem;
},
{
horizontal = 1;
place = "{706, -20}";
target = down;
type = TopGhost;
},
{
place = "{32, 159}";
type = Stem;
},
{
place = "{428, 154}";
type = Stem;
}
);
layerId = "61C708DC-9E63-4DDF-9A9E-D605D0F8404A";
paths = (
{
closed = 1;
nodes = (
"293 706 LINE",
"151 492 LINE SMOOTH",
"63 358 OFFCURVE",
"32 297 OFFCURVE",
"32 223 CURVE SMOOTH",
"32 81 OFFCURVE",
"145 -14 OFFCURVE",
"314 -14 CURVE SMOOTH",
"466 -14 OFFCURVE",
"582 83 OFFCURVE",
"582 232 CURVE SMOOTH",
"582 369 OFFCURVE",
"496 448 OFFCURVE",
"374 448 CURVE SMOOTH",
"315 448 OFFCURVE",
"287 436 OFFCURVE",
"252 409 CURVE",
"460 706 LINE"
);
},
{
closed = 1;
nodes = (
"191 284 OFFCURVE",
"237 333 OFFCURVE",
"309 333 CURVE SMOOTH",
"381 333 OFFCURVE",
"428 285 OFFCURVE",
"428 224 CURVE SMOOTH",
"428 159 OFFCURVE",
"381 111 OFFCURVE",
"311 111 CURVE SMOOTH",
"240 111 OFFCURVE",
"191 162 OFFCURVE",
"191 223 CURVE SMOOTH"
);
}
);
width = 611;
}
);
unicode = 0036;
},
{
glyphname = seven;
layers = (
{
hints = (
{
horizontal = 1;
place = "{0, 21}";
target = up;
type = BottomGhost;
},
{
horizontal = 1;
place = "{568, 134}";
type = Stem;
},
{
place = "{52, 519}";
type = Stem;
}
);
layerId = "61C708DC-9E63-4DDF-9A9E-D605D0F8404A";
paths = (
{
closed = 1;
nodes = (
"571 579 LINE",
"571 702 LINE",
"52 702 LINE",
"52 568 LINE",
"398 568 LINE",
"78 0 LINE",
"252 0 LINE"
);
}
);
width = 620;
}
);
unicode = 0037;
},
{
glyphname = eight;
layers = (
{
hints = (
{
place = "{34, 153}";
type = Stem;
},
{
place = "{59, 146}";
type = Stem;
},
{
place = "{412, 146}";
type = Stem;
},
{
place = "{429, 154}";
type = Stem;
},
{
horizontal = 1;
place = "{-12, 121}";
type = Stem;
},
{
horizontal = 1;
place = "{304, 108}";
type = Stem;
},
{
horizontal = 1;
place = "{593, 121}";
type = Stem;
}
);
layerId = "61C708DC-9E63-4DDF-9A9E-D605D0F8404A";
paths = (
{
closed = 1;
nodes = (
"558 632 OFFCURVE",
"453 714 OFFCURVE",
"308 714 CURVE SMOOTH",
"163 714 OFFCURVE",
"59 633 OFFCURVE",
"59 521 CURVE SMOOTH",
"59 446 OFFCURVE",
"99 397 OFFCURVE",
"159 365 CURVE",
"80 332 OFFCURVE",
"34 274 OFFCURVE",
"34 193 CURVE SMOOTH",
"34 73 OFFCURVE",
"150 -12 OFFCURVE",
"308 -12 CURVE SMOOTH",
"465 -12 OFFCURVE",
"583 71 OFFCURVE",
"583 195 CURVE SMOOTH",
"583 272 OFFCURVE",
"533 332 OFFCURVE",
"457 365 CURVE",
"516 397 OFFCURVE",
"558 445 OFFCURVE",
"558 520 CURVE SMOOTH"
);
},
{
closed = 1;
nodes = (
"205 555 OFFCURVE",
"247 593 OFFCURVE",
"308 593 CURVE SMOOTH",
"369 593 OFFCURVE",
"412 554 OFFCURVE",
"412 504 CURVE SMOOTH",
"412 452 OFFCURVE",
"368 412 OFFCURVE",
"308 412 CURVE SMOOTH",
"248 412 OFFCURVE",
"205 454 OFFCURVE",
"205 504 CURVE SMOOTH"
);
},
{
closed = 1;
nodes = (
"187 264 OFFCURVE",
"238 304 OFFCURVE",
"308 304 CURVE SMOOTH",
"378 304 OFFCURVE",
"429 264 OFFCURVE",
"429 208 CURVE SMOOTH",
"429 155 OFFCURVE",
"384 109 OFFCURVE",
"308 109 CURVE SMOOTH",
"232 109 OFFCURVE",
"187 155 OFFCURVE",
"187 208 CURVE SMOOTH"
);
}
);
width = 615;
}
);
unicode = 0038;
},
{
glyphname = nine;
layers = (
{
hints = (
{
horizontal = 1;
place = "{-1, 21}";
target = up;
type = BottomGhost;
},
{
horizontal = 1;
place = "{256, 117}";
type = Stem;
},
{
horizontal = 1;
place = "{595, 125}";
type = Stem;
},
{
place = "{32, 155}";
type = Stem;
},
{
place = "{423, 159}";
type = Stem;
}
);
layerId = "61C708DC-9E63-4DDF-9A9E-D605D0F8404A";
paths = (
{
closed = 1;
nodes = (
"321 -1 LINE",
"496 267 LINE SMOOTH",
"555 358 OFFCURVE",
"582 419 OFFCURVE",
"582 482 CURVE SMOOTH",
"582 624 OFFCURVE",
"472 720 OFFCURVE",
"298 720 CURVE SMOOTH",
"151 720 OFFCURVE",
"32 623 OFFCURVE",
"32 475 CURVE SMOOTH",
"32 340 OFFCURVE",
"119 256 OFFCURVE",
"242 256 CURVE SMOOTH",
"295 256 OFFCURVE",
"326 269 OFFCURVE",
"363 297 CURVE",
"155 -1 LINE"
);
},
{
closed = 1;
nodes = (
"423 423 OFFCURVE",
"377 373 OFFCURVE",
"305 373 CURVE SMOOTH",
"235 373 OFFCURVE",
"187 422 OFFCURVE",
"187 484 CURVE SMOOTH",
"187 546 OFFCURVE",
"232 595 OFFCURVE",
"304 595 CURVE SMOOTH",
"373 595 OFFCURVE",
"423 545 OFFCURVE",
"423 484 CURVE SMOOTH"
);
}
);
width = 617;
}
);
unicode = 0039;
},
{
glyphname = colon;
layers = (
{
hints = (
{
horizontal = 1;
place = "{-12, 186}";
type = Stem;
},
{
horizontal = 1;
place = "{345, 187}";
type = Stem;
},
{
place = "{53, 190}";
type = Stem;
}
);
layerId = "61C708DC-9E63-4DDF-9A9E-D605D0F8404A";
paths = (
{
closed = 1;
nodes = (
"53 379 OFFCURVE",
"93 345 OFFCURVE",
"148 345 CURVE SMOOTH",
"200 345 OFFCURVE",
"243 379 OFFCURVE",
"243 439 CURVE SMOOTH",
"243 498 OFFCURVE",
"200 532 OFFCURVE",
"148 532 CURVE SMOOTH",
"93 532 OFFCURVE",
"53 498 OFFCURVE",
"53 439 CURVE SMOOTH"
);
},
{
closed = 1;
nodes = (
"53 22 OFFCURVE",
"93 -12 OFFCURVE",
"148 -12 CURVE SMOOTH",
"200 -12 OFFCURVE",
"243 22 OFFCURVE",
"243 82 CURVE SMOOTH",
"243 141 OFFCURVE",
"200 174 OFFCURVE",
"148 174 CURVE SMOOTH",
"93 174 OFFCURVE",
"53 141 OFFCURVE",
"53 82 CURVE SMOOTH"
);
}
);
width = 275;
}
);
unicode = 003A;
},
{
glyphname = semicolon;
layers = (
{
hints = (
{
horizontal = 1;
place = "{345, 187}";
type = Stem;
},
{
place = "{29, 190}";
type = Stem;
}
);
layerId = "61C708DC-9E63-4DDF-9A9E-D605D0F8404A";
paths = (
{
closed = 1;
nodes = (
"29 379 OFFCURVE",
"69 345 OFFCURVE",
"124 345 CURVE SMOOTH",
"176 345 OFFCURVE",
"219 379 OFFCURVE",
"219 439 CURVE SMOOTH",
"219 498 OFFCURVE",
"176 532 OFFCURVE",
"124 532 CURVE SMOOTH",
"69 532 OFFCURVE",
"29 498 OFFCURVE",
"29 439 CURVE SMOOTH"
);
},
{
closed = 1;
nodes = (
"207 171 LINE",
"59 171 LINE",
"3 -156 LINE",
"113 -156 LINE"
);
}
);
width = 247;
}
);
unicode = 003B;
},
{
glyphname = less;
layers = (
{
hints = (
{
horizontal = 1;
place = "{70, 557}";
type = Stem;
},
{
place = "{61, 491}";
type = Stem;
}
);
layerId = "61C708DC-9E63-4DDF-9A9E-D605D0F8404A";
paths = (
{
closed = 1;
nodes = (
"552 627 LINE",
"61 419 LINE",
"61 278 LINE",
"552 70 LINE",
"552 215 LINE",
"205 349 LINE",
"552 483 LINE"
);
}
);
width = 612;
}
);
unicode = 003C;
},
{
glyphname = equal;
layers = (
{
hints = (
{
horizontal = 1;
place = "{155, 136}";
type = Stem;
},
{
horizontal = 1;
place = "{415, 136}";
type = Stem;
},
{
place = "{42, 485}";
type = Stem;
}
);
layerId = "61C708DC-9E63-4DDF-9A9E-D605D0F8404A";
paths = (
{
closed = 1;
nodes = (
"42 551 LINE",
"42 415 LINE",
"527 415 LINE",
"527 551 LINE"
);
},
{
closed = 1;
nodes = (
"42 291 LINE",
"42 155 LINE",
"527 155 LINE",
"527 291 LINE"
);
}
);
width = 569;
}
);
unicode = 003D;
},
{
glyphname = greater;
layers = (
{
hints = (
{
horizontal = 1;
place = "{70, 557}";
type = Stem;
},
{
place = "{61, 490}";
type = Stem;
}
);
layerId = "61C708DC-9E63-4DDF-9A9E-D605D0F8404A";
paths = (
{
closed = 1;
nodes = (
"61 482 LINE",
"408 348 LINE",
"61 215 LINE",
"61 70 LINE",
"551 277 LINE",
"551 420 LINE",
"61 627 LINE"
);
}
);
width = 612;
}
);
unicode = 003E;
},
{
glyphname = question;
layers = (
{
hints = (
{
place = "{146, 183}";
type = Stem;
},
{
place = "{159, 143}";
type = Stem;
},
{
place = "{307, 155}";
type = Stem;
},
{
horizontal = 1;
place = "{-12, 168}";
type = Stem;
},
{
horizontal = 1;
place = "{578, 134}";
type = Stem;
}
);
layerId = "61C708DC-9E63-4DDF-9A9E-D605D0F8404A";
paths = (
{
closed = 1;
nodes = (
"267 578 OFFCURVE",
"307 552 OFFCURVE",
"307 511 CURVE SMOOTH",
"307 475 OFFCURVE",
"279 446 OFFCURVE",
"248 421 CURVE",
"205 384 OFFCURVE",
"159 341 OFFCURVE",
"159 258 CURVE SMOOTH",
"159 209 LINE",
"302 209 LINE",
"302 240 LINE SMOOTH",
"302 288 OFFCURVE",
"318 308 OFFCURVE",
"356 341 CURVE",
"417 391 OFFCURVE",
"462 434 OFFCURVE",
"462 521 CURVE SMOOTH",
"462 641 OFFCURVE",
"363 712 OFFCURVE",
"245 712 CURVE SMOOTH",
"166 712 OFFCURVE",
"95 682 OFFCURVE",
"50 625 CURVE",
"50 487 LINE",
"94 537 OFFCURVE",
"154 578 OFFCURVE",
"219 578 CURVE SMOOTH"
);
},
{
closed = 1;
nodes = (
"146 18 OFFCURVE",
"186 -12 OFFCURVE",
"237 -12 CURVE SMOOTH",
"288 -12 OFFCURVE",
"329 18 OFFCURVE",
"329 73 CURVE SMOOTH",
"329 125 OFFCURVE",
"288 156 OFFCURVE",
"237 156 CURVE SMOOTH",
"186 156 OFFCURVE",
"146 125 OFFCURVE",
"146 73 CURVE SMOOTH"
);
}
);
width = 502;
}
);
unicode = 003F;
},
{
glyphname = at;
layers = (
{
hints = (
{
place = "{53, 52}";
type = Stem;
},
{
place = "{232, 133}";
type = Stem;
},
{
place = "{561, 118}";
type = Stem;
},
{
place = "{852, 51}";
type = Stem;
},
{
horizontal = 1;
place = "{-139, 48}";
type = Stem;
},
{
horizontal = 1;
place = "{74, 60}";
type = Stem;
},
{
horizontal = 1;
place = "{76, 112}";
type = Stem;
},
{
horizontal = 1;
place = "{409, 112}";
type = Stem;
},
{
horizontal = 1;
place = "{669, 47}";
type = Stem;
}
);
layerId = "61C708DC-9E63-4DDF-9A9E-D605D0F8404A";
paths = (
{
closed = 1;
nodes = (
"737 -28 LINE",
"660 -73 OFFCURVE",
"588 -91 OFFCURVE",
"493 -91 CURVE SMOOTH",
"257 -91 OFFCURVE",
"105 71 OFFCURVE",
"105 287 CURVE SMOOTH",
"105 504 OFFCURVE",
"262 669 OFFCURVE",
"485 669 CURVE SMOOTH",
"702 669 OFFCURVE",
"852 521 OFFCURVE",
"852 332 CURVE SMOOTH",
"852 206 OFFCURVE",
"806 134 OFFCURVE",
"741 134 CURVE SMOOTH",
"688 134 OFFCURVE",
"679 186 OFFCURVE",
"679 213 CURVE SMOOTH",
"679 219 OFFCURVE",
"679 225 OFFCURVE",
"680 230 CURVE SMOOTH",
"723 490 LINE",
"596 508 LINE",
"585 446 LINE",
"558 489 OFFCURVE",
"517 521 OFFCURVE",
"452 521 CURVE SMOOTH",
"333 521 OFFCURVE",
"232 410 OFFCURVE",
"232 272 CURVE SMOOTH",
"232 156 OFFCURVE",
"310 76 OFFCURVE",
"413 76 CURVE SMOOTH",
"477 76 OFFCURVE",
"524 109 OFFCURVE",
"561 153 CURVE",
"582 108 OFFCURVE",
"624 74 OFFCURVE",
"700 74 CURVE SMOOTH",
"808 74 OFFCURVE",
"903 163 OFFCURVE",
"903 336 CURVE SMOOTH",
"903 544 OFFCURVE",
"723 716 OFFCURVE",
"485 716 CURVE SMOOTH",
"240 716 OFFCURVE",
"53 522 OFFCURVE",
"53 286 CURVE SMOOTH",
"53 49 OFFCURVE",
"237 -139 OFFCURVE",
"490 -139 CURVE SMOOTH",
"594 -139 OFFCURVE",
"679 -110 OFFCURVE",
"758 -61 CURVE"
);
},
{
closed = 1;
nodes = (
"528 409 OFFCURVE",
"561 372 OFFCURVE",
"561 319 CURVE SMOOTH",
"561 249 OFFCURVE",
"511 188 OFFCURVE",
"449 188 CURVE SMOOTH",
"398 188 OFFCURVE",
"365 224 OFFCURVE",
"365 281 CURVE SMOOTH",
"365 352 OFFCURVE",
"414 409 OFFCURVE",
"476 409 CURVE SMOOTH"
);
}
);
width = 948;
}
);
unicode = 0040;
},
{
glyphname = A;
layers = (
{
hints = (
{
horizontal = 1;
place = "{0, 21}";
target = up;
type = BottomGhost;
},
{
horizontal = 1;
place = "{149, 126}";
type = Stem;
},
{
horizontal = 1;
place = "{705, -20}";
target = down;
type = TopGhost;
},
{
place = "{19, 751}";
type = Stem;
}
);
layerId = "61C708DC-9E63-4DDF-9A9E-D605D0F8404A";
paths = (
{
closed = 1;
nodes = (
"538 149 LINE",
"600 0 LINE",
"770 0 LINE",
"468 705 LINE",
"320 705 LINE",
"19 0 LINE",
"185 0 LINE",
"247 149 LINE"
);
},
{
closed = 1;
nodes = (
"393 519 LINE",
"490 275 LINE",
"295 275 LINE"
);
}
);
width = 794;
}
);
unicode = 0041;
},
{
glyphname = B;
layers = (
{
hints = (
{
place = "{70, 154}";
type = Stem;
},
{
place = "{458, 158}";
type = Stem;
},
{
place = "{500, 158}";
type = Stem;
},
{
horizontal = 1;
place = "{0, 129}";
type = Stem;
},
{
horizontal = 1;
place = "{297, 116}";
type = Stem;
},
{
horizontal = 1;
place = "{573, 129}";
type = Stem;
}
);
layerId = "61C708DC-9E63-4DDF-9A9E-D605D0F8404A";
paths = (
{
closed = 1;
nodes = (
"70 0 LINE",
"386 0 LINE SMOOTH",
"565 0 OFFCURVE",
"658 79 OFFCURVE",
"658 195 CURVE SMOOTH",
"658 285 OFFCURVE",
"605 342 OFFCURVE",
"510 366 CURVE",
"574 393 OFFCURVE",
"616 446 OFFCURVE",
"616 525 CURVE SMOOTH",
"616 644 OFFCURVE",
"514 702 OFFCURVE",
"375 702 CURVE SMOOTH",
"70 702 LINE"
);
},
{
closed = 1;
nodes = (
"224 573 LINE",
"350 573 LINE SMOOTH",
"418 573 OFFCURVE",
"458 547 OFFCURVE",
"458 494 CURVE SMOOTH",
"458 445 OFFCURVE",
"422 413 OFFCURVE",
"347 413 CURVE SMOOTH",
"224 413 LINE"
);
},
{
closed = 1;
nodes = (
"224 297 LINE",
"364 297 LINE SMOOTH",
"461 297 OFFCURVE",
"500 267 OFFCURVE",
"500 214 CURVE SMOOTH",
"500 159 OFFCURVE",
"459 129 OFFCURVE",
"376 129 CURVE SMOOTH",
"224 129 LINE"
);
}
);
width = 698;
}
);
unicode = 0042;
},
{
glyphname = C;
layers = (
{
hints = (
{
horizontal = 1;
place = "{-14, 144}";
type = Stem;
},
{
horizontal = 1;
place = "{572, 144}";
type = Stem;
},
{
place = "{37, 162}";
type = Stem;
}
);
layerId = "61C708DC-9E63-4DDF-9A9E-D605D0F8404A";
paths = (
{
closed = 1;
nodes = (
"625 224 LINE",
"563 165 OFFCURVE",
"497 130 OFFCURVE",
"414 130 CURVE SMOOTH",
"282 130 OFFCURVE",
"199 227 OFFCURVE",
"199 352 CURVE SMOOTH",
"199 474 OFFCURVE",
"282 572 OFFCURVE",
"414 572 CURVE SMOOTH",
"503 572 OFFCURVE",
"570 535 OFFCURVE",
"617 486 CURVE",
"617 649 LINE",
"562 689 OFFCURVE",
"495 716 OFFCURVE",
"404 716 CURVE SMOOTH",
"192 716 OFFCURVE",
"37 555 OFFCURVE",
"37 350 CURVE SMOOTH",
"37 142 OFFCURVE",
"195 -14 OFFCURVE",
"398 -14 CURVE SMOOTH",
"490 -14 OFFCURVE",
"561 14 OFFCURVE",
"625 62 CURVE"
);
}
);
width = 655;
}
);
unicode = 0043;
},
{
glyphname = D;
layers = (
{
hints = (
{
horizontal = 1;
place = "{0, 140}";
type = Stem;
},
{
horizontal = 1;
place = "{561, 141}";
type = Stem;
},
{
place = "{70, 158}";
type = Stem;
},
{
place = "{550, 162}";
type = Stem;
}
);
layerId = "61C708DC-9E63-4DDF-9A9E-D605D0F8404A";
paths = (
{
closed = 1;
nodes = (
"70 0 LINE",
"321 0 LINE SMOOTH",
"564 0 OFFCURVE",
"712 150 OFFCURVE",
"712 354 CURVE SMOOTH",
"712 559 OFFCURVE",
"562 702 OFFCURVE",
"324 702 CURVE SMOOTH",
"70 702 LINE"
);
},
{
closed = 1;
nodes = (
"228 561 LINE",
"340 561 LINE SMOOTH",
"469 561 OFFCURVE",
"550 469 OFFCURVE",
"550 351 CURVE SMOOTH",
"550 223 OFFCURVE",
"463 140 OFFCURVE",
"324 140 CURVE SMOOTH",
"228 140 LINE"
);
}
);
width = 749;
}
);
unicode = 0044;
},
{
glyphname = E;
layers = (
{
hints = (
{
horizontal = 1;
place = "{0, 135}";
type = Stem;
},
{
horizontal = 1;
place = "{291, 127}";
type = Stem;
},
{
horizontal = 1;
place = "{566, 136}";
type = Stem;
},
{
place = "{70, 157}";
type = Stem;
}
);
layerId = "61C708DC-9E63-4DDF-9A9E-D605D0F8404A";
paths = (
{
closed = 1;
nodes = (
"227 291 LINE",
"566 291 LINE",
"566 418 LINE",
"227 418 LINE",
"227 566 LINE",
"599 566 LINE",
"599 702 LINE",
"70 702 LINE",
"70 0 LINE",
"606 0 LINE",
"606 135 LINE",
"227 135 LINE"
);
}
);
width = 645;
}
);
unicode = 0045;
},
{
glyphname = F;
layers = (
{
hints = (
{
horizontal = 1;
place = "{-1, 21}";
target = up;
type = BottomGhost;
},
{
horizontal = 1;
place = "{271, 133}";
type = Stem;
},
{
horizontal = 1;
place = "{563, 139}";
type = Stem;
},
{
place = "{70, 158}";
type = Stem;
}
);
layerId = "61C708DC-9E63-4DDF-9A9E-D605D0F8404A";
paths = (
{
closed = 1;
nodes = (
"228 271 LINE",
"562 271 LINE",
"562 404 LINE",
"228 404 LINE",
"228 563 LINE",
"596 563 LINE",
"596 702 LINE",
"70 702 LINE",
"70 -1 LINE",
"228 -1 LINE"
);
}
);
width = 648;
}
);
unicode = 0046;
},
{
glyphname = G;
layers = (
{
hints = (
{
place = "{37, 161}";
type = Stem;
},
{
place = "{425, 194}";
type = Stem;
},
{
place = "{587, 149}";
type = Stem;
},
{
horizontal = 1;
place = "{-15, 138}";
type = Stem;
},
{
horizontal = 1;
place = "{285, 121}";
type = Stem;
},
{
horizontal = 1;
place = "{575, 141}";
type = Stem;
}
);
layerId = "61C708DC-9E63-4DDF-9A9E-D605D0F8404A";
paths = (
{
closed = 1;
nodes = (
"587 285 LINE",
"587 177 OFFCURVE",
"497 123 OFFCURVE",
"409 123 CURVE SMOOTH",
"290 123 OFFCURVE",
"198 218 OFFCURVE",
"198 350 CURVE SMOOTH",
"198 474 OFFCURVE",
"296 575 OFFCURVE",
"425 575 CURVE SMOOTH",
"501 575 OFFCURVE",
"568 546 OFFCURVE",
"619 501 CURVE",
"619 669 LINE",
"562 701 OFFCURVE",
"487 716 OFFCURVE",
"415 716 CURVE SMOOTH",
"201 716 OFFCURVE",
"37 554 OFFCURVE",
"37 351 CURVE SMOOTH",
"37 143 OFFCURVE",
"196 -15 OFFCURVE",
"400 -15 CURVE SMOOTH",
"586 -15 OFFCURVE",
"736 100 OFFCURVE",
"736 370 CURVE SMOOTH",
"736 406 LINE",
"425 406 LINE",
"425 285 LINE"
);
}
);
width = 792;
}
);
unicode = 0047;
},
{
glyphname = H;
layers = (
{
hints = (
{
horizontal = 1;
place = "{0, 21}";
target = up;
type = BottomGhost;
},
{
horizontal = 1;
place = "{284, 141}";
type = Stem;
},
{
horizontal = 1;
place = "{702, -20}";
target = down;
type = TopGhost;
},
{
place = "{70, 157}";
type = Stem;
},
{
place = "{521, 157}";
type = Stem;
}
);
layerId = "61C708DC-9E63-4DDF-9A9E-D605D0F8404A";
paths = (
{
closed = 1;
nodes = (
"70 0 LINE",
"227 0 LINE",
"227 284 LINE",
"521 284 LINE",
"521 0 LINE",
"678 0 LINE",
"678 702 LINE",
"521 702 LINE",
"521 425 LINE",
"227 425 LINE",
"227 702 LINE",
"70 702 LINE"
);
}
);
width = 747;
}
);
unicode = 0048;
},
{
glyphname = I;
layers = (
{
hints = (
{
horizontal = 1;
place = "{0, 21}";
target = up;
type = BottomGhost;
},
{
horizontal = 1;
place = "{702, -20}";
target = down;
type = TopGhost;
},
{
place = "{70, 158}";
type = Stem;
}
);
layerId = "61C708DC-9E63-4DDF-9A9E-D605D0F8404A";
paths = (
{
closed = 1;
nodes = (
"228 702 LINE",
"70 702 LINE",
"70 0 LINE",
"228 0 LINE"
);
}
);
width = 297;
}
);
unicode = 0049;
},
{
glyphname = J;
layers = (
{
hints = (
{
horizontal = 1;
place = "{-12, 140}";
type = Stem;
},
{
horizontal = 1;
place = "{702, -20}";
target = down;
type = TopGhost;
},
{
place = "{222, 157}";
type = Stem;
}
);
layerId = "61C708DC-9E63-4DDF-9A9E-D605D0F8404A";
paths = (
{
closed = 1;
nodes = (
"-1 35 LINE",
"23 19 OFFCURVE",
"46 6 OFFCURVE",
"73 -2 CURVE SMOOTH",
"86 -6 OFFCURVE",
"97 -8 OFFCURVE",
"112 -9 CURVE SMOOTH",
"117 -10 OFFCURVE",
"124 -11 OFFCURVE",
"131 -11 CURVE",
"132 -12 OFFCURVE",
"134 -12 OFFCURVE",
"135 -12 CURVE",
"145 -12 LINE SMOOTH",
"284 -12 OFFCURVE",
"369 70 OFFCURVE",
"378 214 CURVE SMOOTH",
"379 226 OFFCURVE",
"379 240 OFFCURVE",
"379 257 CURVE SMOOTH",
"379 702 LINE",
"222 702 LINE",
"222 240 LINE SMOOTH",
"222 161 OFFCURVE",
"185 128 OFFCURVE",
"129 128 CURVE SMOOTH",
"108 128 OFFCURVE",
"87 133 OFFCURVE",
"68 142 CURVE SMOOTH",
"44 154 OFFCURVE",
"22 172 OFFCURVE",
"-1 191 CURVE"
);
}
);
width = 443;
}
);
unicode = 004A;
},
{
glyphname = K;
layers = (
{
hints = (
{
horizontal = 1;
place = "{0, 21}";
target = up;
type = BottomGhost;
},
{
horizontal = 1;
place = "{702, -20}";
target = down;
type = TopGhost;
},
{
place = "{70, 157}";
type = Stem;
}
);
layerId = "61C708DC-9E63-4DDF-9A9E-D605D0F8404A";
paths = (
{
closed = 1;
nodes = (
"227 702 LINE",
"70 702 LINE",
"70 0 LINE",
"227 0 LINE",
"227 355 LINE",
"490 0 LINE",
"682 0 LINE",
"389 391 LINE",
"666 702 LINE",
"477 702 LINE",
"227 414 LINE"
);
}
);
width = 678;
}
);
unicode = 004B;
},
{
glyphname = L;
layers = (
{
hints = (
{
horizontal = 1;
place = "{0, 139}";
type = Stem;
},
{
horizontal = 1;
place = "{702, -20}";
target = down;
type = TopGhost;
},
{
place = "{70, 158}";
type = Stem;
}
);
layerId = "61C708DC-9E63-4DDF-9A9E-D605D0F8404A";
paths = (
{
closed = 1;
nodes = (
"228 702 LINE",
"70 702 LINE",
"70 0 LINE",
"569 0 LINE",
"569 139 LINE",
"228 139 LINE"
);
}
);
width = 594;
}
);
unicode = 004C;
},
{
glyphname = M;
layers = (
{
hints = (
{
horizontal = 1;
place = "{0, 21}";
target = up;
type = BottomGhost;
},
{
place = "{54, 154}";
type = Stem;
},
{
place = "{631, 157}";
type = Stem;
}
);
layerId = "61C708DC-9E63-4DDF-9A9E-D605D0F8404A";
paths = (
{
closed = 1;
nodes = (
"419 136 LINE",
"631 456 LINE",
"631 0 LINE",
"788 0 LINE",
"788 700 LINE",
"624 700 LINE",
"421 379 LINE",
"218 700 LINE",
"54 700 LINE",
"54 0 LINE",
"208 0 LINE",
"208 455 LINE"
);
}
);
width = 842;
}
);
unicode = 004D;
},
{
glyphname = N;
layers = (
{
hints = (
{
horizontal = 1;
place = "{0, 21}";
target = up;
type = BottomGhost;
},
{
horizontal = 1;
place = "{702, -20}";
target = down;
type = TopGhost;
},
{
place = "{70, 155}";
type = Stem;
},
{
place = "{551, 155}";
type = Stem;
}
);
layerId = "61C708DC-9E63-4DDF-9A9E-D605D0F8404A";
paths = (
{
closed = 1;
nodes = (
"219 700 LINE",
"70 700 LINE",
"70 0 LINE",
"225 0 LINE",
"225 448 LINE",
"565 0 LINE",
"706 0 LINE",
"706 702 LINE",
"551 702 LINE",
"551 262 LINE"
);
}
);
width = 776;
}
);
unicode = 004E;
},
{
glyphname = O;
layers = (
{
hints = (
{
horizontal = 1;
place = "{-14, 142}";
type = Stem;
},
{
horizontal = 1;
place = "{573, 143}";
type = Stem;
},
{
place = "{37, 161}";
type = Stem;
},
{
place = "{621, 162}";
type = Stem;
}
);
layerId = "61C708DC-9E63-4DDF-9A9E-D605D0F8404A";
paths = (
{
closed = 1;
nodes = (
"783 552 OFFCURVE",
"624 716 OFFCURVE",
"411 716 CURVE SMOOTH",
"195 716 OFFCURVE",
"37 552 OFFCURVE",
"37 350 CURVE SMOOTH",
"37 149 OFFCURVE",
"195 -14 OFFCURVE",
"409 -14 CURVE SMOOTH",
"623 -14 OFFCURVE",
"783 150 OFFCURVE",
"783 353 CURVE SMOOTH"
);
},
{
closed = 1;
nodes = (
"621 231 OFFCURVE",
"535 128 OFFCURVE",
"410 128 CURVE SMOOTH",
"285 128 OFFCURVE",
"198 230 OFFCURVE",
"198 353 CURVE SMOOTH",
"198 473 OFFCURVE",
"284 573 OFFCURVE",
"410 573 CURVE SMOOTH",
"534 573 OFFCURVE",
"621 471 OFFCURVE",
"621 350 CURVE SMOOTH"
);
}
);
width = 820;
}
);
unicode = 004F;
},
{
glyphname = P;
layers = (
{
hints = (
{
horizontal = 1;
place = "{-1, 21}";
target = up;
type = BottomGhost;
},
{
horizontal = 1;
place = "{226, 127}";
type = Stem;
},
{
horizontal = 1;
place = "{568, 134}";
type = Stem;
},
{
place = "{70, 158}";
type = Stem;
},
{
place = "{465, 158}";
type = Stem;
}
);
layerId = "61C708DC-9E63-4DDF-9A9E-D605D0F8404A";
paths = (
{
closed = 1;
nodes = (
"70 -1 LINE",
"228 -1 LINE",
"228 226 LINE",
"337 226 LINE SMOOTH",
"501 226 OFFCURVE",
"623 312 OFFCURVE",
"623 468 CURVE SMOOTH",
"623 615 OFFCURVE",
"513 702 OFFCURVE",
"346 702 CURVE SMOOTH",
"70 702 LINE"
);
},
{
closed = 1;
nodes = (
"228 568 LINE",
"333 568 LINE SMOOTH",
"417 568 OFFCURVE",
"465 532 OFFCURVE",
"465 461 CURVE SMOOTH",
"465 394 OFFCURVE",
"416 353 OFFCURVE",
"333 353 CURVE SMOOTH",
"228 353 LINE"
);
}
);
width = 657;
}
);
unicode = 0050;
},
{
glyphname = Q;
layers = (
{
hints = (
{
horizontal = 1;
place = "{-14, 142}";
type = Stem;
},
{
horizontal = 1;
place = "{573, 143}";
type = Stem;
},
{
place = "{37, 161}";
type = Stem;
},
{
place = "{621, 162}";
type = Stem;
}
);
layerId = "61C708DC-9E63-4DDF-9A9E-D605D0F8404A";
paths = (
{
closed = 1;
nodes = (
"820 -125 LINE",
"820 45 LINE",
"715 143 LINE",
"760 203 OFFCURVE",
"783 268 OFFCURVE",
"783 351 CURVE SMOOTH",
"783 553 OFFCURVE",
"624 716 OFFCURVE",
"411 716 CURVE SMOOTH",
"195 716 OFFCURVE",
"37 552 OFFCURVE",
"37 350 CURVE SMOOTH",
"37 147 OFFCURVE",
"195 -14 OFFCURVE",
"409 -14 CURVE SMOOTH",
"493 -14 OFFCURVE",
"573 11 OFFCURVE",
"624 51 CURVE"
);
},
{
closed = 1;
nodes = (
"621 228 OFFCURVE",
"535 128 OFFCURVE",
"410 128 CURVE SMOOTH",
"285 128 OFFCURVE",
"198 231 OFFCURVE",
"198 351 CURVE SMOOTH",
"198 474 OFFCURVE",
"284 573 OFFCURVE",
"410 573 CURVE SMOOTH",
"534 573 OFFCURVE",
"621 471 OFFCURVE",
"621 350 CURVE SMOOTH"
);
}
);
width = 854;
}
);
unicode = 0051;
},
{
glyphname = R;
layers = (
{
hints = (
{
horizontal = 1;
place = "{0, 21}";
target = up;
type = BottomGhost;
},
{
horizontal = 1;
place = "{241, 124}";
type = Stem;
},
{
horizontal = 1;
place = "{564, 138}";
type = Stem;
},
{
place = "{70, 159}";
type = Stem;
},
{
place = "{480, 158}";
type = Stem;
}
);
layerId = "61C708DC-9E63-4DDF-9A9E-D605D0F8404A";
paths = (
{
closed = 1;
nodes = (
"229 0 LINE",
"229 241 LINE",
"315 241 LINE",
"482 0 LINE",
"665 0 LINE",
"478 264 LINE",
"575 296 OFFCURVE",
"638 367 OFFCURVE",
"638 475 CURVE SMOOTH",
"638 610 OFFCURVE",
"541 702 OFFCURVE",
"364 702 CURVE SMOOTH",
"70 702 LINE",
"70 0 LINE"
);
},
{
closed = 1;
nodes = (
"229 365 LINE",
"229 564 LINE",
"354 564 LINE SMOOTH",
"433 564 OFFCURVE",
"480 533 OFFCURVE",
"480 466 CURVE SMOOTH",
"480 400 OFFCURVE",
"426 365 OFFCURVE",
"349 365 CURVE SMOOTH"
);
}
);
width = 686;
}
);
unicode = 0052;
},
{
glyphname = S;
layers = (
{
hints = (
{
horizontal = 1;
place = "{-12, 132}";
type = Stem;
},
{
horizontal = 1;
place = "{585, 129}";
type = Stem;
},
{
place = "{70, 159}";
type = Stem;
},
{
place = "{444, 159}";
type = Stem;
}
);
layerId = "61C708DC-9E63-4DDF-9A9E-D605D0F8404A";
paths = (
{
closed = 1;
nodes = (
"237 120 OFFCURVE",
"125 166 OFFCURVE",
"43 240 CURVE",
"43 93 LINE",
"123 20 OFFCURVE",
"229 -12 OFFCURVE",
"334 -12 CURVE SMOOTH",
"480 -12 OFFCURVE",
"591 52 OFFCURVE",
"602 180 CURVE SMOOTH",
"603 186 OFFCURVE",
"603 192 OFFCURVE",
"603 198 CURVE SMOOTH",
"603 311 OFFCURVE",
"522 375 OFFCURVE",
"422 409 CURVE",
"326 440 OFFCURVE",
"229 464 OFFCURVE",
"229 521 CURVE SMOOTH",
"229 557 OFFCURVE",
"265 585 OFFCURVE",
"333 585 CURVE SMOOTH",
"411 585 OFFCURVE",
"506 544 OFFCURVE",
"572 481 CURVE",
"572 633 LINE",
"505 688 OFFCURVE",
"424 714 OFFCURVE",
"323 714 CURVE SMOOTH",
"191 714 OFFCURVE",
"70 646 OFFCURVE",
"70 510 CURVE SMOOTH",
"70 267 OFFCURVE",
"444 312 OFFCURVE",
"444 188 CURVE SMOOTH",
"444 131 OFFCURVE",
"379 120 OFFCURVE",
"334 120 CURVE SMOOTH"
);
}
);
width = 644;
}
);
unicode = 0053;
},
{
glyphname = T;
layers = (
{
hints = (
{
horizontal = 1;
place = "{0, 21}";
target = up;
type = BottomGhost;
},
{
horizontal = 1;
place = "{563, 139}";
type = Stem;
},
{
place = "{224, 158}";
type = Stem;
}
);
layerId = "61C708DC-9E63-4DDF-9A9E-D605D0F8404A";
paths = (
{
closed = 1;
nodes = (
"382 563 LINE",
"592 563 LINE",
"592 702 LINE",
"14 702 LINE",
"14 563 LINE",
"224 563 LINE",
"224 0 LINE",
"382 0 LINE"
);
}
);
width = 606;
}
);
unicode = 0054;
},
{
glyphname = U;
layers = (
{
hints = (
{
horizontal = 1;
place = "{-14, 143}";
type = Stem;
},
{
horizontal = 1;
place = "{702, -20}";
target = down;
type = TopGhost;
},
{
place = "{69, 159}";
type = Stem;
},
{
place = "{531, 159}";
type = Stem;
}
);
layerId = "61C708DC-9E63-4DDF-9A9E-D605D0F8404A";
paths = (
{
closed = 1;
nodes = (
"573 -14 OFFCURVE",
"690 92 OFFCURVE",
"690 304 CURVE SMOOTH",
"690 702 LINE",
"531 702 LINE",
"531 299 LINE SMOOTH",
"531 183 OFFCURVE",
"473 129 OFFCURVE",
"380 129 CURVE SMOOTH",
"283 129 OFFCURVE",
"228 190 OFFCURVE",
"228 303 CURVE SMOOTH",
"228 702 LINE",
"69 702 LINE",
"69 299 LINE SMOOTH",
"69 94 OFFCURVE",
"184 -14 OFFCURVE",
"379 -14 CURVE SMOOTH"
);
}
);
width = 759;
}
);
unicode = 0055;
},
{
glyphname = V;
layers = (
{
hints = (
{
horizontal = 1;
place = "{-3, 21}";
target = up;
type = BottomGhost;
},
{
horizontal = 1;
place = "{702, -20}";
target = down;
type = TopGhost;
},
{
place = "{10, 716}";
type = Stem;
}
);
layerId = "61C708DC-9E63-4DDF-9A9E-D605D0F8404A";
paths = (
{
closed = 1;
nodes = (
"10 702 LINE",
"292 -3 LINE",
"445 -3 LINE",
"726 702 LINE",
"554 702 LINE",
"370 201 LINE",
"186 702 LINE"
);
}
);
width = 733;
}
);
unicode = 0056;
},
{
glyphname = W;
layers = (
{
hints = (
{
horizontal = 1;
place = "{-3, 21}";
target = up;
type = BottomGhost;
},
{
horizontal = 1;
place = "{702, -20}";
target = down;
type = TopGhost;
},
{
horizontal = 1;
place = "{703, -20}";
target = down;
type = TopGhost;
},
{
place = "{16, 1053}";
type = Stem;
}
);
layerId = "61C708DC-9E63-4DDF-9A9E-D605D0F8404A";
paths = (
{
closed = 1;
nodes = (
"183 702 LINE",
"16 702 LINE",
"251 -3 LINE",
"391 -3 LINE",
"542 459 LINE",
"696 -3 LINE",
"835 -3 LINE",
"1069 702 LINE",
"906 702 LINE",
"763 239 LINE",
"614 703 LINE",
"475 703 LINE",
"328 239 LINE"
);
}
);
width = 1082;
}
);
unicode = 0057;
},
{
glyphname = X;
layers = (
{
hints = (
{
horizontal = 1;
place = "{0, 21}";
target = up;
type = BottomGhost;
},
{
horizontal = 1;
place = "{702, -20}";
target = down;
type = TopGhost;
},
{
place = "{18, 675}";
type = Stem;
}
);
layerId = "61C708DC-9E63-4DDF-9A9E-D605D0F8404A";
paths = (
{
closed = 1;
nodes = (
"29 702 LINE",
"263 358 LINE",
"18 0 LINE",
"196 0 LINE",
"354 239 LINE",
"512 0 LINE",
"693 0 LINE",
"449 360 LINE",
"682 702 LINE",
"505 702 LINE",
"358 477 LINE",
"210 702 LINE"
);
}
);
width = 711;
}
);
unicode = 0058;
},
{
glyphname = Y;
layers = (
{
hints = (
{
horizontal = 1;
place = "{0, 21}";
target = up;
type = BottomGhost;
},
{
horizontal = 1;
place = "{702, -20}";
target = down;
type = TopGhost;
},
{
place = "{277, 158}";
type = Stem;
}
);
layerId = "61C708DC-9E63-4DDF-9A9E-D605D0F8404A";
paths = (
{
closed = 1;
nodes = (
"435 270 LINE",
"702 702 LINE",
"526 702 LINE",
"358 416 LINE",
"190 702 LINE",
"9 702 LINE",
"277 268 LINE",
"277 0 LINE",
"435 0 LINE"
);
}
);
width = 709;
}
);
unicode = 0059;
},
{
glyphname = Z;
layers = (
{
hints = (
{
horizontal = 1;
place = "{0, 134}";
type = Stem;
},
{
horizontal = 1;
place = "{567, 135}";
type = Stem;
},
{
place = "{25, 614}";
type = Stem;
}
);
layerId = "61C708DC-9E63-4DDF-9A9E-D605D0F8404A";
paths = (
{
closed = 1;
nodes = (
"639 583 LINE",
"639 702 LINE",
"42 702 LINE",
"42 567 LINE",
"426 567 LINE",
"25 118 LINE",
"25 0 LINE",
"632 0 LINE",
"632 134 LINE",
"240 134 LINE"
);
}
);
width = 671;
}
);
unicode = 005A;
},
{
glyphname = bracketleft;
layers = (
{
hints = (
{
horizontal = 1;
place = "{-139, 108}";
type = Stem;
},
{
horizontal = 1;
place = "{601, 108}";
type = Stem;
},
{
place = "{73, 139}";
type = Stem;
}
);
layerId = "61C708DC-9E63-4DDF-9A9E-D605D0F8404A";
paths = (
{
closed = 1;
nodes = (
"383 709 LINE",
"73 709 LINE",
"73 -139 LINE",
"383 -139 LINE",
"383 -31 LINE",
"212 -31 LINE",
"212 601 LINE",
"383 601 LINE"
);
}
);
width = 426;
}
);
unicode = 005B;
},
{
glyphname = backslash;
layers = (
{
hints = (
{
horizontal = 1;
place = "{-124, 916}";
type = Stem;
},
{
place = "{12, 544}";
type = Stem;
}
);
layerId = "61C708DC-9E63-4DDF-9A9E-D605D0F8404A";
paths = (
{
closed = 1;
nodes = (
"437 -124 LINE",
"556 -106 LINE",
"131 792 LINE",
"12 775 LINE"
);
}
);
width = 572;
}
);
unicode = 005C;
},
{
glyphname = bracketright;
layers = (
{
hints = (
{
horizontal = 1;
place = "{-140, 109}";
type = Stem;
},
{
horizontal = 1;
place = "{600, 109}";
type = Stem;
},
{
place = "{214, 140}";
type = Stem;
}
);
layerId = "61C708DC-9E63-4DDF-9A9E-D605D0F8404A";
paths = (
{
closed = 1;
nodes = (
"43 -140 LINE",
"354 -140 LINE",
"354 709 LINE",
"43 709 LINE",
"43 600 LINE",
"214 600 LINE",
"214 -31 LINE",
"43 -31 LINE"
);
}
);
width = 426;
}
);
unicode = 005D;
},
{
glyphname = asciicircum;
layers = (
{
hints = (
{
place = "{46, 421}";
type = Stem;
},
{
horizontal = 1;
place = "{468, 233}";
type = Stem;
},
{
horizontal = 1;
place = "{607, 94}";
type = Stem;
}
);
layerId = "61C708DC-9E63-4DDF-9A9E-D605D0F8404A";
paths = (
{
closed = 1;
nodes = (
"46 468 LINE",
"157 468 LINE",
"255 607 LINE",
"353 468 LINE",
"467 468 LINE",
"310 701 LINE",
"201 701 LINE"
);
}
);
width = 511;
}
);
unicode = 005E;
},
{
glyphname = underscore;
layers = (
{
hints = (
{
horizontal = 1;
place = "{-156, 99}";
type = Stem;
},
{
place = "{0, 590}";
type = Stem;
}
);
layerId = "61C708DC-9E63-4DDF-9A9E-D605D0F8404A";
paths = (
{
closed = 1;
nodes = (
"0 -156 LINE",
"590 -156 LINE",
"590 -57 LINE",
"0 -57 LINE"
);
}
);
width = 590;
}
);
unicode = 005F;
},
{
glyphname = grave;
layers = (
{
hints = (
{
horizontal = 1;
place = "{707, -20}";
target = down;
type = TopGhost;
},
{
place = "{5, 250}";
type = Stem;
}
);
layerId = "61C708DC-9E63-4DDF-9A9E-D605D0F8404A";
paths = (
{
closed = 1;
nodes = (
"145 579 LINE",
"255 579 LINE",
"154 752 LINE",
"5 707 LINE"
);
}
);
width = 329;
}
);
unicode = 0060;
},
{
glyphname = a;
layers = (
{
hints = (
{
place = "{30, 151}";
type = Stem;
},
{
place = "{381, 150}";
type = Stem;
},
{
horizontal = 1;
place = "{-12, 102}";
type = Stem;
},
{
horizontal = 1;
place = "{-8, 21}";
target = up;
type = BottomGhost;
},
{
horizontal = 1;
place = "{245, 84}";
type = Stem;
},
{
horizontal = 1;
place = "{410, 120}";
type = Stem;
}
);
layerId = "61C708DC-9E63-4DDF-9A9E-D605D0F8404A";
paths = (
{
closed = 1;
nodes = (
"531 -8 LINE",
"531 310 LINE SMOOTH",
"531 454 OFFCURVE",
"442 530 OFFCURVE",
"278 530 CURVE SMOOTH",
"195 530 OFFCURVE",
"129 512 OFFCURVE",
"72 488 CURVE",
"72 373 LINE",
"132 400 OFFCURVE",
"187 410 OFFCURVE",
"244 410 CURVE SMOOTH",
"332 410 OFFCURVE",
"381 383 OFFCURVE",
"381 316 CURVE SMOOTH",
"381 304 LINE",
"346 319 OFFCURVE",
"295 329 OFFCURVE",
"242 329 CURVE SMOOTH",
"126 329 OFFCURVE",
"30 278 OFFCURVE",
"30 162 CURVE SMOOTH",
"30 51 OFFCURVE",
"119 -12 OFFCURVE",
"220 -12 CURVE SMOOTH",
"289 -12 OFFCURVE",
"339 13 OFFCURVE",
"379 54 CURVE"
);
},
{
closed = 1;
nodes = (
"381 133 LINE",
"352 105 OFFCURVE",
"317 90 OFFCURVE",
"274 90 CURVE SMOOTH",
"224 90 OFFCURVE",
"181 119 OFFCURVE",
"181 167 CURVE SMOOTH",
"181 218 OFFCURVE",
"228 245 OFFCURVE",
"287 245 CURVE SMOOTH",
"326 245 OFFCURVE",
"358 235 OFFCURVE",
"381 223 CURVE"
);
}
);
width = 585;
}
);
unicode = 0061;
},
{
glyphname = b;
layers = (
{
hints = (
{
place = "{59, 154}";
type = Stem;
},
{
place = "{472, 152}";
type = Stem;
},
{
horizontal = 1;
place = "{-11, 129}";
type = Stem;
},
{
horizontal = 1;
place = "{-8, 21}";
target = up;
type = BottomGhost;
},
{
horizontal = 1;
place = "{403, 130}";
type = Stem;
}
);
layerId = "61C708DC-9E63-4DDF-9A9E-D605D0F8404A";
paths = (
{
closed = 1;
nodes = (
"513 -11 OFFCURVE",
"624 93 OFFCURVE",
"624 261 CURVE SMOOTH",
"624 428 OFFCURVE",
"513 533 OFFCURVE",
"385 533 CURVE SMOOTH",
"304 533 OFFCURVE",
"253 495 OFFCURVE",
"213 444 CURVE",
"213 731 LINE",
"59 731 LINE",
"59 -8 LINE",
"216 68 LINE",
"252 24 OFFCURVE",
"304 -11 OFFCURVE",
"385 -11 CURVE SMOOTH"
);
},
{
closed = 1;
nodes = (
"472 177 OFFCURVE",
"415 118 OFFCURVE",
"340 118 CURVE SMOOTH",
"269 118 OFFCURVE",
"210 177 OFFCURVE",
"210 260 CURVE SMOOTH",
"210 344 OFFCURVE",
"269 403 OFFCURVE",
"340 403 CURVE SMOOTH",
"416 403 OFFCURVE",
"472 344 OFFCURVE",
"472 261 CURVE SMOOTH"
);
}
);
width = 657;
}
);
unicode = 0062;
},
{
glyphname = c;
layers = (
{
hints = (
{
horizontal = 1;
place = "{-12, 130}";
type = Stem;
},
{
horizontal = 1;
place = "{402, 130}";
type = Stem;
},
{
place = "{35, 151}";
type = Stem;
}
);
layerId = "61C708DC-9E63-4DDF-9A9E-D605D0F8404A";
paths = (
{
closed = 1;
nodes = (
"431 509 LINE",
"399 525 OFFCURVE",
"352 532 OFFCURVE",
"311 532 CURVE SMOOTH",
"147 532 OFFCURVE",
"35 408 OFFCURVE",
"35 260 CURVE SMOOTH",
"35 111 OFFCURVE",
"153 -12 OFFCURVE",
"307 -12 CURVE SMOOTH",
"354 -12 OFFCURVE",
"401 0 OFFCURVE",
"436 16 CURVE",
"436 164 LINE",
"401 133 OFFCURVE",
"363 118 OFFCURVE",
"324 118 CURVE SMOOTH",
"245 118 OFFCURVE",
"186 183 OFFCURVE",
"186 262 CURVE SMOOTH",
"186 342 OFFCURVE",
"241 402 OFFCURVE",
"321 402 CURVE SMOOTH",
"364 402 OFFCURVE",
"399 385 OFFCURVE",
"431 356 CURVE"
);
}
);
width = 458;
}
);
unicode = 0063;
},
{
glyphname = d;
layers = (
{
hints = (
{
place = "{34, 152}";
type = Stem;
},
{
place = "{443, 154}";
type = Stem;
},
{
horizontal = 1;
place = "{-11, 129}";
type = Stem;
},
{
horizontal = 1;
place = "{-8, 21}";
target = up;
type = BottomGhost;
},
{
horizontal = 1;
place = "{404, 129}";
type = Stem;
}
);
layerId = "61C708DC-9E63-4DDF-9A9E-D605D0F8404A";
paths = (
{
closed = 1;
nodes = (
"597 -8 LINE",
"597 731 LINE",
"443 731 LINE",
"443 449 LINE",
"406 497 OFFCURVE",
"353 533 OFFCURVE",
"272 533 CURVE SMOOTH",
"143 533 OFFCURVE",
"34 429 OFFCURVE",
"34 260 CURVE SMOOTH",
"34 92 OFFCURVE",
"144 -11 OFFCURVE",
"273 -11 CURVE SMOOTH",
"353 -11 OFFCURVE",
"400 26 OFFCURVE",
"440 74 CURVE"
);
},
{
closed = 1;
nodes = (
"186 345 OFFCURVE",
"246 404 OFFCURVE",
"315 404 CURVE SMOOTH",
"386 404 OFFCURVE",
"446 345 OFFCURVE",
"446 262 CURVE SMOOTH",
"446 177 OFFCURVE",
"388 118 OFFCURVE",
"315 118 CURVE SMOOTH",
"243 118 OFFCURVE",
"186 177 OFFCURVE",
"186 261 CURVE SMOOTH"
);
}
);
width = 658;
}
);
unicode = 0064;
},
{
glyphname = e;
layers = (
{
hints = (
{
horizontal = 1;
place = "{-15, 115}";
type = Stem;
},
{
horizontal = 1;
place = "{413, 117}";
type = Stem;
},
{
place = "{35, 146}";
type = Stem;
}
);
layerId = "61C708DC-9E63-4DDF-9A9E-D605D0F8404A";
paths = (
{
closed = 1;
nodes = (
"257 100 OFFCURVE",
"218 121 OFFCURVE",
"194 157 CURVE",
"556 249 LINE",
"551 398 OFFCURVE",
"464 530 OFFCURVE",
"300 530 CURVE SMOOTH",
"144 530 OFFCURVE",
"35 414 OFFCURVE",
"35 259 CURVE SMOOTH",
"35 100 OFFCURVE",
"147 -15 OFFCURVE",
"306 -15 CURVE SMOOTH",
"368 -15 OFFCURVE",
"447 0 OFFCURVE",
"506 43 CURVE",
"506 171 LINE",
"460 128 OFFCURVE",
"378 100 OFFCURVE",
"310 100 CURVE SMOOTH"
);
},
{
closed = 1;
nodes = (
"181 266 LINE",
"181 334 OFFCURVE",
"215 413 OFFCURVE",
"293 413 CURVE SMOOTH",
"350 413 OFFCURVE",
"391 375 OFFCURVE",
"404 318 CURVE",
"183 261 LINE"
);
}
);
width = 587;
}
);
unicode = 0065;
},
{
glyphname = f;
layers = (
{
hints = (
{
horizontal = 1;
place = "{0, 21}";
target = up;
type = BottomGhost;
},
{
horizontal = 1;
place = "{397, 120}";
type = Stem;
},
{
horizontal = 1;
place = "{622, 115}";
type = Stem;
},
{
place = "{103, 152}";
type = Stem;
}
);
layerId = "61C708DC-9E63-4DDF-9A9E-D605D0F8404A";
paths = (
{
closed = 1;
nodes = (
"382 723 LINE",
"357 731 OFFCURVE",
"325 737 OFFCURVE",
"285 737 CURVE SMOOTH",
"172 737 OFFCURVE",
"103 683 OFFCURVE",
"103 552 CURVE SMOOTH",
"103 518 LINE",
"15 397 LINE",
"103 397 LINE",
"103 0 LINE",
"255 0 LINE",
"255 397 LINE",
"376 397 LINE",
"376 517 LINE",
"233 517 LINE",
"233 550 LINE SMOOTH",
"233 598 OFFCURVE",
"270 622 OFFCURVE",
"314 622 CURVE SMOOTH",
"335 622 OFFCURVE",
"362 618 OFFCURVE",
"382 611 CURVE"
);
}
);
width = 366;
}
);
unicode = 0066;
},
{
glyphname = g;
layers = (
{
hints = (
{
horizontal = 1;
place = "{-173, 115}";
type = Stem;
},
{
horizontal = 1;
place = "{38, 122}";
type = Stem;
},
{
horizontal = 1;
place = "{411, 122}";
type = Stem;
},
{
place = "{35, 152}";
type = Stem;
},
{
place = "{447, 151}";
type = Stem;
}
);
layerId = "61C708DC-9E63-4DDF-9A9E-D605D0F8404A";
paths = (
{
closed = 1;
nodes = (
"198 -58 OFFCURVE",
"114 -23 OFFCURVE",
"58 14 CURVE",
"58 -116 LINE",
"127 -151 OFFCURVE",
"191 -173 OFFCURVE",
"282 -173 CURVE SMOOTH",
"466 -173 OFFCURVE",
"598 -80 OFFCURVE",
"598 106 CURVE SMOOTH",
"598 521 LINE",
"441 455 LINE",
"400 500 OFFCURVE",
"350 533 OFFCURVE",
"273 533 CURVE SMOOTH",
"143 533 OFFCURVE",
"35 437 OFFCURVE",
"35 285 CURVE SMOOTH",
"35 136 OFFCURVE",
"140 38 OFFCURVE",
"272 38 CURVE SMOOTH",
"353 38 OFFCURVE",
"406 76 OFFCURVE",
"447 125 CURVE",
"447 91 LINE SMOOTH",
"447 -10 OFFCURVE",
"385 -58 OFFCURVE",
"280 -58 CURVE SMOOTH"
);
},
{
closed = 1;
nodes = (
"187 360 OFFCURVE",
"240 411 OFFCURVE",
"316 411 CURVE SMOOTH",
"391 411 OFFCURVE",
"447 358 OFFCURVE",
"447 286 CURVE SMOOTH",
"447 214 OFFCURVE",
"391 160 OFFCURVE",
"316 160 CURVE SMOOTH",
"241 160 OFFCURVE",
"187 213 OFFCURVE",
"187 285 CURVE SMOOTH"
);
}
);
width = 659;
}
);
unicode = 0067;
},
{
glyphname = h;
layers = (
{
hints = (
{
horizontal = 1;
place = "{0, 21}";
target = up;
type = BottomGhost;
},
{
horizontal = 1;
place = "{393, 140}";
type = Stem;
},
{
place = "{64, 154}";
type = Stem;
},
{
place = "{405, 154}";
type = Stem;
}
);
layerId = "61C708DC-9E63-4DDF-9A9E-D605D0F8404A";
paths = (
{
closed = 1;
nodes = (
"303 533 OFFCURVE",
"250 494 OFFCURVE",
"215 450 CURVE",
"215 731 LINE",
"64 731 LINE",
"64 0 LINE",
"218 0 LINE",
"218 289 LINE SMOOTH",
"218 358 OFFCURVE",
"265 393 OFFCURVE",
"318 393 CURVE SMOOTH",
"371 393 OFFCURVE",
"405 358 OFFCURVE",
"405 289 CURVE SMOOTH",
"405 0 LINE",
"559 0 LINE",
"559 337 LINE SMOOTH",
"559 464 OFFCURVE",
"487 533 OFFCURVE",
"379 533 CURVE SMOOTH"
);
}
);
width = 622;
}
);
unicode = 0068;
},
{
glyphname = i;
layers = (
{
hints = (
{
place = "{60, 183}";
type = Stem;
},
{
place = "{75, 154}";
type = Stem;
},
{
horizontal = 1;
place = "{0, 21}";
target = up;
type = BottomGhost;
},
{
horizontal = 1;
place = "{584, 169}";
type = Stem;
}
);
layerId = "61C708DC-9E63-4DDF-9A9E-D605D0F8404A";
paths = (
{
closed = 1;
nodes = (
"60 616 OFFCURVE",
"100 584 OFFCURVE",
"151 584 CURVE SMOOTH",
"203 584 OFFCURVE",
"243 616 OFFCURVE",
"243 668 CURVE SMOOTH",
"243 723 OFFCURVE",
"203 753 OFFCURVE",
"151 753 CURVE SMOOTH",
"100 753 OFFCURVE",
"60 723 OFFCURVE",
"60 668 CURVE SMOOTH"
);
},
{
closed = 1;
nodes = (
"229 521 LINE",
"75 521 LINE",
"75 0 LINE",
"229 0 LINE"
);
}
);
width = 303;
}
);
unicode = 0069;
},
{
glyphname = j;
layers = (
{
hints = (
{
place = "{23, 184}";
type = Stem;
},
{
place = "{40, 154}";
type = Stem;
},
{
horizontal = 1;
place = "{-173, 111}";
type = Stem;
},
{
horizontal = 1;
place = "{584, 169}";
type = Stem;
}
);
layerId = "61C708DC-9E63-4DDF-9A9E-D605D0F8404A";
paths = (
{
closed = 1;
nodes = (
"23 616 OFFCURVE",
"63 584 OFFCURVE",
"115 584 CURVE SMOOTH",
"164 584 OFFCURVE",
"207 616 OFFCURVE",
"207 668 CURVE SMOOTH",
"207 723 OFFCURVE",
"164 753 OFFCURVE",
"115 753 CURVE SMOOTH",
"63 753 OFFCURVE",
"23 723 OFFCURVE",
"23 668 CURVE SMOOTH"
);
},
{
closed = 1;
nodes = (
"-42 -166 LINE",
"-22 -170 OFFCURVE",
"0 -173 OFFCURVE",
"27 -173 CURVE SMOOTH",
"142 -173 OFFCURVE",
"194 -117 OFFCURVE",
"194 4 CURVE SMOOTH",
"194 521 LINE",
"40 521 LINE",
"40 1 LINE SMOOTH",
"40 -42 OFFCURVE",
"24 -62 OFFCURVE",
"-5 -62 CURVE SMOOTH",
"-17 -62 OFFCURVE",
"-29 -60 OFFCURVE",
"-42 -55 CURVE"
);
}
);
width = 264;
}
);
unicode = 006A;
},
{
glyphname = k;
layers = (
{
hints = (
{
horizontal = 1;
place = "{0, 21}";
target = up;
type = BottomGhost;
},
{
place = "{64, 154}";
type = Stem;
}
);
layerId = "61C708DC-9E63-4DDF-9A9E-D605D0F8404A";
paths = (
{
closed = 1;
nodes = (
"218 731 LINE",
"64 731 LINE",
"64 0 LINE",
"218 0 LINE",
"218 261 LINE",
"389 0 LINE",
"562 0 LINE",
"357 301 LINE",
"556 521 LINE",
"377 521 LINE",
"218 334 LINE"
);
}
);
width = 547;
}
);
unicode = 006B;
},
{
glyphname = l;
layers = (
{
hints = (
{
horizontal = 1;
place = "{0, 21}";
target = up;
type = BottomGhost;
},
{
place = "{64, 154}";
type = Stem;
}
);
layerId = "61C708DC-9E63-4DDF-9A9E-D605D0F8404A";
paths = (
{
closed = 1;
nodes = (
"218 731 LINE",
"64 731 LINE",
"64 0 LINE",
"218 0 LINE"
);
}
);
width = 283;
}
);
unicode = 006C;
},
{
glyphname = m;
layers = (
{
hints = (
{
horizontal = 1;
place = "{0, 21}";
target = up;
type = BottomGhost;
},
{
horizontal = 1;
place = "{396, 137}";
type = Stem;
},
{
place = "{60, 154}";
type = Stem;
},
{
place = "{392, 154}";
type = Stem;
},
{
place = "{724, 154}";
type = Stem;
}
);
layerId = "61C708DC-9E63-4DDF-9A9E-D605D0F8404A";
paths = (
{
closed = 1;
nodes = (
"878 0 LINE",
"878 338 LINE SMOOTH",
"878 445 OFFCURVE",
"815 533 OFFCURVE",
"700 533 CURVE SMOOTH",
"623 533 OFFCURVE",
"565 500 OFFCURVE",
"524 445 CURVE",
"495 505 OFFCURVE",
"436 533 OFFCURVE",
"372 533 CURVE SMOOTH",
"308 533 OFFCURVE",
"253 504 OFFCURVE",
"213 453 CURVE",
"60 521 LINE",
"60 0 LINE",
"214 0 LINE",
"214 289 LINE SMOOTH",
"214 354 OFFCURVE",
"252 396 OFFCURVE",
"306 396 CURVE SMOOTH",
"362 396 OFFCURVE",
"392 356 OFFCURVE",
"392 289 CURVE SMOOTH",
"392 0 LINE",
"546 0 LINE",
"546 289 LINE SMOOTH",
"546 347 OFFCURVE",
"578 396 OFFCURVE",
"639 396 CURVE SMOOTH",
"690 396 OFFCURVE",
"724 362 OFFCURVE",
"724 289 CURVE SMOOTH",
"724 0 LINE"
);
}
);
width = 940;
}
);
unicode = 006D;
},
{
glyphname = n;
layers = (
{
hints = (
{
horizontal = 1;
place = "{0, 21}";
target = up;
type = BottomGhost;
},
{
horizontal = 1;
place = "{396, 137}";
type = Stem;
},
{
place = "{59, 154}";
type = Stem;
},
{
place = "{401, 154}";
type = Stem;
}
);
layerId = "61C708DC-9E63-4DDF-9A9E-D605D0F8404A";
paths = (
{
closed = 1;
nodes = (
"299 533 OFFCURVE",
"249 495 OFFCURVE",
"214 450 CURVE",
"59 521 LINE",
"59 0 LINE",
"213 0 LINE",
"213 289 LINE SMOOTH",
"213 365 OFFCURVE",
"264 396 OFFCURVE",
"311 396 CURVE SMOOTH",
"357 396 OFFCURVE",
"401 365 OFFCURVE",
"401 289 CURVE SMOOTH",
"401 0 LINE",
"555 0 LINE",
"555 337 LINE SMOOTH",
"555 460 OFFCURVE",
"479 533 OFFCURVE",
"374 533 CURVE SMOOTH"
);
}
);
width = 617;
}
);
unicode = 006E;
},
{
glyphname = o;
layers = (
{
hints = (
{
horizontal = 1;
place = "{-12, 130}";
type = Stem;
},
{
horizontal = 1;
place = "{403, 130}";
type = Stem;
},
{
place = "{35, 151}";
type = Stem;
},
{
place = "{454, 151}";
type = Stem;
}
);
layerId = "61C708DC-9E63-4DDF-9A9E-D605D0F8404A";
paths = (
{
closed = 1;
nodes = (
"605 412 OFFCURVE",
"486 533 OFFCURVE",
"320 533 CURVE SMOOTH",
"155 533 OFFCURVE",
"35 410 OFFCURVE",
"35 260 CURVE SMOOTH",
"35 111 OFFCURVE",
"154 -12 OFFCURVE",
"319 -12 CURVE SMOOTH",
"484 -12 OFFCURVE",
"605 114 OFFCURVE",
"605 262 CURVE SMOOTH"
);
},
{
closed = 1;
nodes = (
"454 184 OFFCURVE",
"401 118 OFFCURVE",
"320 118 CURVE SMOOTH",
"243 118 OFFCURVE",
"186 183 OFFCURVE",
"186 262 CURVE SMOOTH",
"186 339 OFFCURVE",
"237 403 OFFCURVE",
"319 403 CURVE SMOOTH",
"397 403 OFFCURVE",
"454 338 OFFCURVE",
"454 260 CURVE SMOOTH"
);
}
);
width = 641;
}
);
unicode = 006F;
},
{
glyphname = p;
layers = (
{
hints = (
{
horizontal = 1;
place = "{-169, 21}";
target = up;
type = BottomGhost;
},
{
horizontal = 1;
place = "{-11, 129}";
type = Stem;
},
{
horizontal = 1;
place = "{403, 130}";
type = Stem;
},
{
place = "{59, 154}";
type = Stem;
},
{
place = "{472, 152}";
type = Stem;
}
);
layerId = "61C708DC-9E63-4DDF-9A9E-D605D0F8404A";
paths = (
{
closed = 1;
nodes = (
"213 72 LINE",
"252 24 OFFCURVE",
"304 -11 OFFCURVE",
"385 -11 CURVE SMOOTH",
"512 -11 OFFCURVE",
"624 93 OFFCURVE",
"624 261 CURVE SMOOTH",
"624 429 OFFCURVE",
"512 533 OFFCURVE",
"384 533 CURVE SMOOTH",
"304 533 OFFCURVE",
"257 496 OFFCURVE",
"217 448 CURVE",
"59 521 LINE",
"59 -169 LINE",
"213 -169 LINE"
);
},
{
closed = 1;
nodes = (
"472 174 OFFCURVE",
"414 118 OFFCURVE",
"341 118 CURVE SMOOTH",
"269 118 OFFCURVE",
"210 177 OFFCURVE",
"210 260 CURVE SMOOTH",
"210 344 OFFCURVE",
"269 403 OFFCURVE",
"340 403 CURVE SMOOTH",
"415 403 OFFCURVE",
"472 346 OFFCURVE",
"472 262 CURVE SMOOTH"
);
}
);
width = 659;
}
);
unicode = 0070;
},
{
glyphname = q;
layers = (
{
hints = (
{
horizontal = 1;
place = "{-169, 21}";
target = up;
type = BottomGhost;
},
{
horizontal = 1;
place = "{-12, 130}";
type = Stem;
},
{
horizontal = 1;
place = "{404, 129}";
type = Stem;
},
{
place = "{35, 152}";
type = Stem;
},
{
place = "{444, 154}";
type = Stem;
}
);
layerId = "61C708DC-9E63-4DDF-9A9E-D605D0F8404A";
paths = (
{
closed = 1;
nodes = (
"598 -169 LINE",
"598 521 LINE",
"441 453 LINE",
"402 497 OFFCURVE",
"354 533 OFFCURVE",
"274 533 CURVE SMOOTH",
"143 533 OFFCURVE",
"35 429 OFFCURVE",
"35 260 CURVE SMOOTH",
"35 96 OFFCURVE",
"145 -12 OFFCURVE",
"274 -12 CURVE SMOOTH",
"354 -12 OFFCURVE",
"404 26 OFFCURVE",
"444 77 CURVE",
"444 -169 LINE"
);
},
{
closed = 1;
nodes = (
"187 346 OFFCURVE",
"246 404 OFFCURVE",
"317 404 CURVE SMOOTH",
"389 404 OFFCURVE",
"448 345 OFFCURVE",
"448 262 CURVE SMOOTH",
"448 179 OFFCURVE",
"388 118 OFFCURVE",
"317 118 CURVE SMOOTH",
"246 118 OFFCURVE",
"187 179 OFFCURVE",
"187 262 CURVE SMOOTH"
);
}
);
width = 659;
}
);
unicode = 0071;
},
{
glyphname = r;
layers = (
{
hints = (
{
horizontal = 1;
place = "{0, 21}";
target = up;
type = BottomGhost;
},
{
horizontal = 1;
place = "{373, 157}";
type = Stem;
},
{
place = "{59, 154}";
type = Stem;
}
);
layerId = "61C708DC-9E63-4DDF-9A9E-D605D0F8404A";
paths = (
{
closed = 1;
nodes = (
"391 529 LINE",
"386 529 OFFCURVE",
"379 530 OFFCURVE",
"371 530 CURVE SMOOTH",
"298 530 OFFCURVE",
"247 492 OFFCURVE",
"214 431 CURVE",
"59 521 LINE",
"59 0 LINE",
"213 0 LINE",
"213 202 LINE SMOOTH",
"213 321 OFFCURVE",
"279 373 OFFCURVE",
"366 373 CURVE SMOOTH",
"377 373 OFFCURVE",
"386 373 OFFCURVE",
"391 370 CURVE"
);
}
);
width = 411;
}
);
unicode = 0072;
},
{
glyphname = s;
layers = (
{
hints = (
{
horizontal = 1;
place = "{-11, 111}";
type = Stem;
},
{
horizontal = 1;
place = "{421, 111}";
type = Stem;
},
{
place = "{38, 141}";
type = Stem;
},
{
place = "{303, 141}";
type = Stem;
}
);
layerId = "61C708DC-9E63-4DDF-9A9E-D605D0F8404A";
paths = (
{
closed = 1;
nodes = (
"175 100 OFFCURVE",
"98 132 OFFCURVE",
"44 173 CURVE",
"44 41 LINE",
"107 12 OFFCURVE",
"166 -11 OFFCURVE",
"242 -11 CURVE SMOOTH",
"364 -11 OFFCURVE",
"444 53 OFFCURVE",
"444 154 CURVE SMOOTH",
"444 331 OFFCURVE",
"179 309 OFFCURVE",
"179 385 CURVE SMOOTH",
"179 405 OFFCURVE",
"197 421 OFFCURVE",
"233 421 CURVE SMOOTH",
"280 421 OFFCURVE",
"352 393 OFFCURVE",
"402 361 CURVE",
"402 493 LINE",
"349 519 OFFCURVE",
"300 532 OFFCURVE",
"233 532 CURVE SMOOTH",
"118 532 OFFCURVE",
"38 474 OFFCURVE",
"38 374 CURVE SMOOTH",
"38 196 OFFCURVE",
"303 225 OFFCURVE",
"303 145 CURVE SMOOTH",
"303 114 OFFCURVE",
"269 100 OFFCURVE",
"233 100 CURVE SMOOTH"
);
}
);
width = 478;
}
);
unicode = 0073;
},
{
glyphname = t;
layers = (
{
hints = (
{
place = "{120, 153}";
type = Stem;
},
{
horizontal = 1;
place = "{-11, 131}";
type = Stem;
},
{
horizontal = 1;
place = "{-11, 21}";
target = up;
type = BottomGhost;
},
{
horizontal = 1;
place = "{396, 125}";
type = Stem;
}
);
layerId = "61C708DC-9E63-4DDF-9A9E-D605D0F8404A";
paths = (
{
closed = 1;
nodes = (
"120 152 LINE SMOOTH",
"120 39 OFFCURVE",
"183 -11 OFFCURVE",
"279 -11 CURVE SMOOTH",
"320 -11 OFFCURVE",
"355 -2 OFFCURVE",
"383 13 CURVE",
"383 135 LINE",
"362 126 OFFCURVE",
"343 120 OFFCURVE",
"322 120 CURVE SMOOTH",
"289 120 OFFCURVE",
"273 139 OFFCURVE",
"273 174 CURVE SMOOTH",
"273 396 LINE",
"400 396 LINE",
"400 521 LINE",
"273 521 LINE",
"273 688 LINE",
"18 396 LINE",
"120 396 LINE"
);
}
);
width = 428;
}
);
unicode = 0074;
},
{
glyphname = u;
layers = (
{
hints = (
{
place = "{62, 154}";
type = Stem;
},
{
place = "{404, 154}";
type = Stem;
},
{
horizontal = 1;
place = "{-11, 136}";
type = Stem;
},
{
horizontal = 1;
place = "{0, 21}";
target = up;
type = BottomGhost;
},
{
horizontal = 1;
place = "{522, -20}";
target = down;
type = TopGhost;
}
);
layerId = "61C708DC-9E63-4DDF-9A9E-D605D0F8404A";
paths = (
{
closed = 1;
nodes = (
"318 -11 OFFCURVE",
"368 26 OFFCURVE",
"403 70 CURVE",
"558 0 LINE",
"558 522 LINE",
"404 522 LINE",
"404 233 LINE SMOOTH",
"404 158 OFFCURVE",
"355 125 OFFCURVE",
"307 125 CURVE SMOOTH",
"258 125 OFFCURVE",
"216 158 OFFCURVE",
"216 233 CURVE SMOOTH",
"216 522 LINE",
"62 522 LINE",
"62 185 LINE SMOOTH",
"62 60 OFFCURVE",
"130 -11 OFFCURVE",
"243 -11 CURVE SMOOTH"
);
}
);
width = 618;
}
);
unicode = 0075;
},
{
glyphname = v;
layers = (
{
hints = (
{
horizontal = 1;
place = "{-3, 21}";
target = up;
type = BottomGhost;
},
{
place = "{10, 565}";
type = Stem;
}
);
layerId = "61C708DC-9E63-4DDF-9A9E-D605D0F8404A";
paths = (
{
closed = 1;
nodes = (
"575 521 LINE",
"415 521 LINE",
"294 180 LINE",
"173 521 LINE",
"10 521 LINE",
"221 -3 LINE",
"364 -3 LINE"
);
}
);
width = 584;
}
);
unicode = 0076;
},
{
glyphname = w;
layers = (
{
hints = (
{
horizontal = 1;
place = "{-3, 21}";
target = up;
type = BottomGhost;
},
{
horizontal = 1;
place = "{523, -20}";
target = down;
type = TopGhost;
},
{
place = "{12, 802}";
type = Stem;
}
);
layerId = "61C708DC-9E63-4DDF-9A9E-D605D0F8404A";
paths = (
{
closed = 1;
nodes = (
"12 521 LINE",
"177 -3 LINE",
"311 -3 LINE",
"412 316 LINE",
"511 -3 LINE",
"648 -3 LINE",
"814 521 LINE",
"663 521 LINE",
"574 211 LINE",
"479 523 LINE",
"347 523 LINE",
"252 212 LINE",
"164 521 LINE"
);
}
);
width = 825;
}
);
unicode = 0077;
},
{
glyphname = x;
layers = (
{
hints = (
{
horizontal = 1;
place = "{0, 21}";
target = up;
type = BottomGhost;
},
{
place = "{3, 542}";
type = Stem;
}
);
layerId = "61C708DC-9E63-4DDF-9A9E-D605D0F8404A";
paths = (
{
closed = 1;
nodes = (
"3 0 LINE",
"167 0 LINE",
"273 157 LINE",
"378 0 LINE",
"545 0 LINE",
"359 266 LINE",
"537 521 LINE",
"373 521 LINE",
"275 374 LINE",
"178 521 LINE",
"10 521 LINE",
"189 265 LINE"
);
}
);
width = 550;
}
);
unicode = 0078;
},
{
glyphname = y;
layers = (
{
hints = (
{
horizontal = 1;
place = "{-169, 21}";
target = up;
type = BottomGhost;
},
{
place = "{-2, 566}";
type = Stem;
}
);
layerId = "61C708DC-9E63-4DDF-9A9E-D605D0F8404A";
paths = (
{
closed = 1;
nodes = (
"223 -4 LINE",
"165 -169 LINE",
"298 -169 LINE",
"564 521 LINE",
"405 521 LINE",
"287 163 LINE",
"160 521 LINE",
"-2 521 LINE"
);
}
);
width = 575;
}
);
unicode = 0079;
},
{
glyphname = z;
layers = (
{
hints = (
{
horizontal = 1;
place = "{0, 124}";
type = Stem;
},
{
horizontal = 1;
place = "{398, 123}";
type = Stem;
},
{
place = "{23, 490}";
type = Stem;
}
);
layerId = "61C708DC-9E63-4DDF-9A9E-D605D0F8404A";
paths = (
{
closed = 1;
nodes = (
"513 415 LINE",
"513 521 LINE",
"36 521 LINE",
"36 398 LINE",
"313 398 LINE",
"23 106 LINE",
"23 0 LINE",
"511 0 LINE",
"511 124 LINE",
"223 124 LINE"
);
}
);
width = 535;
}
);
unicode = 007A;
},
{
glyphname = braceleft;
layers = (
{
hints = (
{
horizontal = 1;
place = "{233, 109}";
type = Stem;
},
{
place = "{155, 140}";
type = Stem;
}
);
layerId = "61C708DC-9E63-4DDF-9A9E-D605D0F8404A";
paths = (
{
closed = 1;
nodes = (
"31 233 LINE",
"127 233 OFFCURVE",
"156 188 OFFCURVE",
"156 111 CURVE SMOOTH",
"156 101 LINE",
"156 79 LINE SMOOTH",
"156 3 OFFCURVE",
"166 -51 OFFCURVE",
"203 -87 CURVE SMOOTH",
"240 -122 OFFCURVE",
"302 -135 OFFCURVE",
"397 -146 CURVE",
"401 -48 LINE",
"298 -32 OFFCURVE",
"297 31 OFFCURVE",
"297 89 CURVE SMOOTH",
"297 110 LINE SMOOTH",
"297 199 OFFCURVE",
"275 255 OFFCURVE",
"191 288 CURVE",
"286 320 OFFCURVE",
"297 376 OFFCURVE",
"297 432 CURVE SMOOTH",
"297 440 OFFCURVE",
"295 465 OFFCURVE",
"295 518 CURVE SMOOTH",
"295 594 OFFCURVE",
"335 611 OFFCURVE",
"401 624 CURVE",
"397 721 LINE",
"245 708 OFFCURVE",
"155 655 OFFCURVE",
"155 499 CURVE SMOOTH",
"155 396 OFFCURVE",
"163 342 OFFCURVE",
"31 342 CURVE"
);
}
);
width = 435;
}
);
unicode = 007B;
},
{
glyphname = bar;
layers = (
{
hints = (
{
horizontal = 1;
place = "{-141, 929}";
type = Stem;
},
{
place = "{92, 121}";
type = Stem;
}
);
layerId = "61C708DC-9E63-4DDF-9A9E-D605D0F8404A";
paths = (
{
closed = 1;
nodes = (
"92 788 LINE",
"92 -141 LINE",
"213 -141 LINE",
"213 788 LINE"
);
}
);
width = 306;
}
);
unicode = 007C;
},
{
glyphname = braceright;
layers = (
{
hints = (
{
horizontal = 1;
place = "{233, 109}";
type = Stem;
},
{
place = "{138, 142}";
type = Stem;
}
);
layerId = "61C708DC-9E63-4DDF-9A9E-D605D0F8404A";
paths = (
{
closed = 1;
nodes = (
"404 342 LINE",
"397 342 LINE SMOOTH",
"292 342 OFFCURVE",
"278 389 OFFCURVE",
"278 441 CURVE SMOOTH",
"278 450 OFFCURVE",
"281 478 OFFCURVE",
"281 531 CURVE SMOOTH",
"281 679 OFFCURVE",
"165 708 OFFCURVE",
"37 721 CURVE",
"33 624 LINE",
"138 605 OFFCURVE",
"138 545 OFFCURVE",
"138 487 CURVE SMOOTH",
"138 466 LINE",
"138 454 LINE SMOOTH",
"138 382 OFFCURVE",
"157 318 OFFCURVE",
"244 288 CURVE",
"159 256 OFFCURVE",
"138 193 OFFCURVE",
"138 121 CURVE SMOOTH",
"138 110 LINE",
"138 89 LINE SMOOTH",
"138 31 OFFCURVE",
"137 -32 OFFCURVE",
"33 -48 CURVE",
"37 -146 LINE",
"197 -130 OFFCURVE",
"280 -83 OFFCURVE",
"280 84 CURVE SMOOTH",
"280 185 OFFCURVE",
"274 233 OFFCURVE",
"404 233 CURVE"
);
}
);
width = 435;
}
);
unicode = 007D;
},
{
glyphname = asciitilde;
layers = (
{
hints = (
{
place = "{44, 414}";
type = Stem;
},
{
horizontal = 1;
place = "{230, 110}";
type = Stem;
},
{
horizontal = 1;
place = "{274, 110}";
type = Stem;
}
);
layerId = "61C708DC-9E63-4DDF-9A9E-D605D0F8404A";
paths = (
{
closed = 1;
nodes = (
"384 390 LINE",
"369 358 OFFCURVE",
"352 340 OFFCURVE",
"324 340 CURVE SMOOTH",
"279 340 OFFCURVE",
"231 384 OFFCURVE",
"165 384 CURVE SMOOTH",
"104 384 OFFCURVE",
"68 349 OFFCURVE",
"44 258 CURVE",
"119 223 LINE",
"134 256 OFFCURVE",
"148 274 OFFCURVE",
"177 274 CURVE SMOOTH",
"225 274 OFFCURVE",
"279 230 OFFCURVE",
"340 230 CURVE SMOOTH",
"393 230 OFFCURVE",
"435 265 OFFCURVE",
"458 354 CURVE"
);
}
);
width = 497;
}
);
unicode = 007E;
},
{
glyphname = Euro;
layers = (
{
hints = (
{
horizontal = 1;
place = "{-15, 136}";
type = Stem;
},
{
horizontal = 1;
place = "{296, 90}";
type = Stem;
},
{
horizontal = 1;
place = "{581, 136}";
type = Stem;
},
{
place = "{5, 154}";
type = Stem;
}
);
layerId = "61C708DC-9E63-4DDF-9A9E-D605D0F8404A";
paths = (
{
closed = 1;
nodes = (
"159 386 LINE",
"164 508 OFFCURVE",
"233 581 OFFCURVE",
"320 581 CURVE SMOOTH",
"367 581 OFFCURVE",
"406 562 OFFCURVE",
"438 523 CURVE",
"472 549 OFFCURVE",
"514 584 OFFCURVE",
"546 610 CURVE",
"495 675 OFFCURVE",
"424 717 OFFCURVE",
"320 717 CURVE SMOOTH",
"103 717 OFFCURVE",
"5 535 OFFCURVE",
"5 348 CURVE SMOOTH",
"5 122 OFFCURVE",
"134 -15 OFFCURVE",
"314 -15 CURVE SMOOTH",
"419 -15 OFFCURVE",
"495 26 OFFCURVE",
"548 97 CURVE",
"442 181 LINE",
"407 140 OFFCURVE",
"367 121 OFFCURVE",
"322 121 CURVE SMOOTH",
"223 121 OFFCURVE",
"176 212 OFFCURVE",
"165 296 CURVE",
"360 296 LINE",
"360 386 LINE"
);
}
);
width = 577;
}
);
unicode = 20AC;
},
{
glyphname = quotesinglbase;
layers = (
{
hints = (
{
horizontal = 1;
place = "{-158, 323}";
type = Stem;
},
{
place = "{17, 207}";
type = Stem;
}
);
layerId = "61C708DC-9E63-4DDF-9A9E-D605D0F8404A";
paths = (
{
closed = 1;
nodes = (
"224 165 LINE",
"64 165 LINE",
"17 -158 LINE",
"125 -158 LINE"
);
}
);
width = 258;
}
);
unicode = 201A;
},
{
glyphname = florin;
layers = (
{
hints = (
{
horizontal = 1;
place = "{343, 119}";
type = Stem;
},
{
horizontal = 1;
place = "{613, 120}";
type = Stem;
},
{
place = "{28, 436}";
type = Stem;
}
);
layerId = "61C708DC-9E63-4DDF-9A9E-D605D0F8404A";
paths = (
{
closed = 1;
nodes = (
"28 -143 LINE",
"181 -143 LINE",
"277 343 LINE",
"384 343 LINE",
"408 462 LINE",
"299 462 LINE",
"313 524 LINE",
"326 591 OFFCURVE",
"352 613 OFFCURVE",
"402 613 CURVE SMOOTH",
"414 613 OFFCURVE",
"429 612 OFFCURVE",
"442 608 CURVE",
"464 722 LINE",
"439 729 OFFCURVE",
"405 733 OFFCURVE",
"372 733 CURVE SMOOTH",
"262 733 OFFCURVE",
"193 683 OFFCURVE",
"166 558 CURVE",
"144 462 LINE",
"79 462 LINE",
"54 343 LINE",
"123 343 LINE"
);
}
);
width = 512;
}
);
unicode = 0192;
},
{
glyphname = quotedblbase;
layers = (
{
hints = (
{
horizontal = 1;
place = "{-158, 323}";
type = Stem;
},
{
place = "{16, 440}";
type = Stem;
}
);
layerId = "61C708DC-9E63-4DDF-9A9E-D605D0F8404A";
paths = (
{
closed = 1;
nodes = (
"223 165 LINE",
"64 165 LINE",
"16 -158 LINE",
"124 -158 LINE"
);
},
{
closed = 1;
nodes = (
"456 165 LINE",
"297 165 LINE",
"250 -158 LINE",
"358 -158 LINE"
);
}
);
width = 493;
}
);
unicode = 201E;
},
{
glyphname = ellipsis;
layers = (
{
hints = (
{
horizontal = 1;
place = "{-8, 175}";
type = Stem;
},
{
place = "{81, 185}";
type = Stem;
},
{
place = "{351, 184}";
type = Stem;
},
{
place = "{620, 184}";
type = Stem;
}
);
layerId = "61C708DC-9E63-4DDF-9A9E-D605D0F8404A";
paths = (
{
closed = 1;
nodes = (
"81 24 OFFCURVE",
"122 -8 OFFCURVE",
"173 -8 CURVE SMOOTH",
"224 -8 OFFCURVE",
"266 24 OFFCURVE",
"266 80 CURVE SMOOTH",
"266 136 OFFCURVE",
"224 167 OFFCURVE",
"173 167 CURVE SMOOTH",
"122 167 OFFCURVE",
"81 136 OFFCURVE",
"81 80 CURVE SMOOTH"
);
},
{
closed = 1;
nodes = (
"351 24 OFFCURVE",
"391 -8 OFFCURVE",
"443 -8 CURVE SMOOTH",
"495 -8 OFFCURVE",
"535 24 OFFCURVE",
"535 80 CURVE SMOOTH",
"535 136 OFFCURVE",
"495 167 OFFCURVE",
"443 167 CURVE SMOOTH",
"391 167 OFFCURVE",
"351 136 OFFCURVE",
"351 80 CURVE SMOOTH"
);
},
{
closed = 1;
nodes = (
"620 24 OFFCURVE",
"660 -8 OFFCURVE",
"712 -8 CURVE SMOOTH",
"764 -8 OFFCURVE",
"804 24 OFFCURVE",
"804 80 CURVE SMOOTH",
"804 136 OFFCURVE",
"764 167 OFFCURVE",
"712 167 CURVE SMOOTH",
"660 167 OFFCURVE",
"620 136 OFFCURVE",
"620 80 CURVE SMOOTH"
);
}
);
width = 885;
}
);
unicode = 2026;
},
{
glyphname = dagger;
layers = (
{
hints = (
{
place = "{160, 87}";
type = Stem;
},
{
place = "{163, 81}";
type = Stem;
},
{
horizontal = 1;
place = "{475, 80}";
type = Stem;
},
{
horizontal = 1;
place = "{708, -20}";
target = down;
type = TopGhost;
}
);
layerId = "61C708DC-9E63-4DDF-9A9E-D605D0F8404A";
paths = (
{
closed = 1;
nodes = (
"253 708 LINE",
"154 708 LINE",
"166 550 LINE",
"36 561 LINE",
"36 470 LINE",
"168 481 LINE",
"158 63 LINE",
"249 63 LINE",
"239 481 LINE",
"371 470 LINE",
"371 561 LINE",
"241 550 LINE"
);
}
);
width = 407;
}
);
unicode = 2020;
},
{
glyphname = daggerdbl;
layers = (
{
hints = (
{
place = "{159, 86}";
type = Stem;
},
{
place = "{166, 72}";
type = Stem;
},
{
horizontal = 1;
place = "{82, 80}";
type = Stem;
},
{
horizontal = 1;
place = "{478, 80}";
type = Stem;
},
{
horizontal = 1;
place = "{709, -20}";
target = down;
type = TopGhost;
}
);
layerId = "61C708DC-9E63-4DDF-9A9E-D605D0F8404A";
paths = (
{
closed = 1;
nodes = (
"154 -60 LINE",
"251 -60 LINE",
"240 87 LINE",
"369 77 LINE",
"369 167 LINE",
"238 157 LINE",
"241 231 OFFCURVE",
"241 410 OFFCURVE",
"238 484 CURVE",
"369 473 LINE",
"369 564 LINE",
"240 554 LINE",
"251 709 LINE",
"154 709 LINE",
"165 554 LINE",
"36 564 LINE",
"36 473 LINE",
"166 484 LINE",
"166 157 LINE",
"36 167 LINE",
"36 77 LINE",
"165 87 LINE"
);
}
);
width = 405;
}
);
unicode = 2021;
},
{
glyphname = circumflex;
layers = (
{
hints = (
{
horizontal = 1;
place = "{528, 171}";
type = Stem;
},
{
place = "{1, 348}";
type = Stem;
}
);
layerId = "61C708DC-9E63-4DDF-9A9E-D605D0F8404A";
paths = (
{
closed = 1;
nodes = (
"220 699 LINE",
"130 699 LINE",
"1 528 LINE",
"110 528 LINE",
"175 596 LINE",
"240 528 LINE",
"349 528 LINE"
);
}
);
width = 348;
}
);
unicode = 02C6;
},
{
glyphname = perthousand;
layers = (
{
hints = (
{
place = "{28, 104}";
type = Stem;
},
{
place = "{273, 103}";
type = Stem;
},
{
place = "{467, 103}";
type = Stem;
},
{
place = "{711, 103}";
type = Stem;
},
{
place = "{855, 103}";
type = Stem;
},
{
place = "{1099, 104}";
type = Stem;
},
{
horizontal = 1;
place = "{-10, 93}";
type = Stem;
},
{
horizontal = 1;
place = "{0, 21}";
target = up;
type = BottomGhost;
},
{
horizontal = 1;
place = "{265, 93}";
type = Stem;
},
{
horizontal = 1;
place = "{341, 93}";
type = Stem;
},
{
horizontal = 1;
place = "{617, 93}";
type = Stem;
}
);
layerId = "61C708DC-9E63-4DDF-9A9E-D605D0F8404A";
paths = (
{
closed = 1;
nodes = (
"376 627 OFFCURVE",
"307 710 OFFCURVE",
"203 710 CURVE SMOOTH",
"100 710 OFFCURVE",
"28 627 OFFCURVE",
"28 526 CURVE SMOOTH",
"28 426 OFFCURVE",
"98 341 OFFCURVE",
"202 341 CURVE SMOOTH",
"306 341 OFFCURVE",
"376 427 OFFCURVE",
"376 527 CURVE SMOOTH"
);
},
{
closed = 1;
nodes = (
"626 700 LINE",
"104 0 LINE",
"223 0 LINE",
"339 165 OFFCURVE",
"624 536 OFFCURVE",
"744 700 CURVE"
);
},
{
closed = 1;
nodes = (
"273 474 OFFCURVE",
"246 434 OFFCURVE",
"203 434 CURVE SMOOTH",
"163 434 OFFCURVE",
"132 474 OFFCURVE",
"132 527 CURVE SMOOTH",
"132 579 OFFCURVE",
"158 617 OFFCURVE",
"201 617 CURVE SMOOTH",
"244 617 OFFCURVE",
"273 578 OFFCURVE",
"273 526 CURVE SMOOTH"
);
},
{
closed = 1;
nodes = (
"814 276 OFFCURVE",
"745 358 OFFCURVE",
"641 358 CURVE SMOOTH",
"537 358 OFFCURVE",
"467 275 OFFCURVE",
"467 174 CURVE SMOOTH",
"467 73 OFFCURVE",
"537 -10 OFFCURVE",
"640 -10 CURVE SMOOTH",
"744 -10 OFFCURVE",
"814 74 OFFCURVE",
"814 175 CURVE SMOOTH"
);
},
{
closed = 1;
nodes = (
"1203 276 OFFCURVE",
"1132 358 OFFCURVE",
"1030 358 CURVE SMOOTH",
"925 358 OFFCURVE",
"855 275 OFFCURVE",
"855 174 CURVE SMOOTH",
"855 73 OFFCURVE",
"925 -10 OFFCURVE",
"1029 -10 CURVE SMOOTH",
"1131 -10 OFFCURVE",
"1203 74 OFFCURVE",
"1203 175 CURVE SMOOTH"
);
},
{
closed = 1;
nodes = (
"711 121 OFFCURVE",
"685 83 OFFCURVE",
"641 83 CURVE SMOOTH",
"601 83 OFFCURVE",
"570 122 OFFCURVE",
"570 175 CURVE SMOOTH",
"570 228 OFFCURVE",
"597 265 OFFCURVE",
"640 265 CURVE SMOOTH",
"683 265 OFFCURVE",
"711 228 OFFCURVE",
"711 173 CURVE SMOOTH"
);
},
{
closed = 1;
nodes = (
"1099 121 OFFCURVE",
"1073 83 OFFCURVE",
"1030 83 CURVE SMOOTH",
"989 83 OFFCURVE",
"958 122 OFFCURVE",
"958 175 CURVE SMOOTH",
"958 227 OFFCURVE",
"985 265 OFFCURVE",
"1029 265 CURVE SMOOTH",
"1070 265 OFFCURVE",
"1099 228 OFFCURVE",
"1099 173 CURVE SMOOTH"
);
}
);
width = 1233;
}
);
unicode = 2030;
},
{
glyphname = guilsinglleft;
layers = (
{
hints = (
{
horizontal = 1;
place = "{38, 448}";
type = Stem;
},
{
place = "{28, 284}";
type = Stem;
}
);
layerId = "61C708DC-9E63-4DDF-9A9E-D605D0F8404A";
paths = (
{
closed = 1;
nodes = (
"182 262 LINE",
"312 437 LINE",
"195 486 LINE",
"28 261 LINE",
"194 38 LINE",
"311 88 LINE"
);
}
);
width = 335;
}
);
unicode = 2039;
},
{
glyphname = quoteleft;
layers = (
{
hints = (
{
place = "{28, 207}";
type = Stem;
},
{
horizontal = 1;
place = "{382, 324}";
type = Stem;
},
{
horizontal = 1;
place = "{706, -20}";
target = down;
type = TopGhost;
}
);
layerId = "61C708DC-9E63-4DDF-9A9E-D605D0F8404A";
paths = (
{
closed = 1;
nodes = (
"28 382 LINE",
"188 382 LINE",
"235 706 LINE",
"127 706 LINE"
);
}
);
width = 258;
}
);
unicode = 2018;
},
{
glyphname = quoteright;
layers = (
{
hints = (
{
place = "{27, 207}";
type = Stem;
},
{
horizontal = 1;
place = "{378, 324}";
type = Stem;
},
{
horizontal = 1;
place = "{702, -20}";
target = down;
type = TopGhost;
}
);
layerId = "61C708DC-9E63-4DDF-9A9E-D605D0F8404A";
paths = (
{
closed = 1;
nodes = (
"234 702 LINE",
"75 702 LINE",
"27 378 LINE",
"135 378 LINE"
);
}
);
width = 257;
}
);
unicode = 2019;
},
{
glyphname = quotedblleft;
layers = (
{
hints = (
{
horizontal = 1;
place = "{382, 324}";
type = Stem;
},
{
place = "{27, 440}";
type = Stem;
}
);
layerId = "61C708DC-9E63-4DDF-9A9E-D605D0F8404A";
paths = (
{
closed = 1;
nodes = (
"27 382 LINE",
"187 382 LINE",
"234 706 LINE",
"126 706 LINE"
);
},
{
closed = 1;
nodes = (
"261 382 LINE",
"420 382 LINE",
"467 706 LINE",
"359 706 LINE"
);
}
);
width = 488;
}
);
unicode = 201C;
},
{
glyphname = quotedblright;
layers = (
{
hints = (
{
horizontal = 1;
place = "{378, 324}";
type = Stem;
},
{
place = "{26, 440}";
type = Stem;
}
);
layerId = "61C708DC-9E63-4DDF-9A9E-D605D0F8404A";
paths = (
{
closed = 1;
nodes = (
"233 702 LINE",
"73 702 LINE",
"26 378 LINE",
"134 378 LINE"
);
},
{
closed = 1;
nodes = (
"466 702 LINE",
"307 702 LINE",
"260 378 LINE",
"367 378 LINE"
);
}
);
width = 488;
}
);
unicode = 201D;
},
{
glyphname = bullet;
layers = (
{
hints = (
{
horizontal = 1;
place = "{191, 324}";
type = Stem;
},
{
place = "{40, 323}";
type = Stem;
}
);
layerId = "61C708DC-9E63-4DDF-9A9E-D605D0F8404A";
paths = (
{
closed = 1;
nodes = (
"40 262 OFFCURVE",
"113 191 OFFCURVE",
"201 191 CURVE SMOOTH",
"292 191 OFFCURVE",
"363 263 OFFCURVE",
"363 352 CURVE SMOOTH",
"363 442 OFFCURVE",
"290 515 OFFCURVE",
"201 515 CURVE SMOOTH",
"112 515 OFFCURVE",
"40 441 OFFCURVE",
"40 352 CURVE SMOOTH"
);
}
);
width = 404;
}
);
unicode = 2022;
},
{
glyphname = endash;
layers = (
{
hints = (
{
horizontal = 1;
place = "{236, 134}";
type = Stem;
},
{
place = "{31, 445}";
type = Stem;
}
);
layerId = "61C708DC-9E63-4DDF-9A9E-D605D0F8404A";
paths = (
{
closed = 1;
nodes = (
"476 370 LINE",
"31 370 LINE",
"31 236 LINE",
"476 236 LINE"
);
}
);
width = 508;
}
);
unicode = 2013;
},
{
glyphname = emdash;
layers = (
{
hints = (
{
horizontal = 1;
place = "{236, 134}";
type = Stem;
},
{
place = "{31, 773}";
type = Stem;
}
);
layerId = "61C708DC-9E63-4DDF-9A9E-D605D0F8404A";
paths = (
{
closed = 1;
nodes = (
"804 370 LINE",
"31 370 LINE",
"31 236 LINE",
"804 236 LINE"
);
}
);
width = 835;
}
);
unicode = 2014;
},
{
glyphname = tilde;
layers = (
{
hints = (
{
place = "{6, 362}";
type = Stem;
},
{
horizontal = 1;
place = "{536, 102}";
type = Stem;
},
{
horizontal = 1;
place = "{572, 102}";
type = Stem;
}
);
layerId = "61C708DC-9E63-4DDF-9A9E-D605D0F8404A";
paths = (
{
closed = 1;
nodes = (
"93 525 LINE",
"104 561 OFFCURVE",
"118 572 OFFCURVE",
"135 572 CURVE SMOOTH",
"168 572 OFFCURVE",
"205 536 OFFCURVE",
"253 536 CURVE SMOOTH",
"310 536 OFFCURVE",
"345 590 OFFCURVE",
"368 667 CURVE",
"282 683 LINE",
"274 651 OFFCURVE",
"262 638 OFFCURVE",
"246 638 CURVE SMOOTH",
"217 638 OFFCURVE",
"173 674 OFFCURVE",
"126 674 CURVE SMOOTH",
"66 674 OFFCURVE",
"27 620 OFFCURVE",
"6 541 CURVE"
);
}
);
width = 372;
}
);
unicode = 02DC;
},
{
glyphname = trademark;
layers = (
{
hints = (
{
horizontal = 1;
place = "{609, 97}";
type = Stem;
},
{
place = "{153, 105}";
type = Stem;
},
{
place = "{427, 105}";
type = Stem;
},
{
place = "{782, 104}";
type = Stem;
}
);
layerId = "61C708DC-9E63-4DDF-9A9E-D605D0F8404A";
paths = (
{
closed = 1;
nodes = (
"382 706 LINE",
"28 706 LINE",
"28 609 LINE",
"153 609 LINE",
"153 292 LINE",
"258 292 LINE",
"258 609 LINE",
"382 609 LINE"
);
},
{
closed = 1;
nodes = (
"886 706 LINE",
"761 706 LINE",
"658 472 LINE",
"555 706 LINE",
"427 706 LINE",
"427 292 LINE",
"532 292 LINE",
"532 509 LINE",
"624 292 LINE",
"690 292 LINE",
"782 509 LINE",
"782 292 LINE",
"886 292 LINE"
);
}
);
width = 897;
}
);
unicode = 2122;
},
{
glyphname = guilsinglright;
layers = (
{
hints = (
{
horizontal = 1;
place = "{38, 448}";
type = Stem;
},
{
place = "{23, 284}";
type = Stem;
}
);
layerId = "61C708DC-9E63-4DDF-9A9E-D605D0F8404A";
paths = (
{
closed = 1;
nodes = (
"25 88 LINE",
"141 38 LINE",
"307 261 LINE",
"141 486 LINE",
"23 437 LINE",
"153 262 LINE"
);
}
);
width = 335;
}
);
unicode = 203A;
},
{
glyphname = exclamdown;
layers = (
{
hints = (
{
place = "{48, 184}";
type = Stem;
},
{
place = "{52, 175}";
type = Stem;
},
{
horizontal = 1;
place = "{516, 168}";
type = Stem;
}
);
layerId = "61C708DC-9E63-4DDF-9A9E-D605D0F8404A";
paths = (
{
closed = 1;
nodes = (
"232 655 OFFCURVE",
"191 684 OFFCURVE",
"140 684 CURVE SMOOTH",
"89 684 OFFCURVE",
"48 655 OFFCURVE",
"48 600 CURVE SMOOTH",
"48 545 OFFCURVE",
"89 516 OFFCURVE",
"140 516 CURVE SMOOTH",
"191 516 OFFCURVE",
"232 545 OFFCURVE",
"232 600 CURVE SMOOTH"
);
},
{
closed = 1;
nodes = (
"228 -30 LINE",
"226 69 LINE",
"182 453 LINE",
"97 453 LINE",
"53 69 LINE",
"51 -30 LINE"
);
}
);
width = 278;
}
);
unicode = 00A1;
},
{
glyphname = cent;
layers = (
{
hints = (
{
place = "{79, 137}";
type = Stem;
},
{
place = "{416, 87}";
type = Stem;
},
{
horizontal = 1;
place = "{-9, 204}";
type = Stem;
},
{
horizontal = 1;
place = "{-9, 21}";
target = up;
type = BottomGhost;
},
{
horizontal = 1;
place = "{74, 121}";
type = Stem;
},
{
horizontal = 1;
place = "{489, 200}";
type = Stem;
}
);
layerId = "61C708DC-9E63-4DDF-9A9E-D605D0F8404A";
paths = (
{
closed = 1;
nodes = (
"503 575 LINE",
"483 588 OFFCURVE",
"463 598 OFFCURVE",
"443 602 CURVE",
"455 689 LINE",
"358 689 LINE",
"347 615 LINE",
"188 612 OFFCURVE",
"79 496 OFFCURVE",
"79 344 CURVE SMOOTH",
"79 225 OFFCURVE",
"153 122 OFFCURVE",
"264 88 CURVE",
"249 -9 LINE",
"347 -9 LINE",
"360 74 LINE",
"419 75 OFFCURVE",
"466 91 OFFCURVE",
"505 119 CURVE",
"505 258 LINE",
"473 223 OFFCURVE",
"426 195 OFFCURVE",
"371 195 CURVE",
"416 489 LINE",
"448 484 OFFCURVE",
"480 465 OFFCURVE",
"503 437 CURVE"
);
},
{
closed = 1;
nodes = (
"289 209 LINE",
"242 236 OFFCURVE",
"216 281 OFFCURVE",
"216 345 CURVE SMOOTH",
"216 429 OFFCURVE",
"261 486 OFFCURVE",
"332 494 CURVE"
);
}
);
width = 586;
}
);
unicode = 00A2;
},
{
glyphname = sterling;
layers = (
{
hints = (
{
horizontal = 1;
place = "{0, 126}";
type = Stem;
},
{
horizontal = 1;
place = "{277, 113}";
type = Stem;
},
{
horizontal = 1;
place = "{573, 141}";
type = Stem;
},
{
place = "{126, 157}";
type = Stem;
}
);
layerId = "61C708DC-9E63-4DDF-9A9E-D605D0F8404A";
paths = (
{
closed = 1;
nodes = (
"510 390 LINE",
"283 390 LINE",
"283 458 LINE SMOOTH",
"283 525 OFFCURVE",
"315 573 OFFCURVE",
"382 573 CURVE SMOOTH",
"427 573 OFFCURVE",
"459 554 OFFCURVE",
"491 518 CURVE",
"596 614 LINE",
"545 673 OFFCURVE",
"477 714 OFFCURVE",
"374 714 CURVE SMOOTH",
"216 714 OFFCURVE",
"126 611 OFFCURVE",
"126 459 CURVE SMOOTH",
"126 390 LINE",
"54 390 LINE",
"54 277 LINE",
"126 277 LINE",
"126 0 LINE",
"588 0 LINE",
"588 126 LINE",
"283 126 LINE",
"283 277 LINE",
"510 277 LINE"
);
}
);
width = 645;
}
);
unicode = 00A3;
},
{
glyphname = currency;
layers = (
{
hints = (
{
horizontal = 1;
place = "{71, 101}";
type = Stem;
},
{
horizontal = 1;
place = "{485, 102}";
type = Stem;
},
{
place = "{69, 110}";
type = Stem;
},
{
place = "{479, 111}";
type = Stem;
}
);
layerId = "61C708DC-9E63-4DDF-9A9E-D605D0F8404A";
paths = (
{
closed = 1;
nodes = (
"567 634 LINE",
"475 544 LINE",
"434 572 OFFCURVE",
"385 587 OFFCURVE",
"329 587 CURVE SMOOTH",
"273 587 OFFCURVE",
"227 572 OFFCURVE",
"183 543 CURVE",
"88 634 LINE",
"20 565 LINE",
"112 473 LINE",
"81 428 OFFCURVE",
"69 381 OFFCURVE",
"69 329 CURVE SMOOTH",
"69 273 OFFCURVE",
"85 224 OFFCURVE",
"114 183 CURVE",
"20 88 LINE",
"88 19 LINE",
"186 114 LINE",
"230 85 OFFCURVE",
"277 71 OFFCURVE",
"329 71 CURVE SMOOTH",
"382 71 OFFCURVE",
"430 86 OFFCURVE",
"473 113 CURVE",
"568 19 LINE",
"637 88 LINE",
"545 180 LINE",
"574 224 OFFCURVE",
"590 272 OFFCURVE",
"590 329 CURVE SMOOTH",
"590 385 OFFCURVE",
"574 430 OFFCURVE",
"546 474 CURVE",
"637 565 LINE"
);
},
{
closed = 1;
nodes = (
"419 485 OFFCURVE",
"479 417 OFFCURVE",
"479 328 CURVE SMOOTH",
"479 243 OFFCURVE",
"419 172 OFFCURVE",
"329 172 CURVE SMOOTH",
"240 172 OFFCURVE",
"179 242 OFFCURVE",
"179 329 CURVE SMOOTH",
"179 414 OFFCURVE",
"240 485 OFFCURVE",
"329 485 CURVE SMOOTH"
);
}
);
width = 655;
}
);
unicode = 00A4;
},
{
glyphname = yen;
layers = (
{
hints = (
{
place = "{257, 155}";
type = Stem;
},
{
horizontal = 1;
place = "{0, 213}";
type = Stem;
},
{
horizontal = 1;
place = "{111, 102}";
type = Stem;
},
{
horizontal = 1;
place = "{276, 103}";
type = Stem;
},
{
horizontal = 1;
place = "{702, -20}";
target = down;
type = TopGhost;
}
);
layerId = "61C708DC-9E63-4DDF-9A9E-D605D0F8404A";
paths = (
{
closed = 1;
nodes = (
"73 213 LINE",
"73 111 LINE",
"257 111 LINE",
"257 0 LINE",
"412 0 LINE",
"412 111 LINE",
"596 111 LINE",
"596 213 LINE",
"413 213 LINE",
"421 276 LINE",
"596 276 LINE",
"596 379 LINE",
"455 379 LINE",
"666 702 LINE",
"490 702 LINE",
"337 437 LINE",
"182 702 LINE",
"3 702 LINE",
"213 379 LINE",
"73 379 LINE",
"73 276 LINE",
"247 276 LINE",
"257 213 LINE"
);
}
);
width = 668;
}
);
unicode = 00A5;
},
{
glyphname = brokenbar;
layers = (
{
hints = (
{
place = "{92, 137}";
type = Stem;
},
{
horizontal = 1;
place = "{-173, 346}";
type = Stem;
},
{
horizontal = 1;
place = "{-173, 21}";
target = up;
type = BottomGhost;
},
{
horizontal = 1;
place = "{323, 349}";
type = Stem;
}
);
layerId = "61C708DC-9E63-4DDF-9A9E-D605D0F8404A";
paths = (
{
closed = 1;
nodes = (
"92 672 LINE",
"92 323 LINE",
"229 323 LINE",
"229 672 LINE"
);
},
{
closed = 1;
nodes = (
"92 173 LINE",
"92 -173 LINE",
"229 -173 LINE",
"229 173 LINE"
);
}
);
width = 321;
}
);
unicode = 00A6;
},
{
glyphname = section;
layers = (
{
hints = (
{
place = "{48, 123}";
type = Stem;
},
{
place = "{94, 144}";
type = Stem;
},
{
place = "{378, 142}";
type = Stem;
},
{
place = "{443, 123}";
type = Stem;
},
{
horizontal = 1;
place = "{-37, 108}";
type = Stem;
},
{
horizontal = 1;
place = "{607, 109}";
type = Stem;
}
);
layerId = "61C708DC-9E63-4DDF-9A9E-D605D0F8404A";
paths = (
{
closed = 1;
nodes = (
"470 677 LINE",
"425 702 OFFCURVE",
"372 716 OFFCURVE",
"309 716 CURVE SMOOTH",
"173 716 OFFCURVE",
"94 649 OFFCURVE",
"94 563 CURVE SMOOTH",
"94 518 OFFCURVE",
"118 479 OFFCURVE",
"151 455 CURVE",
"87 436 OFFCURVE",
"48 397 OFFCURVE",
"48 341 CURVE SMOOTH",
"48 266 OFFCURVE",
"133 216 OFFCURVE",
"261 187 CURVE",
"340 167 OFFCURVE",
"378 145 OFFCURVE",
"378 117 CURVE SMOOTH",
"378 88 OFFCURVE",
"355 71 OFFCURVE",
"308 71 CURVE SMOOTH",
"251 71 OFFCURVE",
"191 94 OFFCURVE",
"142 135 CURVE",
"142 4 LINE",
"187 -21 OFFCURVE",
"242 -37 OFFCURVE",
"305 -37 CURVE SMOOTH",
"444 -37 OFFCURVE",
"520 31 OFFCURVE",
"520 120 CURVE SMOOTH",
"520 163 OFFCURVE",
"501 199 OFFCURVE",
"465 226 CURVE",
"526 245 OFFCURVE",
"566 283 OFFCURVE",
"566 340 CURVE SMOOTH",
"566 420 OFFCURVE",
"488 457 OFFCURVE",
"352 494 CURVE SMOOTH",
"265 518 OFFCURVE",
"238 541 OFFCURVE",
"238 564 CURVE SMOOTH",
"238 592 OFFCURVE",
"262 607 OFFCURVE",
"309 607 CURVE SMOOTH",
"366 607 OFFCURVE",
"419 585 OFFCURVE",
"470 546 CURVE"
);
},
{
closed = 1;
nodes = (
"443 290 OFFCURVE",
"417 271 OFFCURVE",
"377 271 CURVE",
"301 276 OFFCURVE",
"171 309 OFFCURVE",
"171 362 CURVE SMOOTH",
"171 393 OFFCURVE",
"198 407 OFFCURVE",
"239 410 CURVE",
"293 407 OFFCURVE",
"443 369 OFFCURVE",
"443 317 CURVE SMOOTH"
);
}
);
width = 613;
}
);
unicode = 00A7;
},
{
glyphname = dieresis;
layers = (
{
hints = (
{
horizontal = 1;
place = "{552, 153}";
type = Stem;
},
{
place = "{-26, 157}";
type = Stem;
},
{
place = "{189, 156}";
type = Stem;
}
);
layerId = "61C708DC-9E63-4DDF-9A9E-D605D0F8404A";
paths = (
{
closed = 1;
nodes = (
"-26 581 OFFCURVE",
"8 552 OFFCURVE",
"53 552 CURVE SMOOTH",
"96 552 OFFCURVE",
"131 581 OFFCURVE",
"131 629 CURVE SMOOTH",
"131 677 OFFCURVE",
"96 705 OFFCURVE",
"53 705 CURVE SMOOTH",
"8 705 OFFCURVE",
"-26 677 OFFCURVE",
"-26 629 CURVE SMOOTH"
);
},
{
closed = 1;
nodes = (
"189 581 OFFCURVE",
"223 552 OFFCURVE",
"267 552 CURVE SMOOTH",
"311 552 OFFCURVE",
"345 581 OFFCURVE",
"345 629 CURVE SMOOTH",
"345 677 OFFCURVE",
"311 705 OFFCURVE",
"267 705 CURVE SMOOTH",
"223 705 OFFCURVE",
"189 677 OFFCURVE",
"189 629 CURVE SMOOTH"
);
}
);
width = 320;
}
);
unicode = 00A8;
},
{
glyphname = copyright;
layers = (
{
hints = (
{
place = "{35, 50}";
type = Stem;
},
{
place = "{204, 115}";
type = Stem;
},
{
place = "{729, 49}";
type = Stem;
},
{
horizontal = 1;
place = "{-30, 49}";
type = Stem;
},
{
horizontal = 1;
place = "{139, 99}";
type = Stem;
},
{
horizontal = 1;
place = "{459, 99}";
type = Stem;
},
{
horizontal = 1;
place = "{530, -20}";
target = down;
type = TopGhost;
},
{
horizontal = 1;
place = "{668, 50}";
type = Stem;
}
);
layerId = "61C708DC-9E63-4DDF-9A9E-D605D0F8404A";
paths = (
{
closed = 1;
nodes = (
"615 -30 OFFCURVE",
"778 140 OFFCURVE",
"778 346 CURVE SMOOTH",
"778 550 OFFCURVE",
"614 718 OFFCURVE",
"407 718 CURVE SMOOTH",
"201 718 OFFCURVE",
"35 547 OFFCURVE",
"35 346 CURVE SMOOTH",
"35 140 OFFCURVE",
"199 -30 OFFCURVE",
"406 -30 CURVE SMOOTH"
);
},
{
closed = 1;
nodes = (
"226 19 OFFCURVE",
"85 166 OFFCURVE",
"85 345 CURVE SMOOTH",
"85 522 OFFCURVE",
"226 668 OFFCURVE",
"408 668 CURVE SMOOTH",
"589 668 OFFCURVE",
"729 523 OFFCURVE",
"729 346 CURVE SMOOTH",
"729 167 OFFCURVE",
"588 19 OFFCURVE",
"406 19 CURVE SMOOTH"
);
},
{
closed = 1;
nodes = (
"525 280 LINE",
"496 253 OFFCURVE",
"461 238 OFFCURVE",
"424 238 CURVE SMOOTH",
"364 238 OFFCURVE",
"319 287 OFFCURVE",
"319 350 CURVE SMOOTH",
"319 410 OFFCURVE",
"365 459 OFFCURVE",
"425 459 CURVE SMOOTH",
"464 459 OFFCURVE",
"499 441 OFFCURVE",
"524 417 CURVE",
"524 530 LINE",
"499 546 OFFCURVE",
"463 558 OFFCURVE",
"420 558 CURVE SMOOTH",
"295 558 OFFCURVE",
"204 464 OFFCURVE",
"204 350 CURVE SMOOTH",
"204 233 OFFCURVE",
"298 139 OFFCURVE",
"415 139 CURVE SMOOTH",
"462 139 OFFCURVE",
"497 154 OFFCURVE",
"525 171 CURVE"
);
}
);
width = 812;
}
);
unicode = 00A9;
},
{
glyphname = ordfeminine;
layers = (
{
hints = (
{
horizontal = 1;
place = "{277, 67}";
type = Stem;
},
{
horizontal = 1;
place = "{402, 58}";
type = Stem;
},
{
horizontal = 1;
place = "{542, 46}";
type = Stem;
},
{
horizontal = 1;
place = "{637, 69}";
type = Stem;
},
{
place = "{38, 84}";
type = Stem;
},
{
place = "{230, 86}";
type = Stem;
}
);
layerId = "61C708DC-9E63-4DDF-9A9E-D605D0F8404A";
paths = (
{
closed = 1;
nodes = (
"179 402 OFFCURVE",
"209 419 OFFCURVE",
"230 443 CURVE",
"230 408 LINE",
"316 408 LINE",
"316 579 LINE SMOOTH",
"316 664 OFFCURVE",
"270 706 OFFCURVE",
"177 706 CURVE SMOOTH",
"133 706 OFFCURVE",
"95 697 OFFCURVE",
"62 682 CURVE",
"82 618 LINE",
"107 630 OFFCURVE",
"136 637 OFFCURVE",
"164 637 CURVE SMOOTH",
"208 637 OFFCURVE",
"230 618 OFFCURVE",
"230 581 CURVE SMOOTH",
"230 576 LINE",
"210 583 OFFCURVE",
"187 588 OFFCURVE",
"156 588 CURVE SMOOTH",
"85 588 OFFCURVE",
"38 558 OFFCURVE",
"38 494 CURVE SMOOTH",
"38 434 OFFCURVE",
"85 402 OFFCURVE",
"139 402 CURVE SMOOTH"
);
},
{
closed = 1;
nodes = (
"141 460 OFFCURVE",
"122 475 OFFCURVE",
"122 500 CURVE SMOOTH",
"122 525 OFFCURVE",
"143 542 OFFCURVE",
"179 542 CURVE SMOOTH",
"199 542 OFFCURVE",
"218 537 OFFCURVE",
"231 532 CURVE",
"231 516 LINE SMOOTH",
"231 481 OFFCURVE",
"200 460 OFFCURVE",
"168 460 CURVE SMOOTH"
);
},
{
closed = 1;
nodes = (
"34 277 LINE",
"321 277 LINE",
"321 344 LINE",
"34 344 LINE"
);
}
);
width = 360;
}
);
unicode = 00AA;
},
{
glyphname = guillemotleft;
layers = (
{
hints = (
{
horizontal = 1;
place = "{38, 448}";
type = Stem;
},
{
place = "{28, 537}";
type = Stem;
}
);
layerId = "61C708DC-9E63-4DDF-9A9E-D605D0F8404A";
paths = (
{
closed = 1;
nodes = (
"182 262 LINE",
"312 437 LINE",
"195 486 LINE",
"28 261 LINE",
"194 38 LINE",
"311 88 LINE"
);
},
{
closed = 1;
nodes = (
"435 262 LINE",
"565 437 LINE",
"448 486 LINE",
"281 261 LINE",
"447 38 LINE",
"564 88 LINE"
);
}
);
width = 588;
}
);
unicode = 00AB;
},
{
glyphname = logicalnot;
layers = (
{
hints = (
{
horizontal = 1;
place = "{297, 117}";
type = Stem;
},
{
place = "{444, 121}";
type = Stem;
}
);
layerId = "61C708DC-9E63-4DDF-9A9E-D605D0F8404A";
paths = (
{
closed = 1;
nodes = (
"565 414 LINE",
"42 414 LINE",
"42 297 LINE",
"444 297 LINE",
"444 126 LINE",
"565 126 LINE"
);
}
);
width = 607;
}
);
unicode = 00AC;
},
{
glyphname = registered;
layers = (
{
hints = (
{
horizontal = 1;
place = "{-5, 47}";
type = Stem;
},
{
horizontal = 1;
place = "{303, 77}";
type = Stem;
},
{
horizontal = 1;
place = "{482, 81}";
type = Stem;
},
{
horizontal = 1;
place = "{671, 47}";
type = Stem;
},
{
place = "{54, 49}";
type = Stem;
},
{
place = "{266, 95}";
type = Stem;
},
{
place = "{490, 93}";
type = Stem;
},
{
place = "{727, 50}";
type = Stem;
}
);
layerId = "61C708DC-9E63-4DDF-9A9E-D605D0F8404A";
paths = (
{
closed = 1;
nodes = (
"54 160 OFFCURVE",
"212 -5 OFFCURVE",
"415 -5 CURVE SMOOTH",
"615 -5 OFFCURVE",
"777 161 OFFCURVE",
"777 357 CURVE SMOOTH",
"777 554 OFFCURVE",
"616 718 OFFCURVE",
"417 718 CURVE SMOOTH",
"213 718 OFFCURVE",
"54 554 OFFCURVE",
"54 357 CURVE SMOOTH"
);
},
{
closed = 1;
nodes = (
"103 529 OFFCURVE",
"239 671 OFFCURVE",
"417 671 CURVE SMOOTH",
"592 671 OFFCURVE",
"727 531 OFFCURVE",
"727 359 CURVE SMOOTH",
"727 185 OFFCURVE",
"591 42 OFFCURVE",
"415 42 CURVE SMOOTH",
"238 42 OFFCURVE",
"103 184 OFFCURVE",
"103 356 CURVE SMOOTH"
);
},
{
closed = 1;
nodes = (
"266 164 LINE",
"361 164 LINE",
"361 303 LINE",
"397 303 LINE",
"496 164 LINE",
"606 164 LINE",
"495 317 LINE",
"546 333 OFFCURVE",
"583 378 OFFCURVE",
"583 436 CURVE SMOOTH",
"583 512 OFFCURVE",
"528 563 OFFCURVE",
"433 563 CURVE SMOOTH",
"266 563 LINE"
);
},
{
closed = 1;
nodes = (
"361 380 LINE",
"361 482 LINE",
"426 482 LINE SMOOTH",
"467 482 OFFCURVE",
"490 459 OFFCURVE",
"490 431 CURVE SMOOTH",
"490 400 OFFCURVE",
"465 380 OFFCURVE",
"426 380 CURVE SMOOTH"
);
}
);
width = 830;
}
);
unicode = 00AE;
},
{
glyphname = degree;
layers = (
{
hints = (
{
horizontal = 1;
place = "{375, 79}";
type = Stem;
},
{
horizontal = 1;
place = "{630, 79}";
type = Stem;
},
{
place = "{27, 84}";
type = Stem;
},
{
place = "{284, 84}";
type = Stem;
}
);
layerId = "61C708DC-9E63-4DDF-9A9E-D605D0F8404A";
paths = (
{
closed = 1;
nodes = (
"368 635 OFFCURVE",
"290 709 OFFCURVE",
"198 709 CURVE SMOOTH",
"107 709 OFFCURVE",
"27 634 OFFCURVE",
"27 542 CURVE SMOOTH",
"27 450 OFFCURVE",
"105 375 OFFCURVE",
"198 375 CURVE SMOOTH",
"290 375 OFFCURVE",
"368 450 OFFCURVE",
"368 542 CURVE SMOOTH"
);
},
{
closed = 1;
nodes = (
"284 493 OFFCURVE",
"246 454 OFFCURVE",
"198 454 CURVE SMOOTH",
"149 454 OFFCURVE",
"111 494 OFFCURVE",
"111 542 CURVE SMOOTH",
"111 590 OFFCURVE",
"149 630 OFFCURVE",
"198 630 CURVE SMOOTH",
"246 630 OFFCURVE",
"284 590 OFFCURVE",
"284 542 CURVE SMOOTH"
);
}
);
width = 395;
}
);
unicode = 00B0;
},
{
glyphname = plusminus;
layers = (
{
hints = (
{
horizontal = 1;
place = "{11, 110}";
type = Stem;
},
{
horizontal = 1;
place = "{328, 110}";
type = Stem;
},
{
place = "{228, 112}";
type = Stem;
}
);
layerId = "61C708DC-9E63-4DDF-9A9E-D605D0F8404A";
paths = (
{
closed = 1;
nodes = (
"42 328 LINE",
"228 328 LINE",
"228 176 LINE",
"340 176 LINE",
"340 328 LINE",
"524 328 LINE",
"524 438 LINE",
"340 438 LINE",
"340 588 LINE",
"228 588 LINE",
"228 438 LINE",
"42 438 LINE"
);
},
{
closed = 1;
nodes = (
"42 11 LINE",
"524 11 LINE",
"524 121 LINE",
"42 121 LINE"
);
}
);
width = 565;
}
);
unicode = 00B1;
},
{
glyphname = acute;
layers = (
{
hints = (
{
horizontal = 1;
place = "{707, -20}";
target = down;
type = TopGhost;
},
{
place = "{80, 250}";
type = Stem;
}
);
layerId = "61C708DC-9E63-4DDF-9A9E-D605D0F8404A";
paths = (
{
closed = 1;
nodes = (
"330 707 LINE",
"180 752 LINE",
"80 579 LINE",
"189 579 LINE"
);
}
);
width = 328;
}
);
unicode = 00B4;
},
{
glyphname = paragraph;
layers = (
{
hints = (
{
horizontal = 1;
place = "{611, 95}";
type = Stem;
},
{
place = "{214, 101}";
type = Stem;
},
{
place = "{388, 101}";
type = Stem;
}
);
layerId = "61C708DC-9E63-4DDF-9A9E-D605D0F8404A";
paths = (
{
closed = 1;
nodes = (
"315 -110 LINE",
"315 611 LINE",
"388 611 LINE",
"388 -110 LINE",
"489 -110 LINE",
"489 611 LINE",
"537 611 LINE",
"552 706 LINE",
"251 706 LINE SMOOTH",
"112 706 OFFCURVE",
"32 632 OFFCURVE",
"32 512 CURVE SMOOTH",
"32 397 OFFCURVE",
"114 339 OFFCURVE",
"214 326 CURVE",
"214 -110 LINE"
);
}
);
width = 628;
}
);
unicode = 00B6;
},
{
glyphname = cedilla;
layers = (
{
hints = (
{
horizontal = 1;
place = "{-220, 61}";
type = Stem;
},
{
horizontal = 1;
place = "{-97, 46}";
type = Stem;
},
{
place = "{192, 81}";
type = Stem;
}
);
layerId = "61C708DC-9E63-4DDF-9A9E-D605D0F8404A";
paths = (
{
closed = 1;
nodes = (
"220 18 LINE",
"152 18 LINE",
"85 -85 LINE",
"112 -106 LINE",
"127 -101 OFFCURVE",
"139 -97 OFFCURVE",
"152 -97 CURVE SMOOTH",
"176 -97 OFFCURVE",
"192 -107 OFFCURVE",
"192 -124 CURVE SMOOTH",
"192 -150 OFFCURVE",
"155 -159 OFFCURVE",
"135 -159 CURVE SMOOTH",
"118 -159 OFFCURVE",
"94 -154 OFFCURVE",
"70 -145 CURVE",
"49 -196 LINE",
"81 -211 OFFCURVE",
"116 -220 OFFCURVE",
"149 -220 CURVE SMOOTH",
"202 -220 OFFCURVE",
"273 -196 OFFCURVE",
"273 -127 CURVE SMOOTH",
"273 -73 OFFCURVE",
"225 -51 OFFCURVE",
"185 -51 CURVE SMOOTH",
"179 -51 LINE"
);
}
);
width = 328;
}
);
unicode = 00B8;
},
{
glyphname = ordmasculine;
layers = (
{
hints = (
{
place = "{24, 86}";
type = Stem;
},
{
place = "{38, 288}";
type = Stem;
},
{
place = "{253, 86}";
type = Stem;
},
{
horizontal = 1;
place = "{277, 67}";
type = Stem;
},
{
horizontal = 1;
place = "{400, 76}";
type = Stem;
},
{
horizontal = 1;
place = "{631, 76}";
type = Stem;
}
);
layerId = "61C708DC-9E63-4DDF-9A9E-D605D0F8404A";
paths = (
{
closed = 1;
nodes = (
"272 400 OFFCURVE",
"339 471 OFFCURVE",
"339 555 CURVE SMOOTH",
"339 638 OFFCURVE",
"274 707 OFFCURVE",
"183 707 CURVE SMOOTH",
"91 707 OFFCURVE",
"24 636 OFFCURVE",
"24 553 CURVE SMOOTH",
"24 470 OFFCURVE",
"90 400 OFFCURVE",
"181 400 CURVE SMOOTH"
);
},
{
closed = 1;
nodes = (
"140 476 OFFCURVE",
"110 511 OFFCURVE",
"110 555 CURVE SMOOTH",
"110 596 OFFCURVE",
"137 631 OFFCURVE",
"181 631 CURVE SMOOTH",
"222 631 OFFCURVE",
"253 597 OFFCURVE",
"253 553 CURVE SMOOTH",
"253 510 OFFCURVE",
"226 476 OFFCURVE",
"183 476 CURVE SMOOTH"
);
},
{
closed = 1;
nodes = (
"38 277 LINE",
"326 277 LINE",
"326 344 LINE",
"38 344 LINE"
);
}
);
width = 364;
}
);
unicode = 00BA;
},
{
glyphname = guillemotright;
layers = (
{
hints = (
{
horizontal = 1;
place = "{38, 448}";
type = Stem;
},
{
place = "{24, 537}";
type = Stem;
}
);
layerId = "61C708DC-9E63-4DDF-9A9E-D605D0F8404A";
paths = (
{
closed = 1;
nodes = (
"25 88 LINE",
"142 38 LINE",
"308 261 LINE",
"141 486 LINE",
"24 437 LINE",
"154 262 LINE"
);
},
{
closed = 1;
nodes = (
"278 88 LINE",
"395 38 LINE",
"561 261 LINE",
"394 486 LINE",
"277 437 LINE",
"407 262 LINE"
);
}
);
width = 590;
}
);
unicode = 00BB;
},
{
glyphname = onequarter;
layers = (
{
hints = (
{
horizontal = 1;
place = "{-5, 21}";
target = up;
type = BottomGhost;
},
{
horizontal = 1;
place = "{0, 21}";
target = up;
type = BottomGhost;
},
{
horizontal = 1;
place = "{75, 79}";
type = Stem;
},
{
horizontal = 1;
place = "{298, 129}";
type = Stem;
},
{
horizontal = 1;
place = "{707, -20}";
target = down;
type = TopGhost;
},
{
horizontal = 1;
place = "{708, -20}";
target = down;
type = TopGhost;
},
{
place = "{100, 108}";
type = Stem;
},
{
place = "{674, 101}";
type = Stem;
}
);
layerId = "61C708DC-9E63-4DDF-9A9E-D605D0F8404A";
paths = (
{
closed = 1;
nodes = (
"153 -5 LINE",
"225 -26 LINE",
"656 708 LINE",
"584 729 LINE"
);
},
{
closed = 1;
nodes = (
"100 282 LINE",
"208 282 LINE",
"208 707 LINE",
"130 706 LINE",
"99 696 OFFCURVE",
"57 685 OFFCURVE",
"38 677 CURVE",
"38 586 LINE",
"61 590 OFFCURVE",
"77 598 OFFCURVE",
"100 606 CURVE"
);
},
{
closed = 1;
nodes = (
"467 75 LINE",
"539 75 OFFCURVE",
"606 76 OFFCURVE",
"674 77 CURVE",
"672 0 LINE",
"775 0 LINE",
"774 77 LINE",
"790 76 OFFCURVE",
"803 75 OFFCURVE",
"819 75 CURVE",
"825 155 LINE",
"775 154 LINE",
"775 427 LINE",
"667 427 LINE",
"467 136 LINE"
);
},
{
closed = 1;
nodes = (
"579 153 LINE",
"611 204 OFFCURVE",
"653 262 OFFCURVE",
"674 298 CURVE",
"677 298 LINE",
"676 292 LINE",
"673 265 OFFCURVE",
"674 191 OFFCURVE",
"674 154 CURVE",
"658 154 OFFCURVE",
"642 154 OFFCURVE",
"626 153 CURVE",
"607 153 OFFCURVE",
"589 153 OFFCURVE",
"580 152 CURVE"
);
}
);
width = 862;
}
);
unicode = 00BC;
},
{
glyphname = onehalf;
layers = (
{
hints = (
{
horizontal = 1;
place = "{0, 84}";
type = Stem;
},
{
horizontal = 1;
place = "{-5, 21}";
target = up;
type = BottomGhost;
},
{
horizontal = 1;
place = "{349, 84}";
type = Stem;
},
{
horizontal = 1;
place = "{707, -20}";
target = down;
type = TopGhost;
},
{
horizontal = 1;
place = "{708, -20}";
target = down;
type = TopGhost;
},
{
place = "{87, 108}";
type = Stem;
},
{
place = "{703, 108}";
type = Stem;
}
);
layerId = "61C708DC-9E63-4DDF-9A9E-D605D0F8404A";
paths = (
{
closed = 1;
nodes = (
"114 -5 LINE",
"186 -26 LINE",
"617 708 LINE",
"545 729 LINE"
);
},
{
closed = 1;
nodes = (
"87 282 LINE",
"195 282 LINE",
"195 707 LINE",
"109 706 LINE",
"81 695 OFFCURVE",
"49 686 OFFCURVE",
"25 677 CURVE",
"25 586 LINE",
"44 593 OFFCURVE",
"64 598 OFFCURVE",
"87 606 CURVE"
);
},
{
closed = 1;
nodes = (
"463 0 LINE",
"804 0 LINE",
"815 87 LINE",
"654 81 LINE",
"706 127 LINE",
"780 188 OFFCURVE",
"811 241 OFFCURVE",
"811 298 CURVE SMOOTH",
"811 380 OFFCURVE",
"736 433 OFFCURVE",
"652 433 CURVE SMOOTH",
"560 433 OFFCURVE",
"513 389 OFFCURVE",
"494 309 CURVE",
"592 293 LINE",
"601 322 OFFCURVE",
"617 349 OFFCURVE",
"649 349 CURVE SMOOTH",
"682 349 OFFCURVE",
"703 327 OFFCURVE",
"703 295 CURVE SMOOTH",
"703 254 OFFCURVE",
"653 198 OFFCURVE",
"611 156 CURVE"
);
}
);
width = 856;
}
);
unicode = 00BD;
},
{
glyphname = threequarters;
layers = (
{
hints = (
{
place = "{235, 104}";
type = Stem;
},
{
place = "{252, 106}";
type = Stem;
},
{
place = "{671, 101}";
type = Stem;
},
{
horizontal = 1;
place = "{0, 153}";
type = Stem;
},
{
horizontal = 1;
place = "{-5, 21}";
target = up;
type = BottomGhost;
},
{
horizontal = 1;
place = "{75, 78}";
type = Stem;
},
{
horizontal = 1;
place = "{276, 79}";
type = Stem;
},
{
horizontal = 1;
place = "{479, 67}";
type = Stem;
},
{
horizontal = 1;
place = "{641, 78}";
type = Stem;
},
{
horizontal = 1;
place = "{708, -20}";
target = down;
type = TopGhost;
}
);
layerId = "61C708DC-9E63-4DDF-9A9E-D605D0F8404A";
paths = (
{
closed = 1;
nodes = (
"198 -5 LINE",
"271 -25 LINE",
"702 708 LINE",
"630 729 LINE"
);
},
{
closed = 1;
nodes = (
"28 378 LINE",
"42 308 OFFCURVE",
"115 276 OFFCURVE",
"186 276 CURVE SMOOTH",
"268 276 OFFCURVE",
"358 319 OFFCURVE",
"358 413 CURVE SMOOTH",
"358 461 OFFCURVE",
"331 498 OFFCURVE",
"286 517 CURVE",
"318 534 OFFCURVE",
"339 568 OFFCURVE",
"339 605 CURVE SMOOTH",
"339 685 OFFCURVE",
"257 719 OFFCURVE",
"188 719 CURVE SMOOTH",
"119 719 OFFCURVE",
"64 691 OFFCURVE",
"48 625 CURVE",
"131 605 LINE",
"140 625 OFFCURVE",
"161 641 OFFCURVE",
"186 641 CURVE SMOOTH",
"211 641 OFFCURVE",
"235 625 OFFCURVE",
"235 597 CURVE SMOOTH",
"235 555 OFFCURVE",
"193 546 OFFCURVE",
"161 546 CURVE",
"161 479 LINE",
"209 479 OFFCURVE",
"252 469 OFFCURVE",
"252 419 CURVE SMOOTH",
"252 382 OFFCURVE",
"223 355 OFFCURVE",
"186 355 CURVE SMOOTH",
"153 355 OFFCURVE",
"125 375 OFFCURVE",
"114 400 CURVE"
);
},
{
closed = 1;
nodes = (
"465 75 LINE",
"538 75 OFFCURVE",
"612 76 OFFCURVE",
"672 77 CURVE",
"670 0 LINE",
"772 0 LINE",
"771 77 LINE",
"786 76 OFFCURVE",
"800 75 OFFCURVE",
"816 75 CURVE",
"822 155 LINE",
"772 154 LINE",
"772 428 LINE",
"665 428 LINE",
"465 137 LINE"
);
},
{
closed = 1;
nodes = (
"577 153 LINE",
"610 202 OFFCURVE",
"644 250 OFFCURVE",
"673 299 CURVE",
"675 291 LINE",
"672 275 OFFCURVE",
"671 257 OFFCURVE",
"671 237 CURVE SMOOTH",
"671 230 OFFCURVE",
"672 201 OFFCURVE",
"672 154 CURVE",
"639 154 OFFCURVE",
"614 153 OFFCURVE",
"581 153 CURVE SMOOTH"
);
}
);
width = 849;
}
);
unicode = 00BE;
},
{
glyphname = questiondown;
layers = (
{
hints = (
{
place = "{45, 154}";
type = Stem;
},
{
place = "{177, 184}";
type = Stem;
},
{
place = "{204, 143}";
type = Stem;
},
{
horizontal = 1;
place = "{-83, 133}";
type = Stem;
},
{
horizontal = 1;
place = "{472, 168}";
type = Stem;
}
);
layerId = "61C708DC-9E63-4DDF-9A9E-D605D0F8404A";
paths = (
{
closed = 1;
nodes = (
"361 611 OFFCURVE",
"320 640 OFFCURVE",
"269 640 CURVE SMOOTH",
"218 640 OFFCURVE",
"177 611 OFFCURVE",
"177 556 CURVE SMOOTH",
"177 503 OFFCURVE",
"218 472 OFFCURVE",
"269 472 CURVE SMOOTH",
"320 472 OFFCURVE",
"361 503 OFFCURVE",
"361 556 CURVE SMOOTH"
);
},
{
closed = 1;
nodes = (
"239 50 OFFCURVE",
"199 78 OFFCURVE",
"199 118 CURVE SMOOTH",
"199 154 OFFCURVE",
"227 183 OFFCURVE",
"258 208 CURVE SMOOTH",
"303 245 OFFCURVE",
"347 287 OFFCURVE",
"347 371 CURVE SMOOTH",
"347 420 LINE",
"204 420 LINE",
"204 389 LINE SMOOTH",
"204 338 OFFCURVE",
"190 322 OFFCURVE",
"150 287 CURVE",
"89 239 OFFCURVE",
"45 193 OFFCURVE",
"45 108 CURVE SMOOTH",
"45 -12 OFFCURVE",
"143 -83 OFFCURVE",
"261 -83 CURVE SMOOTH",
"340 -83 OFFCURVE",
"411 -55 OFFCURVE",
"456 4 CURVE",
"456 141 LINE",
"414 93 OFFCURVE",
"352 50 OFFCURVE",
"288 50 CURVE SMOOTH"
);
}
);
width = 503;
}
);
unicode = 00BF;
},
{
glyphname = germandbls;
layers = (
{
hints = (
{
place = "{64, 153}";
type = Stem;
},
{
place = "{403, 151}";
type = Stem;
},
{
place = "{439, 154}";
type = Stem;
},
{
horizontal = 1;
place = "{-4, 113}";
type = Stem;
},
{
horizontal = 1;
place = "{0, 109}";
type = Stem;
},
{
horizontal = 1;
place = "{613, 131}";
type = Stem;
}
);
layerId = "61C708DC-9E63-4DDF-9A9E-D605D0F8404A";
paths = (
{
closed = 1;
nodes = (
"217 495 LINE SMOOTH",
"217 563 OFFCURVE",
"254 613 OFFCURVE",
"316 613 CURVE SMOOTH",
"368 613 OFFCURVE",
"403 580 OFFCURVE",
"403 525 CURVE SMOOTH",
"403 464 OFFCURVE",
"357 430 OFFCURVE",
"301 406 CURVE",
"301 318 LINE",
"384 310 OFFCURVE",
"439 278 OFFCURVE",
"439 212 CURVE SMOOTH",
"439 145 OFFCURVE",
"381 112 OFFCURVE",
"298 109 CURVE",
"298 -3 LINE",
"306 -4 OFFCURVE",
"314 -4 OFFCURVE",
"322 -4 CURVE SMOOTH",
"375 -4 OFFCURVE",
"441 6 OFFCURVE",
"498 39 CURVE SMOOTH",
"554 71 OFFCURVE",
"593 124 OFFCURVE",
"593 199 CURVE SMOOTH",
"593 298 OFFCURVE",
"519 355 OFFCURVE",
"443 376 CURVE",
"506 405 OFFCURVE",
"554 460 OFFCURVE",
"554 544 CURVE SMOOTH",
"554 658 OFFCURVE",
"462 744 OFFCURVE",
"320 744 CURVE SMOOTH",
"149 744 OFFCURVE",
"64 638 OFFCURVE",
"64 493 CURVE SMOOTH",
"64 0 LINE",
"217 0 LINE"
);
}
);
width = 629;
}
);
unicode = 00DF;
},
{
glyphname = divide;
layers = (
{
hints = (
{
horizontal = 1;
place = "{83, 134}";
type = Stem;
},
{
horizontal = 1;
place = "{260, 89}";
type = Stem;
},
{
horizontal = 1;
place = "{392, 135}";
type = Stem;
},
{
place = "{232, 138}";
type = Stem;
}
);
layerId = "61C708DC-9E63-4DDF-9A9E-D605D0F8404A";
paths = (
{
closed = 1;
nodes = (
"370 495 OFFCURVE",
"342 527 OFFCURVE",
"301 527 CURVE SMOOTH",
"261 527 OFFCURVE",
"232 495 OFFCURVE",
"232 459 CURVE SMOOTH",
"232 423 OFFCURVE",
"261 392 OFFCURVE",
"301 392 CURVE SMOOTH",
"342 392 OFFCURVE",
"370 423 OFFCURVE",
"370 459 CURVE SMOOTH"
);
},
{
closed = 1;
nodes = (
"561 349 LINE",
"42 349 LINE",
"42 260 LINE",
"561 260 LINE"
);
},
{
closed = 1;
nodes = (
"370 188 OFFCURVE",
"342 217 OFFCURVE",
"301 217 CURVE SMOOTH",
"261 217 OFFCURVE",
"232 188 OFFCURVE",
"232 151 CURVE SMOOTH",
"232 115 OFFCURVE",
"261 83 OFFCURVE",
"301 83 CURVE SMOOTH",
"342 83 OFFCURVE",
"370 115 OFFCURVE",
"370 151 CURVE SMOOTH"
);
}
);
width = 603;
}
);
unicode = 00F7;
},
{
glyphname = oslash;
layers = (
{
hints = (
{
place = "{48, 145}";
type = Stem;
},
{
place = "{470, 145}";
type = Stem;
},
{
horizontal = 1;
place = "{-13, 124}";
type = Stem;
},
{
horizontal = 1;
place = "{-2, 21}";
target = up;
type = BottomGhost;
},
{
horizontal = 1;
place = "{406, 124}";
type = Stem;
}
);
layerId = "61C708DC-9E63-4DDF-9A9E-D605D0F8404A";
paths = (
{
closed = 1;
nodes = (
"35 -2 LINE",
"93 -58 LINE",
"178 30 LINE",
"221 2 OFFCURVE",
"271 -13 OFFCURVE",
"330 -13 CURVE SMOOTH",
"494 -13 OFFCURVE",
"615 108 OFFCURVE",
"615 259 CURVE SMOOTH",
"615 330 OFFCURVE",
"590 388 OFFCURVE",
"550 435 CURVE",
"622 514 LINE",
"555 568 LINE",
"484 488 LINE",
"441 516 OFFCURVE",
"389 530 OFFCURVE",
"332 530 CURVE SMOOTH",
"168 530 OFFCURVE",
"48 408 OFFCURVE",
"48 259 CURVE SMOOTH",
"48 190 OFFCURVE",
"72 131 OFFCURVE",
"113 83 CURVE"
);
},
{
closed = 1;
nodes = (
"210 188 LINE",
"198 208 OFFCURVE",
"193 231 OFFCURVE",
"193 259 CURVE SMOOTH",
"193 340 OFFCURVE",
"246 406 OFFCURVE",
"331 406 CURVE SMOOTH",
"356 406 OFFCURVE",
"379 400 OFFCURVE",
"396 388 CURVE"
);
},
{
closed = 1;
nodes = (
"453 329 LINE",
"464 309 OFFCURVE",
"470 286 OFFCURVE",
"470 259 CURVE SMOOTH",
"470 176 OFFCURVE",
"415 111 OFFCURVE",
"331 111 CURVE SMOOTH",
"306 111 OFFCURVE",
"286 117 OFFCURVE",
"267 128 CURVE"
);
}
);
width = 660;
}
);
unicode = 00F8;
},
{
glyphname = fraction;
layers = (
{
hints = (
{
horizontal = 1;
place = "{2, 891}";
type = Stem;
},
{
place = "{-67, 573}";
type = Stem;
}
);
layerId = "61C708DC-9E63-4DDF-9A9E-D605D0F8404A";
paths = (
{
closed = 1;
nodes = (
"506 888 LINE",
"380 893 LINE",
"-67 6 LINE",
"59 2 LINE"
);
}
);
width = 439;
}
);
unicode = 2044;
},
{
glyphname = fi;
layers = (
{
hints = (
{
place = "{103, 152}";
type = Stem;
},
{
place = "{427, 183}";
type = Stem;
},
{
place = "{442, 154}";
type = Stem;
},
{
horizontal = 1;
place = "{0, 21}";
target = up;
type = BottomGhost;
},
{
horizontal = 1;
place = "{397, 120}";
type = Stem;
},
{
horizontal = 1;
place = "{584, 169}";
type = Stem;
},
{
horizontal = 1;
place = "{622, 115}";
type = Stem;
}
);
layerId = "61C708DC-9E63-4DDF-9A9E-D605D0F8404A";
paths = (
{
closed = 1;
nodes = (
"427 616 OFFCURVE",
"467 584 OFFCURVE",
"518 584 CURVE SMOOTH",
"570 584 OFFCURVE",
"610 616 OFFCURVE",
"610 668 CURVE SMOOTH",
"610 723 OFFCURVE",
"570 753 OFFCURVE",
"518 753 CURVE SMOOTH",
"467 753 OFFCURVE",
"427 723 OFFCURVE",
"427 668 CURVE SMOOTH"
);
},
{
closed = 1;
nodes = (
"382 723 LINE",
"357 731 OFFCURVE",
"325 737 OFFCURVE",
"285 737 CURVE SMOOTH",
"172 737 OFFCURVE",
"103 683 OFFCURVE",
"103 552 CURVE SMOOTH",
"103 518 LINE",
"15 397 LINE",
"103 397 LINE",
"103 0 LINE",
"255 0 LINE",
"255 397 LINE",
"376 397 LINE",
"376 517 LINE",
"233 517 LINE",
"233 550 LINE SMOOTH",
"233 598 OFFCURVE",
"270 622 OFFCURVE",
"314 622 CURVE SMOOTH",
"335 622 OFFCURVE",
"362 618 OFFCURVE",
"382 611 CURVE"
);
},
{
closed = 1;
nodes = (
"596 521 LINE",
"442 521 LINE",
"442 0 LINE",
"596 0 LINE"
);
}
);
width = 674;
}
);
unicode = FB01;
},
{
glyphname = fl;
layers = (
{
hints = (
{
horizontal = 1;
place = "{0, 21}";
target = up;
type = BottomGhost;
},
{
horizontal = 1;
place = "{397, 120}";
type = Stem;
},
{
horizontal = 1;
place = "{622, 115}";
type = Stem;
},
{
place = "{103, 152}";
type = Stem;
},
{
place = "{436, 154}";
type = Stem;
}
);
layerId = "61C708DC-9E63-4DDF-9A9E-D605D0F8404A";
paths = (
{
closed = 1;
nodes = (
"382 723 LINE",
"357 731 OFFCURVE",
"325 737 OFFCURVE",
"285 737 CURVE SMOOTH",
"172 737 OFFCURVE",
"103 683 OFFCURVE",
"103 552 CURVE SMOOTH",
"103 518 LINE",
"15 397 LINE",
"103 397 LINE",
"103 0 LINE",
"255 0 LINE",
"255 397 LINE",
"376 397 LINE",
"376 517 LINE",
"233 517 LINE",
"233 550 LINE SMOOTH",
"233 598 OFFCURVE",
"270 622 OFFCURVE",
"314 622 CURVE SMOOTH",
"335 622 OFFCURVE",
"362 618 OFFCURVE",
"382 611 CURVE"
);
},
{
closed = 1;
nodes = (
"590 731 LINE",
"436 731 LINE",
"436 0 LINE",
"590 0 LINE"
);
}
);
width = 654;
}
);
unicode = FB02;
},
{
glyphname = breve;
layers = (
{
hints = (
{
horizontal = 1;
place = "{550, 100}";
type = Stem;
},
{
place = "{12, 326}";
type = Stem;
}
);
layerId = "61C708DC-9E63-4DDF-9A9E-D605D0F8404A";
paths = (
{
closed = 1;
nodes = (
"251 718 LINE",
"239 675 OFFCURVE",
"212 650 OFFCURVE",
"177 650 CURVE SMOOTH",
"141 650 OFFCURVE",
"112 675 OFFCURVE",
"100 718 CURVE",
"12 718 LINE",
"23 617 OFFCURVE",
"85 550 OFFCURVE",
"174 550 CURVE SMOOTH",
"264 550 OFFCURVE",
"330 617 OFFCURVE",
"338 718 CURVE"
);
}
);
width = 350;
}
);
unicode = 02D8;
},
{
glyphname = dotaccent;
layers = (
{
hints = (
{
horizontal = 1;
place = "{558, 136}";
type = Stem;
},
{
place = "{55, 137}";
type = Stem;
}
);
layerId = "61C708DC-9E63-4DDF-9A9E-D605D0F8404A";
paths = (
{
closed = 1;
nodes = (
"192 666 OFFCURVE",
"158 694 OFFCURVE",
"123 694 CURVE SMOOTH",
"88 694 OFFCURVE",
"55 666 OFFCURVE",
"55 627 CURVE SMOOTH",
"55 586 OFFCURVE",
"88 558 OFFCURVE",
"123 558 CURVE SMOOTH",
"158 558 OFFCURVE",
"192 586 OFFCURVE",
"192 627 CURVE SMOOTH"
);
}
);
width = 307;
}
);
unicode = 02D9;
},
{
glyphname = ring;
layers = (
{
hints = (
{
horizontal = 1;
place = "{540, 79}";
type = Stem;
},
{
horizontal = 1;
place = "{688, 79}";
type = Stem;
},
{
place = "{70, 82}";
type = Stem;
},
{
place = "{221, 82}";
type = Stem;
}
);
layerId = "61C708DC-9E63-4DDF-9A9E-D605D0F8404A";
paths = (
{
closed = 1;
nodes = (
"303 716 OFFCURVE",
"250 767 OFFCURVE",
"186 767 CURVE SMOOTH",
"125 767 OFFCURVE",
"70 717 OFFCURVE",
"70 653 CURVE SMOOTH",
"70 590 OFFCURVE",
"125 540 OFFCURVE",
"186 540 CURVE SMOOTH",
"250 540 OFFCURVE",
"303 589 OFFCURVE",
"303 653 CURVE SMOOTH"
);
},
{
closed = 1;
nodes = (
"221 633 OFFCURVE",
"207 619 OFFCURVE",
"186 619 CURVE SMOOTH",
"167 619 OFFCURVE",
"152 633 OFFCURVE",
"152 654 CURVE SMOOTH",
"152 673 OFFCURVE",
"166 688 OFFCURVE",
"186 688 CURVE SMOOTH",
"207 688 OFFCURVE",
"221 673 OFFCURVE",
"221 653 CURVE SMOOTH"
);
}
);
width = 378;
}
);
unicode = 02DA;
},
{
glyphname = hungarumlaut;
layers = (
{
hints = (
{
place = "{0, 461}";
type = Stem;
},
{
horizontal = 1;
place = "{545, 156}";
type = Stem;
},
{
horizontal = 1;
place = "{701, -20}";
target = down;
type = TopGhost;
}
);
layerId = "61C708DC-9E63-4DDF-9A9E-D605D0F8404A";
paths = (
{
closed = 1;
nodes = (
"255 701 LINE",
"123 726 LINE",
"0 545 LINE",
"108 545 LINE"
);
},
{
closed = 1;
nodes = (
"461 701 LINE",
"328 726 LINE",
"206 545 LINE",
"313 545 LINE"
);
}
);
width = 404;
}
);
unicode = 02DD;
},
{
glyphname = ogonek;
layers = (
{
hints = (
{
horizontal = 1;
place = "{-176, 224}";
type = Stem;
},
{
place = "{46, 105}";
type = Stem;
}
);
layerId = "61C708DC-9E63-4DDF-9A9E-D605D0F8404A";
paths = (
{
closed = 1;
nodes = (
"242 -77 LINE",
"217 -86 OFFCURVE",
"202 -90 OFFCURVE",
"190 -90 CURVE SMOOTH",
"167 -90 OFFCURVE",
"151 -78 OFFCURVE",
"151 -55 CURVE SMOOTH",
"151 -37 OFFCURVE",
"162 -8 OFFCURVE",
"208 48 CURVE",
"104 48 LINE",
"76 15 OFFCURVE",
"46 -25 OFFCURVE",
"46 -72 CURVE SMOOTH",
"46 -137 OFFCURVE",
"98 -176 OFFCURVE",
"169 -176 CURVE SMOOTH",
"198 -176 OFFCURVE",
"229 -169 OFFCURVE",
"261 -153 CURVE"
);
}
);
width = 306;
}
);
unicode = 02DB;
},
{
glyphname = caron;
layers = (
{
hints = (
{
horizontal = 1;
place = "{545, 173}";
type = Stem;
},
{
place = "{-1, 360}";
type = Stem;
}
);
layerId = "61C708DC-9E63-4DDF-9A9E-D605D0F8404A";
paths = (
{
closed = 1;
nodes = (
"244 718 LINE",
"181 647 LINE",
"117 718 LINE",
"-1 718 LINE",
"134 545 LINE",
"226 545 LINE",
"359 718 LINE"
);
}
);
width = 359;
}
);
unicode = 02C7;
},
{
glyphname = dotlessi;
layers = (
{
hints = (
{
horizontal = 1;
place = "{0, 21}";
target = up;
type = BottomGhost;
},
{
place = "{64, 154}";
type = Stem;
}
);
layerId = "61C708DC-9E63-4DDF-9A9E-D605D0F8404A";
paths = (
{
closed = 1;
nodes = (
"218 521 LINE",
"64 521 LINE",
"64 0 LINE",
"218 0 LINE"
);
}
);
width = 282;
}
);
unicode = 0131;
},
{
glyphname = greaterequal;
layers = (
{
hints = (
{
horizontal = 1;
place = "{3, 101}";
type = Stem;
},
{
place = "{62, 514}";
type = Stem;
}
);
layerId = "61C708DC-9E63-4DDF-9A9E-D605D0F8404A";
paths = (
{
closed = 1;
nodes = (
"576 332 LINE",
"576 424 LINE",
"62 618 LINE",
"62 508 LINE",
"409 378 LINE",
"62 251 LINE",
"62 139 LINE"
);
},
{
closed = 1;
nodes = (
"576 3 LINE",
"576 104 LINE",
"62 104 LINE",
"62 3 LINE"
);
}
);
width = 637;
}
);
unicode = 2265;
},
{
glyphname = radical;
layers = (
{
hints = (
{
horizontal = 1;
place = "{-210, 993}";
type = Stem;
},
{
place = "{23, 538}";
type = Stem;
}
);
layerId = "61C708DC-9E63-4DDF-9A9E-D605D0F8404A";
paths = (
{
closed = 1;
nodes = (
"561 783 LINE",
"449 783 LINE",
"285 -31 LINE",
"161 230 LINE",
"23 169 LINE",
"66 78 LINE",
"108 98 LINE",
"256 -210 LINE",
"357 -210 LINE"
);
}
);
width = 538;
}
);
unicode = 221A;
},
{
glyphname = notequal;
layers = (
{
hints = (
{
horizontal = 1;
place = "{105, 102}";
type = Stem;
},
{
horizontal = 1;
place = "{295, 104}";
type = Stem;
},
{
place = "{42, 521}";
type = Stem;
}
);
layerId = "61C708DC-9E63-4DDF-9A9E-D605D0F8404A";
paths = (
{
closed = 1;
nodes = (
"557 105 LINE",
"557 207 LINE",
"337 207 LINE",
"382 295 LINE",
"563 295 LINE",
"563 399 LINE",
"438 399 LINE",
"485 488 LINE",
"393 539 LINE",
"319 399 LINE",
"48 399 LINE",
"48 295 LINE",
"264 295 LINE",
"219 207 LINE",
"42 207 LINE",
"42 105 LINE",
"165 105 LINE",
"117 17 LINE",
"209 -32 LINE",
"281 105 LINE"
);
}
);
width = 605;
}
);
unicode = 2260;
},
{
glyphname = product;
layers = (
{
hints = (
{
horizontal = 1;
place = "{679, 104}";
type = Stem;
},
{
place = "{11, 111}";
type = Stem;
},
{
place = "{479, 111}";
type = Stem;
}
);
layerId = "61C708DC-9E63-4DDF-9A9E-D605D0F8404A";
paths = (
{
closed = 1;
nodes = (
"590 -210 LINE",
"590 783 LINE",
"11 783 LINE",
"11 -210 LINE",
"122 -210 LINE",
"122 679 LINE",
"479 679 LINE",
"479 -210 LINE"
);
}
);
width = 602;
}
);
unicode = 220F;
},
{
glyphname = summation;
layers = (
{
hints = (
{
horizontal = 1;
place = "{-210, 104}";
type = Stem;
},
{
horizontal = 1;
place = "{680, 104}";
type = Stem;
},
{
place = "{15, 567}";
type = Stem;
}
);
layerId = "61C708DC-9E63-4DDF-9A9E-D605D0F8404A";
paths = (
{
closed = 1;
nodes = (
"582 -210 LINE",
"582 -106 LINE",
"161 -106 LINE",
"450 293 LINE",
"177 680 LINE",
"571 680 LINE",
"571 784 LINE",
"27 784 LINE",
"27 702 LINE",
"316 294 LINE",
"15 -128 LINE",
"15 -210 LINE"
);
}
);
width = 587;
}
);
unicode = 2211;
},
{
glyphname = lessequal;
layers = (
{
hints = (
{
horizontal = 1;
place = "{2, 101}";
type = Stem;
},
{
place = "{62, 514}";
type = Stem;
}
);
layerId = "61C708DC-9E63-4DDF-9A9E-D605D0F8404A";
paths = (
{
closed = 1;
nodes = (
"576 139 LINE",
"576 251 LINE",
"233 377 LINE",
"576 508 LINE",
"576 618 LINE",
"62 424 LINE",
"62 332 LINE"
);
},
{
closed = 1;
nodes = (
"576 2 LINE",
"576 103 LINE",
"62 103 LINE",
"62 2 LINE"
);
}
);
width = 637;
}
);
unicode = 2264;
},
{
glyphname = uni02C9;
layers = (
{
hints = (
{
horizontal = 1;
place = "{744, 98}";
type = Stem;
},
{
place = "{-15, 300}";
type = Stem;
}
);
layerId = "61C708DC-9E63-4DDF-9A9E-D605D0F8404A";
paths = (
{
closed = 1;
nodes = (
"285 842 LINE",
"-15 842 LINE",
"-15 744 LINE",
"285 744 LINE"
);
}
);
width = 277;
}
);
unicode = 02C9;
},
{
glyphname = lozenge;
layers = (
{
hints = (
{
horizontal = 1;
place = "{-34, 779}";
type = Stem;
},
{
place = "{42, 429}";
type = Stem;
}
);
layerId = "61C708DC-9E63-4DDF-9A9E-D605D0F8404A";
paths = (
{
closed = 1;
nodes = (
"471 355 LINE",
"301 745 LINE",
"210 745 LINE",
"42 355 LINE",
"210 -34 LINE",
"301 -34 LINE"
);
},
{
closed = 1;
nodes = (
"357 355 LINE",
"256 115 LINE",
"155 356 LINE",
"256 594 LINE"
);
}
);
width = 513;
}
);
unicode = 25CA;
},
{
glyphname = minus;
layers = (
{
hints = (
{
horizontal = 1;
place = "{254, 102}";
type = Stem;
},
{
place = "{42, 523}";
type = Stem;
}
);
layerId = "61C708DC-9E63-4DDF-9A9E-D605D0F8404A";
paths = (
{
closed = 1;
nodes = (
"565 356 LINE",
"42 356 LINE",
"42 254 LINE",
"565 254 LINE"
);
}
);
width = 607;
}
);
unicode = 2212;
},
{
glyphname = uni2215;
layers = (
{
hints = (
{
horizontal = 1;
place = "{-30, 918}";
type = Stem;
},
{
place = "{-161, 548}";
type = Stem;
}
);
layerId = "61C708DC-9E63-4DDF-9A9E-D605D0F8404A";
paths = (
{
closed = 1;
nodes = (
"387 837 LINE",
"283 888 LINE",
"-161 21 LINE",
"-58 -30 LINE"
);
}
);
width = 244;
}
);
unicode = 2215;
},
{
glyphname = approxequal;
layers = (
{
hints = (
{
place = "{474, 89}";
type = Stem;
},
{
horizontal = 1;
place = "{68, 102}";
type = Stem;
},
{
horizontal = 1;
place = "{137, 102}";
type = Stem;
},
{
horizontal = 1;
place = "{266, 102}";
type = Stem;
},
{
horizontal = 1;
place = "{335, 102}";
type = Stem;
}
);
layerId = "61C708DC-9E63-4DDF-9A9E-D605D0F8404A";
paths = (
{
closed = 1;
nodes = (
"474 444 LINE",
"466 397 OFFCURVE",
"451 368 OFFCURVE",
"412 368 CURVE SMOOTH",
"344 368 OFFCURVE",
"254 437 OFFCURVE",
"169 437 CURVE SMOOTH",
"70 437 OFFCURVE",
"33 348 OFFCURVE",
"20 260 CURVE",
"111 260 LINE",
"118 299 OFFCURVE",
"133 335 OFFCURVE",
"177 335 CURVE SMOOTH",
"238 335 OFFCURVE",
"329 266 OFFCURVE",
"417 266 CURVE SMOOTH",
"518 266 OFFCURVE",
"555 358 OFFCURVE",
"563 444 CURVE"
);
},
{
closed = 1;
nodes = (
"474 245 LINE",
"466 200 OFFCURVE",
"451 170 OFFCURVE",
"412 170 CURVE SMOOTH",
"344 170 OFFCURVE",
"254 239 OFFCURVE",
"169 239 CURVE SMOOTH",
"71 239 OFFCURVE",
"33 150 OFFCURVE",
"20 61 CURVE",
"111 61 LINE",
"118 101 OFFCURVE",
"133 137 OFFCURVE",
"177 137 CURVE SMOOTH",
"238 137 OFFCURVE",
"329 68 OFFCURVE",
"417 68 CURVE SMOOTH",
"519 68 OFFCURVE",
"555 160 OFFCURVE",
"563 245 CURVE"
);
}
);
width = 581;
}
);
unicode = 2248;
},
{
glyphname = integral;
layers = (
{
hints = (
{
horizontal = 1;
place = "{-210, 120}";
type = Stem;
},
{
horizontal = 1;
place = "{658, 125}";
type = Stem;
},
{
place = "{117, 112}";
type = Stem;
}
);
layerId = "61C708DC-9E63-4DDF-9A9E-D605D0F8404A";
paths = (
{
closed = 1;
nodes = (
"94 -101 OFFCURVE",
"84 -90 OFFCURVE",
"65 -90 CURVE SMOOTH",
"36 -90 OFFCURVE",
"11 -114 OFFCURVE",
"11 -143 CURVE SMOOTH",
"11 -191 OFFCURVE",
"68 -210 OFFCURVE",
"106 -210 CURVE SMOOTH",
"231 -210 OFFCURVE",
"229 -51 OFFCURVE",
"229 38 CURVE SMOOTH",
"229 605 LINE SMOOTH",
"229 625 OFFCURVE",
"231 663 OFFCURVE",
"239 680 CURVE",
"254 670 OFFCURVE",
"267 658 OFFCURVE",
"288 658 CURVE SMOOTH",
"321 658 OFFCURVE",
"345 681 OFFCURVE",
"345 713 CURVE SMOOTH",
"345 765 OFFCURVE",
"292 783 OFFCURVE",
"248 783 CURVE SMOOTH",
"140 783 OFFCURVE",
"117 660 OFFCURVE",
"117 575 CURVE SMOOTH",
"117 8 LINE SMOOTH",
"117 -27 OFFCURVE",
"120 -82 OFFCURVE",
"107 -111 CURVE"
);
}
);
width = 354;
}
);
unicode = 222B;
},
{
glyphname = uni2113;
layers = (
{
hints = (
{
horizontal = 1;
place = "{-13, 93}";
type = Stem;
},
{
horizontal = 1;
place = "{626, 89}";
type = Stem;
},
{
place = "{125, 109}";
type = Stem;
},
{
place = "{289, 100}";
type = Stem;
}
);
layerId = "61C708DC-9E63-4DDF-9A9E-D605D0F8404A";
paths = (
{
closed = 1;
nodes = (
"366 128 LINE",
"326 95 OFFCURVE",
"301 80 OFFCURVE",
"278 80 CURVE SMOOTH",
"261 80 OFFCURVE",
"239 90 OFFCURVE",
"235 126 CURVE",
"235 130 OFFCURVE",
"234 133 OFFCURVE",
"234 137 CURVE SMOOTH",
"234 264 LINE",
"323 363 OFFCURVE",
"385 466 OFFCURVE",
"389 562 CURVE",
"389 571 OFFCURVE",
"388 580 OFFCURVE",
"388 588 CURVE",
"380 667 OFFCURVE",
"333 715 OFFCURVE",
"265 715 CURVE SMOOTH",
"185 715 OFFCURVE",
"125 651 OFFCURVE",
"125 531 CURVE SMOOTH",
"125 293 LINE",
"39 209 LINE",
"91 141 LINE",
"125 174 LINE",
"125 136 LINE SMOOTH",
"125 127 OFFCURVE",
"125 118 OFFCURVE",
"126 107 CURVE SMOOTH",
"134 27 OFFCURVE",
"188 -13 OFFCURVE",
"263 -13 CURVE SMOOTH",
"311 -13 OFFCURVE",
"354 3 OFFCURVE",
"414 52 CURVE",
"415 52 LINE"
);
},
{
closed = 1;
nodes = (
"289 522 OFFCURVE",
"273 446 OFFCURVE",
"234 391 CURVE",
"234 542 LINE SMOOTH",
"234 601 OFFCURVE",
"249 626 OFFCURVE",
"265 626 CURVE SMOOTH",
"280 626 OFFCURVE",
"289 602 OFFCURVE",
"289 567 CURVE SMOOTH"
);
}
);
width = 465;
}
);
unicode = 2113;
},
{
glyphname = partialdiff;
layers = (
{
hints = (
{
horizontal = 1;
place = "{-11, 96}";
type = Stem;
},
{
horizontal = 1;
place = "{343, 99}";
type = Stem;
},
{
horizontal = 1;
place = "{619, 99}";
type = Stem;
},
{
place = "{24, 108}";
type = Stem;
},
{
place = "{359, 108}";
type = Stem;
}
);
layerId = "61C708DC-9E63-4DDF-9A9E-D605D0F8404A";
paths = (
{
closed = 1;
nodes = (
"467 516 OFFCURVE",
"410 718 OFFCURVE",
"218 718 CURVE SMOOTH",
"153 718 OFFCURVE",
"98 694 OFFCURVE",
"46 641 CURVE",
"110 568 LINE",
"143 603 OFFCURVE",
"177 619 OFFCURVE",
"217 619 CURVE SMOOTH",
"327 619 OFFCURVE",
"356 488 OFFCURVE",
"359 395 CURVE",
"323 424 OFFCURVE",
"279 442 OFFCURVE",
"228 442 CURVE SMOOTH",
"99 442 OFFCURVE",
"24 343 OFFCURVE",
"24 220 CURVE SMOOTH",
"24 99 OFFCURVE",
"101 -11 OFFCURVE",
"233 -11 CURVE SMOOTH",
"434 -11 OFFCURVE",
"467 214 OFFCURVE",
"467 361 CURVE SMOOTH"
);
},
{
closed = 1;
nodes = (
"349 199 OFFCURVE",
"319 85 OFFCURVE",
"234 85 CURVE SMOOTH",
"165 85 OFFCURVE",
"132 156 OFFCURVE",
"132 218 CURVE SMOOTH",
"132 285 OFFCURVE",
"167 343 OFFCURVE",
"234 343 CURVE SMOOTH",
"282 343 OFFCURVE",
"323 312 OFFCURVE",
"354 275 CURVE"
);
}
);
width = 500;
}
);
unicode = 2202;
},
{
glyphname = uni2206;
layers = (
{
hints = (
{
horizontal = 1;
place = "{0, 134}";
type = Stem;
},
{
horizontal = 1;
place = "{710, -20}";
target = down;
type = TopGhost;
},
{
place = "{18, 733}";
type = Stem;
}
);
layerId = "61C708DC-9E63-4DDF-9A9E-D605D0F8404A";
paths = (
{
closed = 1;
nodes = (
"751 0 LINE",
"460 710 LINE",
"307 710 LINE",
"18 0 LINE"
);
},
{
closed = 1;
nodes = (
"532 134 LINE",
"233 134 LINE",
"266 222 LINE SMOOTH",
"303 324 OFFCURVE",
"354 458 OFFCURVE",
"382 528 CURVE"
);
}
);
width = 771;
}
);
unicode = 2206;
},
{
glyphname = infinity;
layers = (
{
hints = (
{
horizontal = 1;
place = "{97, 100}";
type = Stem;
},
{
horizontal = 1;
place = "{317, 100}";
type = Stem;
},
{
place = "{28, 103}";
type = Stem;
},
{
place = "{589, 103}";
type = Stem;
}
);
layerId = "61C708DC-9E63-4DDF-9A9E-D605D0F8404A";
paths = (
{
closed = 1;
nodes = (
"692 348 OFFCURVE",
"630 417 OFFCURVE",
"538 417 CURVE SMOOTH",
"462 417 OFFCURVE",
"409 372 OFFCURVE",
"360 320 CURVE",
"317 365 OFFCURVE",
"256 416 OFFCURVE",
"181 416 CURVE SMOOTH",
"89 416 OFFCURVE",
"28 343 OFFCURVE",
"28 254 CURVE SMOOTH",
"28 165 OFFCURVE",
"92 97 OFFCURVE",
"183 97 CURVE SMOOTH",
"256 97 OFFCURVE",
"308 140 OFFCURVE",
"358 187 CURVE",
"410 143 OFFCURVE",
"464 97 OFFCURVE",
"540 97 CURVE SMOOTH",
"631 97 OFFCURVE",
"692 167 OFFCURVE",
"692 256 CURVE SMOOTH"
);
},
{
closed = 1;
nodes = (
"589 221 OFFCURVE",
"570 197 OFFCURVE",
"537 197 CURVE SMOOTH",
"498 197 OFFCURVE",
"462 225 OFFCURVE",
"431 253 CURVE",
"457 279 OFFCURVE",
"498 317 OFFCURVE",
"536 317 CURVE SMOOTH",
"571 317 OFFCURVE",
"589 290 OFFCURVE",
"589 254 CURVE SMOOTH"
);
},
{
closed = 1;
nodes = (
"260 227 OFFCURVE",
"221 197 OFFCURVE",
"184 197 CURVE SMOOTH",
"151 197 OFFCURVE",
"131 220 OFFCURVE",
"131 255 CURVE SMOOTH",
"131 287 OFFCURVE",
"148 316 OFFCURVE",
"181 316 CURVE SMOOTH",
"220 316 OFFCURVE",
"263 278 OFFCURVE",
"290 254 CURVE"
);
}
);
width = 722;
}
);
unicode = 221E;
},
{
glyphname = uni2126;
layers = (
{
hints = (
{
horizontal = 1;
place = "{0, 132}";
type = Stem;
},
{
horizontal = 1;
place = "{578, 140}";
type = Stem;
},
{
place = "{36, 160}";
type = Stem;
},
{
place = "{595, 160}";
type = Stem;
}
);
layerId = "61C708DC-9E63-4DDF-9A9E-D605D0F8404A";
paths = (
{
closed = 1;
nodes = (
"755 0 LINE",
"755 132 LINE",
"619 132 LINE",
"612 152 LINE",
"697 195 OFFCURVE",
"755 292 OFFCURVE",
"755 400 CURVE SMOOTH",
"755 591 OFFCURVE",
"606 718 OFFCURVE",
"396 718 CURVE SMOOTH",
"186 718 OFFCURVE",
"36 591 OFFCURVE",
"36 400 CURVE SMOOTH",
"36 295 OFFCURVE",
"89 194 OFFCURVE",
"179 152 CURVE",
"173 132 LINE",
"35 132 LINE",
"35 0 LINE",
"352 0 LINE",
"352 174 LINE",
"245 198 OFFCURVE",
"196 289 OFFCURVE",
"196 381 CURVE SMOOTH",
"196 487 OFFCURVE",
"273 578 OFFCURVE",
"396 578 CURVE SMOOTH",
"520 578 OFFCURVE",
"595 488 OFFCURVE",
"595 381 CURVE SMOOTH",
"595 289 OFFCURVE",
"546 198 OFFCURVE",
"439 174 CURVE",
"439 0 LINE"
);
}
);
width = 790;
}
);
unicode = 2126;
},
{
glyphname = uni2219;
layers = (
{
hints = (
{
horizontal = 1;
place = "{242, 148}";
type = Stem;
},
{
place = "{42, 148}";
type = Stem;
}
);
layerId = "61C708DC-9E63-4DDF-9A9E-D605D0F8404A";
paths = (
{
closed = 1;
nodes = (
"190 355 OFFCURVE",
"163 390 OFFCURVE",
"116 390 CURVE SMOOTH",
"72 390 OFFCURVE",
"42 355 OFFCURVE",
"42 315 CURVE SMOOTH",
"42 278 OFFCURVE",
"72 242 OFFCURVE",
"116 242 CURVE SMOOTH",
"163 242 OFFCURVE",
"190 278 OFFCURVE",
"190 315 CURVE SMOOTH"
);
}
);
width = 241;
}
);
unicode = 2219;
},
{
glyphname = estimated;
layers = (
{
hints = (
{
horizontal = 1;
place = "{-16, 81}";
type = Stem;
},
{
horizontal = 1;
place = "{241, 81}";
type = Stem;
},
{
horizontal = 1;
place = "{464, 80}";
type = Stem;
},
{
place = "{37, 154}";
type = Stem;
},
{
place = "{413, 155}";
type = Stem;
}
);
layerId = "61C708DC-9E63-4DDF-9A9E-D605D0F8404A";
paths = (
{
closed = 1;
nodes = (
"568 241 LINE",
"568 421 OFFCURVE",
"459 544 OFFCURVE",
"302 544 CURVE SMOOTH",
"142 544 OFFCURVE",
"37 421 OFFCURVE",
"37 265 CURVE SMOOTH",
"37 109 OFFCURVE",
"142 -16 OFFCURVE",
"302 -16 CURVE SMOOTH",
"409 -16 OFFCURVE",
"479 32 OFFCURVE",
"549 142 CURVE",
"472 187 LINE",
"421 99 OFFCURVE",
"369 65 OFFCURVE",
"302 65 CURVE SMOOTH",
"258 65 OFFCURVE",
"222 80 OFFCURVE",
"191 107 CURVE",
"191 241 LINE"
);
},
{
closed = 1;
nodes = (
"191 322 LINE",
"191 424 LINE",
"223 451 OFFCURVE",
"261 464 OFFCURVE",
"301 464 CURVE SMOOTH",
"344 464 OFFCURVE",
"380 451 OFFCURVE",
"413 423 CURVE",
"413 322 LINE"
);
}
);
width = 605;
}
);
unicode = 212E;
},
{
glyphname = exclam;
layers = (
{
hints = (
{
place = "{47, 183}";
type = Stem;
},
{
place = "{51, 175}";
type = Stem;
},
{
horizontal = 1;
place = "{-12, 168}";
type = Stem;
},
{
horizontal = 1;
place = "{702, -20}";
target = down;
type = TopGhost;
}
);
layerId = "61C708DC-9E63-4DDF-9A9E-D605D0F8404A";
paths = (
{
closed = 1;
nodes = (
"50 702 LINE",
"52 617 LINE",
"96 220 LINE",
"181 220 LINE",
"226 617 LINE",
"227 702 LINE"
);
},
{
closed = 1;
nodes = (
"47 18 OFFCURVE",
"87 -12 OFFCURVE",
"138 -12 CURVE SMOOTH",
"190 -12 OFFCURVE",
"230 18 OFFCURVE",
"230 73 CURVE SMOOTH",
"230 125 OFFCURVE",
"190 156 OFFCURVE",
"138 156 CURVE SMOOTH",
"87 156 OFFCURVE",
"47 125 OFFCURVE",
"47 73 CURVE SMOOTH"
);
}
);
width = 278;
}
);
unicode = 0021;
},
{
glyphname = Alpha;
layers = (
{
hints = (
{
horizontal = 1;
place = "{0, 21}";
target = up;
type = BottomGhost;
},
{
horizontal = 1;
place = "{149, 126}";
type = Stem;
},
{
horizontal = 1;
place = "{705, -20}";
target = down;
type = TopGhost;
},
{
place = "{19, 751}";
type = Stem;
}
);
layerId = "61C708DC-9E63-4DDF-9A9E-D605D0F8404A";
paths = (
{
closed = 1;
nodes = (
"538 149 LINE",
"600 0 LINE",
"770 0 LINE",
"468 705 LINE",
"320 705 LINE",
"19 0 LINE",
"185 0 LINE",
"247 149 LINE"
);
},
{
closed = 1;
nodes = (
"393 519 LINE",
"490 275 LINE",
"295 275 LINE"
);
}
);
width = 794;
}
);
unicode = 0391;
},
{
glyphname = Epsilon;
layers = (
{
hints = (
{
horizontal = 1;
place = "{0, 135}";
type = Stem;
},
{
horizontal = 1;
place = "{291, 127}";
type = Stem;
},
{
horizontal = 1;
place = "{566, 136}";
type = Stem;
},
{
place = "{70, 157}";
type = Stem;
}
);
layerId = "61C708DC-9E63-4DDF-9A9E-D605D0F8404A";
paths = (
{
closed = 1;
nodes = (
"227 291 LINE",
"566 291 LINE",
"566 418 LINE",
"227 418 LINE",
"227 566 LINE",
"599 566 LINE",
"599 702 LINE",
"70 702 LINE",
"70 0 LINE",
"606 0 LINE",
"606 135 LINE",
"227 135 LINE"
);
}
);
width = 645;
}
);
unicode = 0395;
},
{
glyphname = Eta;
layers = (
{
hints = (
{
horizontal = 1;
place = "{0, 21}";
target = up;
type = BottomGhost;
},
{
horizontal = 1;
place = "{284, 141}";
type = Stem;
},
{
horizontal = 1;
place = "{702, -20}";
target = down;
type = TopGhost;
},
{
place = "{70, 157}";
type = Stem;
},
{
place = "{521, 157}";
type = Stem;
}
);
layerId = "61C708DC-9E63-4DDF-9A9E-D605D0F8404A";
paths = (
{
closed = 1;
nodes = (
"70 0 LINE",
"227 0 LINE",
"227 284 LINE",
"521 284 LINE",
"521 0 LINE",
"678 0 LINE",
"678 702 LINE",
"521 702 LINE",
"521 425 LINE",
"227 425 LINE",
"227 702 LINE",
"70 702 LINE"
);
}
);
width = 747;
}
);
unicode = 0397;
},
{
glyphname = Iota;
layers = (
{
hints = (
{
horizontal = 1;
place = "{0, 21}";
target = up;
type = BottomGhost;
},
{
horizontal = 1;
place = "{702, -20}";
target = down;
type = TopGhost;
},
{
place = "{70, 158}";
type = Stem;
}
);
layerId = "61C708DC-9E63-4DDF-9A9E-D605D0F8404A";
paths = (
{
closed = 1;
nodes = (
"228 702 LINE",
"70 702 LINE",
"70 0 LINE",
"228 0 LINE"
);
}
);
width = 297;
}
);
unicode = 0399;
},
{
glyphname = Kappa;
layers = (
{
hints = (
{
horizontal = 1;
place = "{0, 21}";
target = up;
type = BottomGhost;
},
{
horizontal = 1;
place = "{702, -20}";
target = down;
type = TopGhost;
},
{
place = "{70, 157}";
type = Stem;
}
);
layerId = "61C708DC-9E63-4DDF-9A9E-D605D0F8404A";
paths = (
{
closed = 1;
nodes = (
"227 702 LINE",
"70 702 LINE",
"70 0 LINE",
"227 0 LINE",
"227 355 LINE",
"490 0 LINE",
"682 0 LINE",
"389 391 LINE",
"666 702 LINE",
"477 702 LINE",
"227 414 LINE"
);
}
);
width = 678;
}
);
unicode = 039A;
},
{
glyphname = Mu;
layers = (
{
hints = (
{
horizontal = 1;
place = "{0, 21}";
target = up;
type = BottomGhost;
},
{
place = "{54, 154}";
type = Stem;
},
{
place = "{631, 157}";
type = Stem;
}
);
layerId = "61C708DC-9E63-4DDF-9A9E-D605D0F8404A";
paths = (
{
closed = 1;
nodes = (
"419 136 LINE",
"631 456 LINE",
"631 0 LINE",
"788 0 LINE",
"788 700 LINE",
"624 700 LINE",
"421 379 LINE",
"218 700 LINE",
"54 700 LINE",
"54 0 LINE",
"208 0 LINE",
"208 455 LINE"
);
}
);
width = 842;
}
);
unicode = 039C;
},
{
glyphname = Nu;
layers = (
{
hints = (
{
horizontal = 1;
place = "{0, 21}";
target = up;
type = BottomGhost;
},
{
horizontal = 1;
place = "{702, -20}";
target = down;
type = TopGhost;
},
{
place = "{70, 155}";
type = Stem;
},
{
place = "{551, 155}";
type = Stem;
}
);
layerId = "61C708DC-9E63-4DDF-9A9E-D605D0F8404A";
paths = (
{
closed = 1;
nodes = (
"219 700 LINE",
"70 700 LINE",
"70 0 LINE",
"225 0 LINE",
"225 448 LINE",
"565 0 LINE",
"706 0 LINE",
"706 702 LINE",
"551 702 LINE",
"551 262 LINE"
);
}
);
width = 776;
}
);
unicode = 039D;
},
{
glyphname = Omicron;
layers = (
{
hints = (
{
horizontal = 1;
place = "{-14, 142}";
type = Stem;
},
{
horizontal = 1;
place = "{573, 143}";
type = Stem;
},
{
place = "{37, 161}";
type = Stem;
},
{
place = "{621, 162}";
type = Stem;
}
);
layerId = "61C708DC-9E63-4DDF-9A9E-D605D0F8404A";
paths = (
{
closed = 1;
nodes = (
"783 552 OFFCURVE",
"624 716 OFFCURVE",
"411 716 CURVE SMOOTH",
"195 716 OFFCURVE",
"37 552 OFFCURVE",
"37 350 CURVE SMOOTH",
"37 149 OFFCURVE",
"195 -14 OFFCURVE",
"409 -14 CURVE SMOOTH",
"623 -14 OFFCURVE",
"783 150 OFFCURVE",
"783 353 CURVE SMOOTH"
);
},
{
closed = 1;
nodes = (
"621 231 OFFCURVE",
"535 128 OFFCURVE",
"410 128 CURVE SMOOTH",
"285 128 OFFCURVE",
"198 230 OFFCURVE",
"198 353 CURVE SMOOTH",
"198 473 OFFCURVE",
"284 573 OFFCURVE",
"410 573 CURVE SMOOTH",
"534 573 OFFCURVE",
"621 471 OFFCURVE",
"621 350 CURVE SMOOTH"
);
}
);
width = 820;
}
);
unicode = 039F;
},
{
glyphname = Chi;
layers = (
{
hints = (
{
horizontal = 1;
place = "{0, 21}";
target = up;
type = BottomGhost;
},
{
horizontal = 1;
place = "{702, -20}";
target = down;
type = TopGhost;
},
{
place = "{18, 675}";
type = Stem;
}
);
layerId = "61C708DC-9E63-4DDF-9A9E-D605D0F8404A";
paths = (
{
closed = 1;
nodes = (
"29 702 LINE",
"263 358 LINE",
"18 0 LINE",
"196 0 LINE",
"354 239 LINE",
"512 0 LINE",
"693 0 LINE",
"449 360 LINE",
"682 702 LINE",
"505 702 LINE",
"358 477 LINE",
"210 702 LINE"
);
}
);
width = 711;
}
);
unicode = 03A7;
},
{
glyphname = Tau;
layers = (
{
hints = (
{
horizontal = 1;
place = "{0, 21}";
target = up;
type = BottomGhost;
},
{
horizontal = 1;
place = "{563, 139}";
type = Stem;
},
{
place = "{224, 158}";
type = Stem;
}
);
layerId = "61C708DC-9E63-4DDF-9A9E-D605D0F8404A";
paths = (
{
closed = 1;
nodes = (
"382 563 LINE",
"592 563 LINE",
"592 702 LINE",
"14 702 LINE",
"14 563 LINE",
"224 563 LINE",
"224 0 LINE",
"382 0 LINE"
);
}
);
width = 606;
}
);
unicode = 03A4;
},
{
glyphname = Rho;
layers = (
{
hints = (
{
horizontal = 1;
place = "{-1, 21}";
target = up;
type = BottomGhost;
},
{
horizontal = 1;
place = "{226, 127}";
type = Stem;
},
{
horizontal = 1;
place = "{568, 134}";
type = Stem;
},
{
place = "{70, 158}";
type = Stem;
},
{
place = "{465, 158}";
type = Stem;
}
);
layerId = "61C708DC-9E63-4DDF-9A9E-D605D0F8404A";
paths = (
{
closed = 1;
nodes = (
"70 -1 LINE",
"228 -1 LINE",
"228 226 LINE",
"337 226 LINE SMOOTH",
"501 226 OFFCURVE",
"623 312 OFFCURVE",
"623 468 CURVE SMOOTH",
"623 615 OFFCURVE",
"513 702 OFFCURVE",
"346 702 CURVE SMOOTH",
"70 702 LINE"
);
},
{
closed = 1;
nodes = (
"228 568 LINE",
"333 568 LINE SMOOTH",
"417 568 OFFCURVE",
"465 532 OFFCURVE",
"465 461 CURVE SMOOTH",
"465 394 OFFCURVE",
"416 353 OFFCURVE",
"333 353 CURVE SMOOTH",
"228 353 LINE"
);
}
);
width = 657;
}
);
unicode = 03A1;
},
{
glyphname = Upsilon;
layers = (
{
hints = (
{
horizontal = 1;
place = "{0, 21}";
target = up;
type = BottomGhost;
},
{
horizontal = 1;
place = "{702, -20}";
target = down;
type = TopGhost;
},
{
place = "{276, 158}";
type = Stem;
}
);
layerId = "61C708DC-9E63-4DDF-9A9E-D605D0F8404A";
paths = (
{
closed = 1;
nodes = (
"434 270 LINE",
"702 702 LINE",
"525 702 LINE",
"357 416 LINE",
"189 702 LINE",
"9 702 LINE",
"276 268 LINE",
"276 0 LINE",
"434 0 LINE"
);
}
);
width = 708;
}
);
unicode = 03A5;
},
{
glyphname = uni0394;
layers = (
{
hints = (
{
horizontal = 1;
place = "{0, 126}";
type = Stem;
},
{
horizontal = 1;
place = "{705, -20}";
target = down;
type = TopGhost;
},
{
place = "{13, 767}";
type = Stem;
}
);
layerId = "61C708DC-9E63-4DDF-9A9E-D605D0F8404A";
paths = (
{
closed = 1;
nodes = (
"780 0 LINE",
"470 705 LINE",
"322 705 LINE",
"13 0 LINE"
);
},
{
closed = 1;
nodes = (
"229 126 LINE",
"395 525 LINE",
"561 126 LINE"
);
}
);
width = 794;
}
);
unicode = 0394;
},
{
glyphname = uni03A9;
layers = (
{
hints = (
{
horizontal = 1;
place = "{1, 136}";
type = Stem;
},
{
horizontal = 1;
place = "{573, 143}";
type = Stem;
},
{
place = "{51, 161}";
type = Stem;
},
{
place = "{591, 161}";
type = Stem;
}
);
layerId = "61C708DC-9E63-4DDF-9A9E-D605D0F8404A";
paths = (
{
closed = 1;
nodes = (
"445 1 LINE",
"777 1 LINE",
"777 137 LINE",
"610 137 LINE",
"701 183 OFFCURVE",
"752 295 OFFCURVE",
"752 394 CURVE SMOOTH",
"752 599 OFFCURVE",
"598 716 OFFCURVE",
"402 716 CURVE SMOOTH",
"209 716 OFFCURVE",
"51 599 OFFCURVE",
"51 395 CURVE SMOOTH",
"51 296 OFFCURVE",
"102 182 OFFCURVE",
"193 137 CURVE",
"26 137 LINE",
"26 1 LINE",
"359 1 LINE",
"359 143 LINE",
"267 186 OFFCURVE",
"212 267 OFFCURVE",
"212 369 CURVE SMOOTH",
"212 485 OFFCURVE",
"279 573 OFFCURVE",
"401 573 CURVE SMOOTH",
"523 573 OFFCURVE",
"591 487 OFFCURVE",
"591 369 CURVE SMOOTH",
"591 265 OFFCURVE",
"537 190 OFFCURVE",
"445 143 CURVE"
);
}
);
width = 823;
}
);
unicode = 03A9;
},
{
glyphname = Lambda;
layers = (
{
hints = (
{
horizontal = 1;
place = "{0, 21}";
target = up;
type = BottomGhost;
},
{
horizontal = 1;
place = "{705, -20}";
target = down;
type = TopGhost;
},
{
place = "{19, 737}";
type = Stem;
}
);
layerId = "61C708DC-9E63-4DDF-9A9E-D605D0F8404A";
paths = (
{
closed = 1;
nodes = (
"587 0 LINE",
"756 0 LINE",
"461 705 LINE",
"313 705 LINE",
"19 0 LINE",
"185 0 LINE",
"386 519 LINE"
);
}
);
width = 772;
}
);
unicode = 039B;
},
{
glyphname = Beta;
layers = (
{
hints = (
{
place = "{70, 154}";
type = Stem;
},
{
place = "{458, 158}";
type = Stem;
},
{
place = "{500, 158}";
type = Stem;
},
{
horizontal = 1;
place = "{0, 129}";
type = Stem;
},
{
horizontal = 1;
place = "{297, 116}";
type = Stem;
},
{
horizontal = 1;
place = "{573, 129}";
type = Stem;
}
);
layerId = "61C708DC-9E63-4DDF-9A9E-D605D0F8404A";
paths = (
{
closed = 1;
nodes = (
"70 0 LINE",
"386 0 LINE SMOOTH",
"565 0 OFFCURVE",
"658 79 OFFCURVE",
"658 195 CURVE SMOOTH",
"658 285 OFFCURVE",
"605 342 OFFCURVE",
"510 366 CURVE",
"574 393 OFFCURVE",
"616 446 OFFCURVE",
"616 525 CURVE SMOOTH",
"616 644 OFFCURVE",
"514 702 OFFCURVE",
"375 702 CURVE SMOOTH",
"70 702 LINE"
);
},
{
closed = 1;
nodes = (
"224 573 LINE",
"350 573 LINE SMOOTH",
"418 573 OFFCURVE",
"458 547 OFFCURVE",
"458 494 CURVE SMOOTH",
"458 445 OFFCURVE",
"422 413 OFFCURVE",
"347 413 CURVE SMOOTH",
"224 413 LINE"
);
},
{
closed = 1;
nodes = (
"224 297 LINE",
"364 297 LINE SMOOTH",
"461 297 OFFCURVE",
"500 267 OFFCURVE",
"500 214 CURVE SMOOTH",
"500 159 OFFCURVE",
"459 129 OFFCURVE",
"376 129 CURVE SMOOTH",
"224 129 LINE"
);
}
);
width = 698;
}
);
unicode = 0392;
},
{
glyphname = Zeta;
layers = (
{
hints = (
{
horizontal = 1;
place = "{0, 134}";
type = Stem;
},
{
horizontal = 1;
place = "{567, 135}";
type = Stem;
},
{
place = "{25, 614}";
type = Stem;
}
);
layerId = "61C708DC-9E63-4DDF-9A9E-D605D0F8404A";
paths = (
{
closed = 1;
nodes = (
"639 583 LINE",
"639 702 LINE",
"42 702 LINE",
"42 567 LINE",
"426 567 LINE",
"25 118 LINE",
"25 0 LINE",
"632 0 LINE",
"632 134 LINE",
"240 134 LINE"
);
}
);
width = 671;
}
);
unicode = 0396;
},
{
glyphname = Pi;
layers = (
{
hints = (
{
horizontal = 1;
place = "{0, 21}";
target = up;
type = BottomGhost;
},
{
horizontal = 1;
place = "{561, 141}";
type = Stem;
},
{
place = "{70, 157}";
type = Stem;
},
{
place = "{507, 158}";
type = Stem;
}
);
layerId = "61C708DC-9E63-4DDF-9A9E-D605D0F8404A";
paths = (
{
closed = 1;
nodes = (
"70 0 LINE",
"227 0 LINE",
"227 561 LINE",
"507 561 LINE",
"507 0 LINE",
"665 0 LINE",
"665 702 LINE",
"70 702 LINE"
);
}
);
width = 735;
}
);
unicode = 03A0;
},
{
glyphname = Xi;
layers = (
{
hints = (
{
horizontal = 1;
place = "{0, 145}";
type = Stem;
},
{
horizontal = 1;
place = "{286, 137}";
type = Stem;
},
{
horizontal = 1;
place = "{556, 146}";
type = Stem;
},
{
place = "{44, 536}";
type = Stem;
}
);
layerId = "61C708DC-9E63-4DDF-9A9E-D605D0F8404A";
paths = (
{
closed = 1;
nodes = (
"573 556 LINE",
"573 702 LINE",
"51 702 LINE",
"51 556 LINE"
);
},
{
closed = 1;
nodes = (
"540 286 LINE",
"540 423 LINE",
"84 423 LINE",
"84 286 LINE"
);
},
{
closed = 1;
nodes = (
"580 0 LINE",
"580 145 LINE",
"44 145 LINE",
"44 0 LINE"
);
}
);
width = 619;
}
);
unicode = 039E;
},
{
glyphname = Sigma;
layers = (
{
hints = (
{
horizontal = 1;
place = "{0, 134}";
type = Stem;
},
{
horizontal = 1;
place = "{567, 135}";
type = Stem;
},
{
place = "{32, 580}";
type = Stem;
}
);
layerId = "61C708DC-9E63-4DDF-9A9E-D605D0F8404A";
paths = (
{
closed = 1;
nodes = (
"243 352 LINE",
"32 118 LINE",
"32 0 LINE",
"612 0 LINE",
"612 134 LINE",
"247 134 LINE",
"443 352 LINE",
"256 567 LINE",
"602 567 LINE",
"602 702 LINE",
"43 702 LINE",
"43 583 LINE"
);
}
);
width = 647;
}
);
unicode = 03A3;
},
{
glyphname = Psi;
layers = (
{
hints = (
{
horizontal = 1;
place = "{0, 21}";
target = up;
type = BottomGhost;
},
{
horizontal = 1;
place = "{130, 142}";
type = Stem;
},
{
horizontal = 1;
place = "{702, -20}";
target = down;
type = TopGhost;
},
{
place = "{44, 158}";
type = Stem;
},
{
place = "{355, 158}";
type = Stem;
},
{
place = "{666, 158}";
type = Stem;
}
);
layerId = "61C708DC-9E63-4DDF-9A9E-D605D0F8404A";
paths = (
{
closed = 1;
nodes = (
"666 447 LINE SMOOTH",
"666 337 OFFCURVE",
"612 272 OFFCURVE",
"513 272 CURVE",
"513 702 LINE",
"355 702 LINE",
"355 272 LINE",
"256 272 OFFCURVE",
"202 337 OFFCURVE",
"202 447 CURVE SMOOTH",
"202 702 LINE",
"44 702 LINE",
"44 446 LINE SMOOTH",
"44 241 OFFCURVE",
"165 130 OFFCURVE",
"354 130 CURVE",
"354 0 LINE",
"512 0 LINE",
"512 130 LINE",
"709 130 OFFCURVE",
"824 241 OFFCURVE",
"824 449 CURVE SMOOTH",
"824 702 LINE",
"666 702 LINE"
);
}
);
width = 866;
}
);
unicode = 03A8;
},
{
glyphname = omicron;
layers = (
{
hints = (
{
horizontal = 1;
place = "{-12, 130}";
type = Stem;
},
{
horizontal = 1;
place = "{403, 130}";
type = Stem;
},
{
place = "{35, 151}";
type = Stem;
},
{
place = "{454, 151}";
type = Stem;
}
);
layerId = "61C708DC-9E63-4DDF-9A9E-D605D0F8404A";
paths = (
{
closed = 1;
nodes = (
"605 412 OFFCURVE",
"486 533 OFFCURVE",
"320 533 CURVE SMOOTH",
"155 533 OFFCURVE",
"35 410 OFFCURVE",
"35 260 CURVE SMOOTH",
"35 111 OFFCURVE",
"154 -12 OFFCURVE",
"319 -12 CURVE SMOOTH",
"484 -12 OFFCURVE",
"605 114 OFFCURVE",
"605 262 CURVE SMOOTH"
);
},
{
closed = 1;
nodes = (
"454 184 OFFCURVE",
"401 118 OFFCURVE",
"320 118 CURVE SMOOTH",
"243 118 OFFCURVE",
"186 183 OFFCURVE",
"186 262 CURVE SMOOTH",
"186 339 OFFCURVE",
"237 403 OFFCURVE",
"319 403 CURVE SMOOTH",
"397 403 OFFCURVE",
"454 338 OFFCURVE",
"454 260 CURVE SMOOTH"
);
}
);
width = 641;
}
);
unicode = 03BF;
},
{
glyphname = kappa;
layers = (
{
hints = (
{
horizontal = 1;
place = "{0, 21}";
target = up;
type = BottomGhost;
},
{
place = "{50, 154}";
type = Stem;
}
);
layerId = "61C708DC-9E63-4DDF-9A9E-D605D0F8404A";
paths = (
{
closed = 1;
nodes = (
"204 521 LINE",
"50 521 LINE",
"50 0 LINE",
"204 0 LINE",
"204 261 LINE",
"375 0 LINE",
"548 0 LINE",
"344 301 LINE",
"542 521 LINE",
"364 521 LINE",
"204 334 LINE"
);
}
);
width = 553;
}
);
unicode = 03BA;
},
{
glyphname = nu;
layers = (
{
hints = (
{
horizontal = 1;
place = "{-3, 21}";
target = up;
type = BottomGhost;
},
{
place = "{-1, 565}";
type = Stem;
}
);
layerId = "61C708DC-9E63-4DDF-9A9E-D605D0F8404A";
paths = (
{
closed = 1;
nodes = (
"564 521 LINE",
"404 521 LINE",
"283 180 LINE",
"163 521 LINE",
"-1 521 LINE",
"211 -3 LINE",
"353 -3 LINE"
);
}
);
width = 585;
}
);
unicode = 03BD;
},
{
glyphname = tonos;
layers = (
{
hints = (
{
horizontal = 1;
place = "{579, 173}";
type = Stem;
},
{
place = "{88, 297}";
type = Stem;
}
);
layerId = "61C708DC-9E63-4DDF-9A9E-D605D0F8404A";
paths = (
{
closed = 1;
nodes = (
"88 579 LINE",
"197 579 LINE",
"385 752 LINE",
"188 752 LINE"
);
}
);
width = 427;
}
);
unicode = 0384;
},
{
glyphname = Alphatonos;
layers = (
{
hints = (
{
horizontal = 1;
place = "{0, 21}";
target = up;
type = BottomGhost;
},
{
horizontal = 1;
place = "{149, 126}";
type = Stem;
},
{
horizontal = 1;
place = "{532, 173}";
type = Stem;
},
{
place = "{14, 796}";
type = Stem;
}
);
layerId = "61C708DC-9E63-4DDF-9A9E-D605D0F8404A";
paths = (
{
closed = 1;
nodes = (
"578 149 LINE",
"640 0 LINE",
"810 0 LINE",
"508 705 LINE",
"360 705 LINE",
"59 0 LINE",
"225 0 LINE",
"287 149 LINE"
);
},
{
closed = 1;
nodes = (
"14 532 LINE",
"123 532 LINE",
"311 705 LINE",
"114 705 LINE"
);
},
{
closed = 1;
nodes = (
"433 519 LINE",
"530 275 LINE",
"335 275 LINE"
);
}
);
width = 835;
}
);
unicode = 0386;
},
{
glyphname = Epsilontonos;
layers = (
{
hints = (
{
place = "{352, 157}";
type = Stem;
},
{
horizontal = 1;
place = "{0, 135}";
type = Stem;
},
{
horizontal = 1;
place = "{291, 127}";
type = Stem;
},
{
horizontal = 1;
place = "{529, 173}";
type = Stem;
},
{
horizontal = 1;
place = "{566, 136}";
type = Stem;
}
);
layerId = "61C708DC-9E63-4DDF-9A9E-D605D0F8404A";
paths = (
{
closed = 1;
nodes = (
"0 529 LINE",
"109 529 LINE",
"297 702 LINE",
"100 702 LINE"
);
},
{
closed = 1;
nodes = (
"509 291 LINE",
"848 291 LINE",
"848 418 LINE",
"509 418 LINE",
"509 566 LINE",
"881 566 LINE",
"881 702 LINE",
"352 702 LINE",
"352 0 LINE",
"888 0 LINE",
"888 135 LINE",
"509 135 LINE"
);
}
);
width = 927;
}
);
unicode = 0388;
},
{
glyphname = Etatonos;
layers = (
{
hints = (
{
horizontal = 1;
place = "{0, 21}";
target = up;
type = BottomGhost;
},
{
horizontal = 1;
place = "{284, 141}";
type = Stem;
},
{
horizontal = 1;
place = "{529, 173}";
type = Stem;
},
{
place = "{352, 157}";
type = Stem;
},
{
place = "{803, 157}";
type = Stem;
}
);
layerId = "61C708DC-9E63-4DDF-9A9E-D605D0F8404A";
paths = (
{
closed = 1;
nodes = (
"352 0 LINE",
"509 0 LINE",
"509 284 LINE",
"803 284 LINE",
"803 0 LINE",
"960 0 LINE",
"960 702 LINE",
"803 702 LINE",
"803 425 LINE",
"509 425 LINE",
"509 702 LINE",
"352 702 LINE"
);
},
{
closed = 1;
nodes = (
"0 529 LINE",
"109 529 LINE",
"297 702 LINE",
"100 702 LINE"
);
}
);
width = 1030;
}
);
unicode = 0389;
},
{
glyphname = Iotatonos;
layers = (
{
hints = (
{
horizontal = 1;
place = "{0, 21}";
target = up;
type = BottomGhost;
},
{
horizontal = 1;
place = "{529, 173}";
type = Stem;
},
{
place = "{356, 158}";
type = Stem;
}
);
layerId = "61C708DC-9E63-4DDF-9A9E-D605D0F8404A";
paths = (
{
closed = 1;
nodes = (
"0 529 LINE",
"109 529 LINE",
"297 702 LINE",
"100 702 LINE"
);
},
{
closed = 1;
nodes = (
"514 702 LINE",
"356 702 LINE",
"356 0 LINE",
"514 0 LINE"
);
}
);
width = 584;
}
);
unicode = 038A;
},
{
glyphname = Omicrontonos;
layers = (
{
hints = (
{
place = "{225, 161}";
type = Stem;
},
{
place = "{809, 162}";
type = Stem;
},
{
horizontal = 1;
place = "{-14, 142}";
type = Stem;
},
{
horizontal = 1;
place = "{529, 173}";
type = Stem;
},
{
horizontal = 1;
place = "{573, 143}";
type = Stem;
}
);
layerId = "61C708DC-9E63-4DDF-9A9E-D605D0F8404A";
paths = (
{
closed = 1;
nodes = (
"971 552 OFFCURVE",
"812 716 OFFCURVE",
"599 716 CURVE SMOOTH",
"383 716 OFFCURVE",
"225 552 OFFCURVE",
"225 350 CURVE SMOOTH",
"225 149 OFFCURVE",
"383 -14 OFFCURVE",
"597 -14 CURVE SMOOTH",
"811 -14 OFFCURVE",
"971 150 OFFCURVE",
"971 353 CURVE SMOOTH"
);
},
{
closed = 1;
nodes = (
"1 529 LINE",
"110 529 LINE",
"298 702 LINE",
"101 702 LINE"
);
},
{
closed = 1;
nodes = (
"809 231 OFFCURVE",
"723 128 OFFCURVE",
"598 128 CURVE SMOOTH",
"473 128 OFFCURVE",
"386 230 OFFCURVE",
"386 353 CURVE SMOOTH",
"386 473 OFFCURVE",
"472 573 OFFCURVE",
"598 573 CURVE SMOOTH",
"722 573 OFFCURVE",
"809 471 OFFCURVE",
"809 350 CURVE SMOOTH"
);
}
);
width = 1008;
}
);
unicode = 038C;
},
{
glyphname = Upsilontonos;
layers = (
{
hints = (
{
horizontal = 1;
place = "{0, 21}";
target = up;
type = BottomGhost;
},
{
horizontal = 1;
place = "{529, 173}";
type = Stem;
},
{
place = "{623, 158}";
type = Stem;
}
);
layerId = "61C708DC-9E63-4DDF-9A9E-D605D0F8404A";
paths = (
{
closed = 1;
nodes = (
"0 529 LINE",
"109 529 LINE",
"297 702 LINE",
"100 702 LINE"
);
},
{
closed = 1;
nodes = (
"781 270 LINE",
"1049 702 LINE",
"872 702 LINE",
"704 416 LINE",
"536 702 LINE",
"356 702 LINE",
"623 268 LINE",
"623 0 LINE",
"781 0 LINE"
);
}
);
width = 1058;
}
);
unicode = 038E;
},
{
glyphname = Gamma;
layers = (
{
hints = (
{
horizontal = 1;
place = "{0, 21}";
target = up;
type = BottomGhost;
},
{
horizontal = 1;
place = "{563, 139}";
type = Stem;
},
{
place = "{70, 158}";
type = Stem;
}
);
layerId = "61C708DC-9E63-4DDF-9A9E-D605D0F8404A";
paths = (
{
closed = 1;
nodes = (
"228 563 LINE",
"596 563 LINE",
"596 702 LINE",
"70 702 LINE",
"70 0 LINE",
"228 0 LINE"
);
}
);
width = 602;
}
);
unicode = 0393;
},
{
glyphname = Theta;
layers = (
{
hints = (
{
horizontal = 1;
place = "{-14, 142}";
type = Stem;
},
{
horizontal = 1;
place = "{289, 136}";
type = Stem;
},
{
horizontal = 1;
place = "{573, 143}";
type = Stem;
},
{
place = "{37, 161}";
type = Stem;
},
{
place = "{278, 264}";
type = Stem;
},
{
place = "{621, 162}";
type = Stem;
}
);
layerId = "61C708DC-9E63-4DDF-9A9E-D605D0F8404A";
paths = (
{
closed = 1;
nodes = (
"783 552 OFFCURVE",
"625 716 OFFCURVE",
"411 716 CURVE SMOOTH",
"197 716 OFFCURVE",
"37 552 OFFCURVE",
"37 350 CURVE SMOOTH",
"37 149 OFFCURVE",
"195 -14 OFFCURVE",
"409 -14 CURVE SMOOTH",
"623 -14 OFFCURVE",
"783 150 OFFCURVE",
"783 353 CURVE SMOOTH"
);
},
{
closed = 1;
nodes = (
"621 231 OFFCURVE",
"536 128 OFFCURVE",
"411 128 CURVE SMOOTH",
"285 128 OFFCURVE",
"198 230 OFFCURVE",
"198 353 CURVE SMOOTH",
"198 473 OFFCURVE",
"284 573 OFFCURVE",
"410 573 CURVE SMOOTH",
"534 573 OFFCURVE",
"621 471 OFFCURVE",
"621 350 CURVE SMOOTH"
);
},
{
closed = 1;
nodes = (
"542 289 LINE",
"542 425 LINE",
"278 425 LINE",
"278 289 LINE"
);
}
);
width = 820;
}
);
unicode = 0398;
},
{
glyphname = Iotadieresis;
layers = (
{
hints = (
{
horizontal = 1;
place = "{0, 21}";
target = up;
type = BottomGhost;
},
{
horizontal = 1;
place = "{702, -20}";
target = down;
type = TopGhost;
},
{
horizontal = 1;
place = "{723, 153}";
type = Stem;
},
{
place = "{77, 158}";
type = Stem;
}
);
layerId = "61C708DC-9E63-4DDF-9A9E-D605D0F8404A";
paths = (
{
closed = 1;
nodes = (
"-29 752 OFFCURVE",
"5 723 OFFCURVE",
"50 723 CURVE SMOOTH",
"93 723 OFFCURVE",
"128 752 OFFCURVE",
"128 800 CURVE SMOOTH",
"128 848 OFFCURVE",
"93 876 OFFCURVE",
"50 876 CURVE SMOOTH",
"5 876 OFFCURVE",
"-29 848 OFFCURVE",
"-29 800 CURVE SMOOTH"
);
},
{
closed = 1;
nodes = (
"186 752 OFFCURVE",
"220 723 OFFCURVE",
"264 723 CURVE SMOOTH",
"308 723 OFFCURVE",
"342 752 OFFCURVE",
"342 800 CURVE SMOOTH",
"342 848 OFFCURVE",
"308 876 OFFCURVE",
"264 876 CURVE SMOOTH",
"220 876 OFFCURVE",
"186 848 OFFCURVE",
"186 800 CURVE SMOOTH"
);
},
{
closed = 1;
nodes = (
"235 702 LINE",
"77 702 LINE",
"77 0 LINE",
"235 0 LINE"
);
}
);
width = 313;
}
);
unicode = 03AA;
},
{
glyphname = Upsilondieresis;
layers = (
{
hints = (
{
place = "{170, 157}";
type = Stem;
},
{
place = "{276, 158}";
type = Stem;
},
{
place = "{385, 156}";
type = Stem;
},
{
horizontal = 1;
place = "{0, 21}";
target = up;
type = BottomGhost;
},
{
horizontal = 1;
place = "{702, -20}";
target = down;
type = TopGhost;
},
{
horizontal = 1;
place = "{723, 153}";
type = Stem;
}
);
layerId = "61C708DC-9E63-4DDF-9A9E-D605D0F8404A";
paths = (
{
closed = 1;
nodes = (
"170 752 OFFCURVE",
"204 723 OFFCURVE",
"249 723 CURVE SMOOTH",
"292 723 OFFCURVE",
"327 752 OFFCURVE",
"327 800 CURVE SMOOTH",
"327 848 OFFCURVE",
"292 876 OFFCURVE",
"249 876 CURVE SMOOTH",
"204 876 OFFCURVE",
"170 848 OFFCURVE",
"170 800 CURVE SMOOTH"
);
},
{
closed = 1;
nodes = (
"385 752 OFFCURVE",
"419 723 OFFCURVE",
"463 723 CURVE SMOOTH",
"507 723 OFFCURVE",
"541 752 OFFCURVE",
"541 800 CURVE SMOOTH",
"541 848 OFFCURVE",
"507 876 OFFCURVE",
"463 876 CURVE SMOOTH",
"419 876 OFFCURVE",
"385 848 OFFCURVE",
"385 800 CURVE SMOOTH"
);
},
{
closed = 1;
nodes = (
"434 270 LINE",
"702 702 LINE",
"525 702 LINE",
"357 416 LINE",
"189 702 LINE",
"9 702 LINE",
"276 268 LINE",
"276 0 LINE",
"434 0 LINE"
);
}
);
width = 708;
}
);
unicode = 03AB;
},
{
glyphname = dieresistonos;
layers = (
{
hints = (
{
place = "{5, 143}";
type = Stem;
},
{
place = "{362, 140}";
type = Stem;
},
{
horizontal = 1;
place = "{529, 141}";
type = Stem;
},
{
horizontal = 1;
place = "{531, 142}";
type = Stem;
},
{
horizontal = 1;
place = "{531, 173}";
type = Stem;
}
);
layerId = "61C708DC-9E63-4DDF-9A9E-D605D0F8404A";
paths = (
{
closed = 1;
nodes = (
"151 531 LINE",
"251 531 LINE",
"399 704 LINE",
"222 704 LINE"
);
},
{
closed = 1;
nodes = (
"474 531 OFFCURVE",
"502 565 OFFCURVE",
"502 602 CURVE SMOOTH",
"502 638 OFFCURVE",
"474 673 OFFCURVE",
"431 673 CURVE SMOOTH",
"391 673 OFFCURVE",
"362 638 OFFCURVE",
"362 602 CURVE SMOOTH",
"362 565 OFFCURVE",
"391 531 OFFCURVE",
"431 531 CURVE SMOOTH"
);
},
{
closed = 1;
nodes = (
"5 559 OFFCURVE",
"39 529 OFFCURVE",
"76 529 CURVE SMOOTH",
"113 529 OFFCURVE",
"148 559 OFFCURVE",
"148 600 CURVE SMOOTH",
"148 640 OFFCURVE",
"113 670 OFFCURVE",
"76 670 CURVE SMOOTH",
"39 670 OFFCURVE",
"5 640 OFFCURVE",
"5 600 CURVE SMOOTH"
);
}
);
width = 514;
}
);
unicode = 0385;
},
{
glyphname = alpha;
layers = (
{
hints = (
{
place = "{31, 153}";
type = Stem;
},
{
place = "{441, 154}";
type = Stem;
},
{
horizontal = 1;
place = "{-12, 130}";
type = Stem;
},
{
horizontal = 1;
place = "{0, 21}";
target = up;
type = BottomGhost;
},
{
horizontal = 1;
place = "{404, 117}";
type = Stem;
},
{
horizontal = 1;
place = "{404, 129}";
type = Stem;
}
);
layerId = "61C708DC-9E63-4DDF-9A9E-D605D0F8404A";
paths = (
{
closed = 1;
nodes = (
"595 0 LINE",
"595 521 LINE",
"441 521 LINE",
"441 445 LINE",
"397 502 OFFCURVE",
"343 533 OFFCURVE",
"271 533 CURVE SMOOTH",
"119 533 OFFCURVE",
"31 403 OFFCURVE",
"31 260 CURVE SMOOTH",
"31 121 OFFCURVE",
"120 -12 OFFCURVE",
"271 -12 CURVE SMOOTH",
"348 -12 OFFCURVE",
"393 21 OFFCURVE",
"441 77 CURVE"
);
},
{
closed = 1;
nodes = (
"392 404 OFFCURVE",
"445 337 OFFCURVE",
"445 262 CURVE SMOOTH",
"445 187 OFFCURVE",
"392 118 OFFCURVE",
"313 118 CURVE SMOOTH",
"237 118 OFFCURVE",
"184 186 OFFCURVE",
"184 260 CURVE SMOOTH",
"184 337 OFFCURVE",
"231 404 OFFCURVE",
"314 404 CURVE SMOOTH"
);
}
);
width = 618;
}
);
unicode = 03B1;
},
{
glyphname = rho;
layers = (
{
hints = (
{
horizontal = 1;
place = "{-169, 21}";
target = up;
type = BottomGhost;
},
{
horizontal = 1;
place = "{-11, 129}";
type = Stem;
},
{
horizontal = 1;
place = "{403, 130}";
type = Stem;
},
{
place = "{59, 154}";
type = Stem;
},
{
place = "{471, 152}";
type = Stem;
}
);
layerId = "61C708DC-9E63-4DDF-9A9E-D605D0F8404A";
paths = (
{
closed = 1;
nodes = (
"59 -169 LINE",
"213 -169 LINE",
"213 72 LINE",
"258 16 OFFCURVE",
"314 -11 OFFCURVE",
"383 -11 CURVE SMOOTH",
"537 -11 OFFCURVE",
"623 121 OFFCURVE",
"623 261 CURVE SMOOTH",
"623 427 OFFCURVE",
"500 533 OFFCURVE",
"342 533 CURVE SMOOTH",
"180 533 OFFCURVE",
"59 428 OFFCURVE",
"59 261 CURVE SMOOTH"
);
},
{
closed = 1;
nodes = (
"471 186 OFFCURVE",
"424 118 OFFCURVE",
"341 118 CURVE SMOOTH",
"264 118 OFFCURVE",
"210 179 OFFCURVE",
"210 258 CURVE SMOOTH",
"210 343 OFFCURVE",
"267 403 OFFCURVE",
"340 403 CURVE SMOOTH",
"419 403 OFFCURVE",
"471 339 OFFCURVE",
"471 262 CURVE SMOOTH"
);
}
);
width = 659;
}
);
unicode = 03C1;
},
{
glyphname = iota;
layers = (
{
hints = (
{
horizontal = 1;
place = "{0, 21}";
target = up;
type = BottomGhost;
},
{
place = "{64, 154}";
type = Stem;
}
);
layerId = "61C708DC-9E63-4DDF-9A9E-D605D0F8404A";
paths = (
{
closed = 1;
nodes = (
"218 521 LINE",
"64 521 LINE",
"64 0 LINE",
"218 0 LINE"
);
}
);
width = 240;
}
);
unicode = 03B9;
},
{
glyphname = eta;
layers = (
{
hints = (
{
horizontal = 1;
place = "{0, 21}";
target = up;
type = BottomGhost;
},
{
horizontal = 1;
place = "{396, 137}";
type = Stem;
},
{
place = "{48, 154}";
type = Stem;
},
{
place = "{389, 154}";
type = Stem;
}
);
layerId = "61C708DC-9E63-4DDF-9A9E-D605D0F8404A";
paths = (
{
closed = 1;
nodes = (
"288 533 OFFCURVE",
"238 495 OFFCURVE",
"203 450 CURVE",
"48 521 LINE",
"48 0 LINE",
"202 0 LINE",
"202 289 LINE SMOOTH",
"202 365 OFFCURVE",
"253 396 OFFCURVE",
"299 396 CURVE SMOOTH",
"347 396 OFFCURVE",
"389 365 OFFCURVE",
"389 289 CURVE SMOOTH",
"389 0 LINE",
"543 0 LINE",
"543 337 LINE SMOOTH",
"543 460 OFFCURVE",
"468 533 OFFCURVE",
"363 533 CURVE SMOOTH"
);
}
);
width = 596;
}
);
unicode = 03B7;
},
{
glyphname = gamma;
layers = (
{
hints = (
{
horizontal = 1;
place = "{-169, 21}";
target = up;
type = BottomGhost;
},
{
place = "{193, 154}";
type = Stem;
}
);
layerId = "61C708DC-9E63-4DDF-9A9E-D605D0F8404A";
paths = (
{
closed = 1;
nodes = (
"347 13 LINE",
"552 521 LINE",
"392 521 LINE",
"271 180 LINE",
"150 521 LINE",
"-13 521 LINE",
"193 11 LINE",
"193 -169 LINE",
"347 -169 LINE"
);
}
);
width = 570;
}
);
unicode = 03B3;
},
{
glyphname = upsilon;
layers = (
{
hints = (
{
horizontal = 1;
place = "{-12, 132}";
type = Stem;
},
{
horizontal = 1;
place = "{522, -20}";
target = down;
type = TopGhost;
},
{
place = "{39, 154}";
type = Stem;
},
{
place = "{380, 154}";
type = Stem;
}
);
layerId = "61C708DC-9E63-4DDF-9A9E-D605D0F8404A";
paths = (
{
closed = 1;
nodes = (
"534 522 LINE",
"380 522 LINE",
"380 228 LINE SMOOTH",
"380 169 OFFCURVE",
"349 120 OFFCURVE",
"286 120 CURVE SMOOTH",
"221 120 OFFCURVE",
"193 168 OFFCURVE",
"193 228 CURVE SMOOTH",
"193 522 LINE",
"39 522 LINE",
"39 231 LINE SMOOTH",
"39 68 OFFCURVE",
"128 -12 OFFCURVE",
"287 -12 CURVE SMOOTH",
"441 -12 OFFCURVE",
"534 70 OFFCURVE",
"534 234 CURVE SMOOTH"
);
}
);
width = 580;
}
);
unicode = 03C5;
},
{
glyphname = beta;
layers = (
{
hints = (
{
place = "{61, 154}";
type = Stem;
},
{
place = "{422, 152}";
type = Stem;
},
{
place = "{460, 151}";
type = Stem;
},
{
horizontal = 1;
place = "{-169, 21}";
target = up;
type = BottomGhost;
},
{
horizontal = 1;
place = "{-11, 130}";
type = Stem;
},
{
horizontal = 1;
place = "{328, 88}";
type = Stem;
},
{
horizontal = 1;
place = "{605, 132}";
type = Stem;
}
);
layerId = "61C708DC-9E63-4DDF-9A9E-D605D0F8404A";
paths = (
{
closed = 1;
nodes = (
"514 -11 OFFCURVE",
"611 77 OFFCURVE",
"611 201 CURVE SMOOTH",
"611 301 OFFCURVE",
"553 366 OFFCURVE",
"462 385 CURVE",
"526 412 OFFCURVE",
"574 461 OFFCURVE",
"574 538 CURVE SMOOTH",
"574 653 OFFCURVE",
"480 737 OFFCURVE",
"327 737 CURVE SMOOTH",
"155 737 OFFCURVE",
"61 631 OFFCURVE",
"61 486 CURVE SMOOTH",
"61 -169 LINE",
"215 -169 LINE",
"215 75 LINE",
"252 27 OFFCURVE",
"311 -11 OFFCURVE",
"392 -11 CURVE SMOOTH"
);
},
{
closed = 1;
nodes = (
"278 119 OFFCURVE",
"215 178 OFFCURVE",
"215 260 CURVE SMOOTH",
"215 487 LINE SMOOTH",
"215 555 OFFCURVE",
"258 605 OFFCURVE",
"324 605 CURVE SMOOTH",
"376 605 OFFCURVE",
"422 576 OFFCURVE",
"422 515 CURVE SMOOTH",
"422 468 OFFCURVE",
"394 421 OFFCURVE",
"317 416 CURVE",
"317 328 LINE",
"416 325 OFFCURVE",
"460 280 OFFCURVE",
"460 221 CURVE SMOOTH",
"460 162 OFFCURVE",
"414 119 OFFCURVE",
"354 119 CURVE SMOOTH"
);
}
);
width = 646;
}
);
unicode = 03B2;
},
{
glyphname = pi;
layers = (
{
hints = (
{
horizontal = 1;
place = "{0, 21}";
target = up;
type = BottomGhost;
},
{
horizontal = 1;
place = "{398, 123}";
type = Stem;
},
{
place = "{48, 154}";
type = Stem;
},
{
place = "{379, 154}";
type = Stem;
}
);
layerId = "61C708DC-9E63-4DDF-9A9E-D605D0F8404A";
paths = (
{
closed = 1;
nodes = (
"48 521 LINE",
"48 0 LINE",
"202 0 LINE",
"202 398 LINE",
"379 398 LINE",
"379 0 LINE",
"533 0 LINE",
"533 521 LINE"
);
}
);
width = 586;
}
);
unicode = 03C0;
},
{
glyphname = uni03BC;
layers = (
{
hints = (
{
place = "{64, 154}";
type = Stem;
},
{
place = "{405, 154}";
type = Stem;
},
{
horizontal = 1;
place = "{-169, 21}";
target = up;
type = BottomGhost;
},
{
horizontal = 1;
place = "{-11, 136}";
type = Stem;
},
{
horizontal = 1;
place = "{0, 21}";
target = up;
type = BottomGhost;
},
{
horizontal = 1;
place = "{522, -20}";
target = down;
type = TopGhost;
}
);
layerId = "61C708DC-9E63-4DDF-9A9E-D605D0F8404A";
paths = (
{
closed = 1;
nodes = (
"218 45 LINE",
"237 8 OFFCURVE",
"270 -11 OFFCURVE",
"303 -11 CURVE SMOOTH",
"354 -11 OFFCURVE",
"388 31 OFFCURVE",
"405 70 CURVE",
"559 0 LINE",
"559 522 LINE",
"405 522 LINE",
"405 233 LINE SMOOTH",
"405 169 OFFCURVE",
"369 125 OFFCURVE",
"308 125 CURVE SMOOTH",
"259 125 OFFCURVE",
"218 160 OFFCURVE",
"218 233 CURVE SMOOTH",
"218 522 LINE",
"64 522 LINE",
"64 -169 LINE",
"218 -169 LINE"
);
}
);
width = 580;
}
);
unicode = 03BC;
},
{
glyphname = tau;
layers = (
{
hints = (
{
place = "{117, 153}";
type = Stem;
},
{
horizontal = 1;
place = "{-11, 131}";
type = Stem;
},
{
horizontal = 1;
place = "{-11, 21}";
target = up;
type = BottomGhost;
},
{
horizontal = 1;
place = "{396, 125}";
type = Stem;
}
);
layerId = "61C708DC-9E63-4DDF-9A9E-D605D0F8404A";
paths = (
{
closed = 1;
nodes = (
"-10 521 LINE",
"-10 396 LINE",
"117 396 LINE",
"117 152 LINE SMOOTH",
"117 39 OFFCURVE",
"177 -11 OFFCURVE",
"276 -11 CURVE SMOOTH",
"317 -11 OFFCURVE",
"352 -2 OFFCURVE",
"380 13 CURVE",
"380 136 LINE",
"363 127 OFFCURVE",
"340 120 OFFCURVE",
"321 120 CURVE SMOOTH",
"285 120 OFFCURVE",
"270 139 OFFCURVE",
"270 178 CURVE SMOOTH",
"270 396 LINE",
"398 396 LINE",
"398 521 LINE"
);
}
);
width = 407;
}
);
unicode = 03C4;
},
{
glyphname = Phi;
layers = (
{
hints = (
{
place = "{36, 160}";
type = Stem;
},
{
place = "{390, 151}";
type = Stem;
},
{
place = "{731, 160}";
type = Stem;
},
{
horizontal = 1;
place = "{-5, 191}";
type = Stem;
},
{
horizontal = 1;
place = "{53, 133}";
type = Stem;
},
{
horizontal = 1;
place = "{519, 137}";
type = Stem;
},
{
horizontal = 1;
place = "{519, 188}";
type = Stem;
}
);
layerId = "61C708DC-9E63-4DDF-9A9E-D605D0F8404A";
paths = (
{
closed = 1;
nodes = (
"541 707 LINE",
"390 707 LINE",
"390 656 LINE",
"381 656 OFFCURVE",
"373 655 OFFCURVE",
"364 654 CURVE",
"155 646 OFFCURVE",
"36 516 OFFCURVE",
"36 353 CURVE SMOOTH",
"36 191 OFFCURVE",
"155 64 OFFCURVE",
"364 53 CURVE",
"373 53 OFFCURVE",
"381 52 OFFCURVE",
"390 51 CURVE",
"390 -5 LINE",
"541 -5 LINE",
"541 51 LINE",
"554 52 LINE",
"558 53 OFFCURVE",
"562 53 OFFCURVE",
"566 53 CURVE",
"774 64 OFFCURVE",
"891 191 OFFCURVE",
"891 355 CURVE SMOOTH",
"891 517 OFFCURVE",
"774 646 OFFCURVE",
"566 654 CURVE",
"558 655 OFFCURVE",
"549 656 OFFCURVE",
"541 656 CURVE"
);
},
{
closed = 1;
nodes = (
"541 519 LINE",
"656 516 OFFCURVE",
"731 447 OFFCURVE",
"731 352 CURVE SMOOTH",
"731 255 OFFCURVE",
"653 191 OFFCURVE",
"541 186 CURVE"
);
},
{
closed = 1;
nodes = (
"390 186 LINE",
"276 191 OFFCURVE",
"196 252 OFFCURVE",
"196 354 CURVE SMOOTH",
"196 454 OFFCURVE",
"277 516 OFFCURVE",
"390 519 CURVE"
);
}
);
width = 928;
}
);
unicode = 03A6;
},
{
glyphname = chi;
layers = (
{
hints = (
{
horizontal = 1;
place = "{-169, 21}";
target = up;
type = BottomGhost;
},
{
place = "{1, 541}";
type = Stem;
}
);
layerId = "61C708DC-9E63-4DDF-9A9E-D605D0F8404A";
paths = (
{
closed = 1;
nodes = (
"273 329 LINE",
"175 521 LINE",
"7 521 LINE",
"189 189 LINE",
"1 -169 LINE",
"164 -169 LINE",
"270 44 LINE",
"374 -169 LINE",
"542 -169 LINE",
"353 193 LINE",
"535 521 LINE",
"371 521 LINE"
);
}
);
width = 542;
}
);
unicode = 03C7;
},
{
glyphname = sigma;
layers = (
{
hints = (
{
horizontal = 1;
place = "{-12, 130}";
type = Stem;
},
{
horizontal = 1;
place = "{391, 130}";
type = Stem;
},
{
place = "{35, 151}";
type = Stem;
},
{
place = "{454, 151}";
type = Stem;
}
);
layerId = "61C708DC-9E63-4DDF-9A9E-D605D0F8404A";
paths = (
{
closed = 1;
nodes = (
"666 396 LINE",
"666 521 LINE",
"327 521 LINE SMOOTH",
"150 521 OFFCURVE",
"35 401 OFFCURVE",
"35 254 CURVE SMOOTH",
"35 107 OFFCURVE",
"152 -12 OFFCURVE",
"319 -12 CURVE SMOOTH",
"464 -12 OFFCURVE",
"605 90 OFFCURVE",
"605 244 CURVE SMOOTH",
"605 311 OFFCURVE",
"574 364 OFFCURVE",
"521 396 CURVE"
);
},
{
closed = 1;
nodes = (
"454 178 OFFCURVE",
"401 118 OFFCURVE",
"320 118 CURVE SMOOTH",
"241 118 OFFCURVE",
"186 186 OFFCURVE",
"186 256 CURVE SMOOTH",
"186 334 OFFCURVE",
"237 391 OFFCURVE",
"320 391 CURVE SMOOTH",
"401 391 OFFCURVE",
"454 336 OFFCURVE",
"454 254 CURVE SMOOTH"
);
}
);
width = 676;
}
);
unicode = 03C3;
},
{
glyphname = theta;
layers = (
{
hints = (
{
horizontal = 1;
place = "{-12, 130}";
type = Stem;
},
{
horizontal = 1;
place = "{308, 123}";
type = Stem;
},
{
horizontal = 1;
place = "{606, 131}";
type = Stem;
},
{
place = "{35, 154}";
type = Stem;
},
{
place = "{432, 155}";
type = Stem;
}
);
layerId = "61C708DC-9E63-4DDF-9A9E-D605D0F8404A";
paths = (
{
closed = 1;
nodes = (
"125 737 OFFCURVE",
"35 564 OFFCURVE",
"35 368 CURVE SMOOTH",
"35 359 LINE SMOOTH",
"35 336 OFFCURVE",
"35 315 OFFCURVE",
"38 294 CURVE",
"57 104 OFFCURVE",
"160 -12 OFFCURVE",
"310 -12 CURVE SMOOTH",
"470 -12 OFFCURVE",
"568 110 OFFCURVE",
"584 307 CURVE",
"587 326 OFFCURVE",
"587 347 OFFCURVE",
"587 367 CURVE",
"584 561 OFFCURVE",
"501 737 OFFCURVE",
"312 737 CURVE SMOOTH"
);
},
{
closed = 1;
nodes = (
"190 431 LINE",
"194 482 OFFCURVE",
"207 522 OFFCURVE",
"223 549 CURVE SMOOTH",
"246 588 OFFCURVE",
"277 606 OFFCURVE",
"310 606 CURVE SMOOTH",
"346 606 OFFCURVE",
"375 585 OFFCURVE",
"395 553 CURVE SMOOTH",
"414 524 OFFCURVE",
"425 486 OFFCURVE",
"432 431 CURVE"
);
},
{
closed = 1;
nodes = (
"432 308 LINE",
"429 261 OFFCURVE",
"419 223 OFFCURVE",
"406 194 CURVE",
"403 189 OFFCURVE",
"403 185 OFFCURVE",
"400 181 CURVE",
"381 146 OFFCURVE",
"352 118 OFFCURVE",
"309 118 CURVE SMOOTH",
"281 118 OFFCURVE",
"253 133 OFFCURVE",
"230 165 CURVE",
"210 197 OFFCURVE",
"194 243 OFFCURVE",
"189 308 CURVE"
);
}
);
width = 621;
}
);
unicode = 03B8;
},
{
glyphname = lambda;
layers = (
{
hints = (
{
horizontal = 1;
place = "{0, 21}";
target = up;
type = BottomGhost;
},
{
horizontal = 1;
place = "{615, 122}";
type = Stem;
},
{
place = "{4, 565}";
type = Stem;
}
);
layerId = "61C708DC-9E63-4DDF-9A9E-D605D0F8404A";
paths = (
{
closed = 1;
nodes = (
"210 523 LINE",
"4 0 LINE",
"166 0 LINE",
"287 354 LINE",
"411 0 LINE",
"569 0 LINE",
"352 554 LINE SMOOTH",
"317 645 OFFCURVE",
"278 737 OFFCURVE",
"166 737 CURVE SMOOTH",
"119 737 OFFCURVE",
"72 723 OFFCURVE",
"31 703 CURVE",
"64 584 LINE",
"88 599 OFFCURVE",
"115 615 OFFCURVE",
"143 615 CURVE SMOOTH",
"177 615 OFFCURVE",
"207 551 OFFCURVE",
"210 524 CURVE"
);
}
);
width = 576;
}
);
unicode = 03BB;
},
{
glyphname = psi;
layers = (
{
hints = (
{
horizontal = 1;
place = "{-169, 21}";
target = up;
type = BottomGhost;
},
{
horizontal = 1;
place = "{-11, 131}";
type = Stem;
},
{
horizontal = 1;
place = "{522, -20}";
target = down;
type = TopGhost;
},
{
place = "{51, 154}";
type = Stem;
},
{
place = "{338, 154}";
type = Stem;
},
{
place = "{626, 154}";
type = Stem;
}
);
layerId = "61C708DC-9E63-4DDF-9A9E-D605D0F8404A";
paths = (
{
closed = 1;
nodes = (
"338 -169 LINE",
"492 -169 LINE",
"492 -11 LINE",
"646 -11 OFFCURVE",
"780 60 OFFCURVE",
"780 239 CURVE SMOOTH",
"780 522 LINE",
"626 522 LINE",
"626 238 LINE SMOOTH",
"626 155 OFFCURVE",
"565 120 OFFCURVE",
"492 120 CURVE",
"492 731 LINE",
"338 731 LINE",
"338 120 LINE",
"263 120 OFFCURVE",
"205 151 OFFCURVE",
"205 239 CURVE SMOOTH",
"205 522 LINE",
"51 522 LINE",
"51 235 LINE SMOOTH",
"51 66 OFFCURVE",
"182 -11 OFFCURVE",
"338 -11 CURVE"
);
}
);
width = 821;
}
);
unicode = 03C8;
},
{
glyphname = epsilon;
layers = (
{
hints = (
{
place = "{35, 151}";
type = Stem;
},
{
place = "{56, 151}";
type = Stem;
},
{
horizontal = 1;
place = "{-12, 130}";
type = Stem;
},
{
horizontal = 1;
place = "{210, 114}";
type = Stem;
},
{
horizontal = 1;
place = "{403, 130}";
type = Stem;
}
);
layerId = "61C708DC-9E63-4DDF-9A9E-D605D0F8404A";
paths = (
{
closed = 1;
nodes = (
"228 118 OFFCURVE",
"186 134 OFFCURVE",
"186 163 CURVE SMOOTH",
"186 190 OFFCURVE",
"212 210 OFFCURVE",
"283 210 CURVE SMOOTH",
"350 210 LINE",
"350 324 LINE",
"298 324 LINE SMOOTH",
"247 324 OFFCURVE",
"207 336 OFFCURVE",
"207 365 CURVE SMOOTH",
"207 390 OFFCURVE",
"240 403 OFFCURVE",
"280 403 CURVE SMOOTH",
"313 403 OFFCURVE",
"358 395 OFFCURVE",
"413 362 CURVE",
"451 484 LINE",
"391 519 OFFCURVE",
"328 533 OFFCURVE",
"268 533 CURVE SMOOTH",
"153 533 OFFCURVE",
"56 488 OFFCURVE",
"56 389 CURVE SMOOTH",
"56 336 OFFCURVE",
"88 294 OFFCURVE",
"148 271 CURVE",
"75 251 OFFCURVE",
"35 205 OFFCURVE",
"35 146 CURVE SMOOTH",
"35 46 OFFCURVE",
"144 -12 OFFCURVE",
"267 -12 CURVE SMOOTH",
"328 -12 OFFCURVE",
"397 3 OFFCURVE",
"460 32 CURVE",
"432 158 LINE",
"365 126 OFFCURVE",
"322 118 OFFCURVE",
"279 118 CURVE SMOOTH"
);
}
);
width = 483;
}
);
unicode = 03B5;
},
{
glyphname = delta;
layers = (
{
hints = (
{
horizontal = 1;
place = "{-12, 130}";
type = Stem;
},
{
horizontal = 1;
place = "{378, 107}";
type = Stem;
},
{
horizontal = 1;
place = "{611, 124}";
type = Stem;
},
{
place = "{35, 151}";
type = Stem;
},
{
place = "{450, 151}";
type = Stem;
}
);
layerId = "61C708DC-9E63-4DDF-9A9E-D605D0F8404A";
paths = (
{
closed = 1;
nodes = (
"316 611 LINE",
"521 611 LINE",
"521 735 LINE",
"89 735 LINE",
"89 611 LINE",
"287 484 LINE",
"279 485 OFFCURVE",
"271 485 OFFCURVE",
"263 485 CURVE SMOOTH",
"215 485 OFFCURVE",
"159 470 OFFCURVE",
"112 428 CURVE SMOOTH",
"65 386 OFFCURVE",
"35 323 OFFCURVE",
"35 250 CURVE SMOOTH",
"35 105 OFFCURVE",
"152 -12 OFFCURVE",
"317 -12 CURVE SMOOTH",
"482 -12 OFFCURVE",
"601 102 OFFCURVE",
"601 251 CURVE SMOOTH",
"601 367 OFFCURVE",
"539 446 OFFCURVE",
"447 511 CURVE"
);
},
{
closed = 1;
nodes = (
"450 182 OFFCURVE",
"399 118 OFFCURVE",
"318 118 CURVE SMOOTH",
"240 118 OFFCURVE",
"186 180 OFFCURVE",
"186 251 CURVE SMOOTH",
"186 318 OFFCURVE",
"236 378 OFFCURVE",
"319 378 CURVE SMOOTH",
"404 378 OFFCURVE",
"450 316 OFFCURVE",
"450 249 CURVE SMOOTH"
);
}
);
width = 637;
}
);
unicode = 03B4;
},
{
glyphname = alphatonos;
layers = (
{
hints = (
{
place = "{31, 153}";
type = Stem;
},
{
place = "{441, 154}";
type = Stem;
},
{
horizontal = 1;
place = "{-12, 130}";
type = Stem;
},
{
horizontal = 1;
place = "{0, 21}";
target = up;
type = BottomGhost;
},
{
horizontal = 1;
place = "{404, 117}";
type = Stem;
},
{
horizontal = 1;
place = "{404, 129}";
type = Stem;
},
{
horizontal = 1;
place = "{579, 173}";
type = Stem;
}
);
layerId = "61C708DC-9E63-4DDF-9A9E-D605D0F8404A";
paths = (
{
closed = 1;
nodes = (
"242 579 LINE",
"351 579 LINE",
"539 752 LINE",
"342 752 LINE"
);
},
{
closed = 1;
nodes = (
"595 0 LINE",
"595 521 LINE",
"441 521 LINE",
"441 445 LINE",
"397 502 OFFCURVE",
"343 533 OFFCURVE",
"271 533 CURVE SMOOTH",
"119 533 OFFCURVE",
"31 403 OFFCURVE",
"31 260 CURVE SMOOTH",
"31 121 OFFCURVE",
"120 -12 OFFCURVE",
"271 -12 CURVE SMOOTH",
"348 -12 OFFCURVE",
"393 21 OFFCURVE",
"441 77 CURVE"
);
},
{
closed = 1;
nodes = (
"392 404 OFFCURVE",
"445 337 OFFCURVE",
"445 262 CURVE SMOOTH",
"445 187 OFFCURVE",
"392 118 OFFCURVE",
"313 118 CURVE SMOOTH",
"237 118 OFFCURVE",
"184 186 OFFCURVE",
"184 260 CURVE SMOOTH",
"184 337 OFFCURVE",
"231 404 OFFCURVE",
"314 404 CURVE SMOOTH"
);
}
);
width = 618;
}
);
unicode = 03AC;
},
{
glyphname = etatonos;
layers = (
{
hints = (
{
horizontal = 1;
place = "{0, 21}";
target = up;
type = BottomGhost;
},
{
horizontal = 1;
place = "{396, 137}";
type = Stem;
},
{
horizontal = 1;
place = "{579, 173}";
type = Stem;
},
{
place = "{48, 154}";
type = Stem;
},
{
place = "{389, 154}";
type = Stem;
}
);
layerId = "61C708DC-9E63-4DDF-9A9E-D605D0F8404A";
paths = (
{
closed = 1;
nodes = (
"217 579 LINE",
"326 579 LINE",
"514 752 LINE",
"317 752 LINE"
);
},
{
closed = 1;
nodes = (
"288 533 OFFCURVE",
"238 495 OFFCURVE",
"203 450 CURVE",
"48 521 LINE",
"48 0 LINE",
"202 0 LINE",
"202 289 LINE SMOOTH",
"202 365 OFFCURVE",
"253 396 OFFCURVE",
"299 396 CURVE SMOOTH",
"347 396 OFFCURVE",
"389 365 OFFCURVE",
"389 289 CURVE SMOOTH",
"389 0 LINE",
"543 0 LINE",
"543 337 LINE SMOOTH",
"543 460 OFFCURVE",
"468 533 OFFCURVE",
"363 533 CURVE SMOOTH"
);
}
);
width = 596;
}
);
unicode = 03AE;
},
{
glyphname = iotatonos;
layers = (
{
hints = (
{
horizontal = 1;
place = "{0, 21}";
target = up;
type = BottomGhost;
},
{
horizontal = 1;
place = "{579, 173}";
type = Stem;
},
{
place = "{64, 154}";
type = Stem;
}
);
layerId = "61C708DC-9E63-4DDF-9A9E-D605D0F8404A";
paths = (
{
closed = 1;
nodes = (
"82 579 LINE",
"191 579 LINE",
"379 752 LINE",
"182 752 LINE"
);
},
{
closed = 1;
nodes = (
"218 521 LINE",
"64 521 LINE",
"64 0 LINE",
"218 0 LINE"
);
}
);
width = 279;
}
);
unicode = 03AF;
},
{
glyphname = omicrontonos;
layers = (
{
hints = (
{
horizontal = 1;
place = "{-12, 130}";
type = Stem;
},
{
horizontal = 1;
place = "{403, 130}";
type = Stem;
},
{
horizontal = 1;
place = "{579, 173}";
type = Stem;
},
{
place = "{35, 151}";
type = Stem;
},
{
place = "{454, 151}";
type = Stem;
}
);
layerId = "61C708DC-9E63-4DDF-9A9E-D605D0F8404A";
paths = (
{
closed = 1;
nodes = (
"260 579 LINE",
"369 579 LINE",
"557 752 LINE",
"360 752 LINE"
);
},
{
closed = 1;
nodes = (
"605 412 OFFCURVE",
"486 533 OFFCURVE",
"320 533 CURVE SMOOTH",
"155 533 OFFCURVE",
"35 410 OFFCURVE",
"35 260 CURVE SMOOTH",
"35 111 OFFCURVE",
"154 -12 OFFCURVE",
"319 -12 CURVE SMOOTH",
"484 -12 OFFCURVE",
"605 114 OFFCURVE",
"605 262 CURVE SMOOTH"
);
},
{
closed = 1;
nodes = (
"454 184 OFFCURVE",
"401 118 OFFCURVE",
"320 118 CURVE SMOOTH",
"243 118 OFFCURVE",
"186 183 OFFCURVE",
"186 262 CURVE SMOOTH",
"186 339 OFFCURVE",
"237 403 OFFCURVE",
"319 403 CURVE SMOOTH",
"397 403 OFFCURVE",
"454 338 OFFCURVE",
"454 260 CURVE SMOOTH"
);
}
);
width = 641;
}
);
unicode = 03CC;
},
{
glyphname = upsilontonos;
layers = (
{
hints = (
{
horizontal = 1;
place = "{-12, 132}";
type = Stem;
},
{
horizontal = 1;
place = "{522, -20}";
target = down;
type = TopGhost;
},
{
horizontal = 1;
place = "{579, 173}";
type = Stem;
},
{
place = "{39, 154}";
type = Stem;
},
{
place = "{380, 154}";
type = Stem;
}
);
layerId = "61C708DC-9E63-4DDF-9A9E-D605D0F8404A";
paths = (
{
closed = 1;
nodes = (
"230 579 LINE",
"339 579 LINE",
"527 752 LINE",
"330 752 LINE"
);
},
{
closed = 1;
nodes = (
"534 522 LINE",
"380 522 LINE",
"380 228 LINE SMOOTH",
"380 169 OFFCURVE",
"349 120 OFFCURVE",
"286 120 CURVE SMOOTH",
"221 120 OFFCURVE",
"193 168 OFFCURVE",
"193 228 CURVE SMOOTH",
"193 522 LINE",
"39 522 LINE",
"39 231 LINE SMOOTH",
"39 68 OFFCURVE",
"128 -12 OFFCURVE",
"287 -12 CURVE SMOOTH",
"441 -12 OFFCURVE",
"534 70 OFFCURVE",
"534 234 CURVE SMOOTH"
);
}
);
width = 580;
}
);
unicode = 03CD;
},
{
glyphname = iotadieresistonos;
layers = (
{
hints = (
{
place = "{-65, 143}";
type = Stem;
},
{
place = "{106, 154}";
type = Stem;
},
{
place = "{292, 140}";
type = Stem;
},
{
horizontal = 1;
place = "{0, 21}";
target = up;
type = BottomGhost;
},
{
horizontal = 1;
place = "{594, 141}";
type = Stem;
},
{
horizontal = 1;
place = "{596, 173}";
type = Stem;
}
);
layerId = "61C708DC-9E63-4DDF-9A9E-D605D0F8404A";
paths = (
{
closed = 1;
nodes = (
"81 596 LINE",
"181 596 LINE",
"329 769 LINE",
"152 769 LINE"
);
},
{
closed = 1;
nodes = (
"404 596 OFFCURVE",
"432 630 OFFCURVE",
"432 667 CURVE SMOOTH",
"432 703 OFFCURVE",
"404 738 OFFCURVE",
"361 738 CURVE SMOOTH",
"321 738 OFFCURVE",
"292 703 OFFCURVE",
"292 667 CURVE SMOOTH",
"292 630 OFFCURVE",
"321 596 OFFCURVE",
"361 596 CURVE SMOOTH"
);
},
{
closed = 1;
nodes = (
"-65 624 OFFCURVE",
"-31 594 OFFCURVE",
"6 594 CURVE SMOOTH",
"43 594 OFFCURVE",
"78 624 OFFCURVE",
"78 665 CURVE SMOOTH",
"78 705 OFFCURVE",
"43 735 OFFCURVE",
"6 735 CURVE SMOOTH",
"-31 735 OFFCURVE",
"-65 705 OFFCURVE",
"-65 665 CURVE SMOOTH"
);
},
{
closed = 1;
nodes = (
"260 521 LINE",
"106 521 LINE",
"106 0 LINE",
"260 0 LINE"
);
}
);
width = 358;
}
);
unicode = 0390;
},
{
glyphname = iotadieresis;
layers = (
{
hints = (
{
place = "{-32, 157}";
type = Stem;
},
{
place = "{77, 154}";
type = Stem;
},
{
place = "{183, 156}";
type = Stem;
},
{
horizontal = 1;
place = "{0, 21}";
target = up;
type = BottomGhost;
},
{
horizontal = 1;
place = "{555, 153}";
type = Stem;
}
);
layerId = "61C708DC-9E63-4DDF-9A9E-D605D0F8404A";
paths = (
{
closed = 1;
nodes = (
"-32 584 OFFCURVE",
"2 555 OFFCURVE",
"47 555 CURVE SMOOTH",
"90 555 OFFCURVE",
"125 584 OFFCURVE",
"125 632 CURVE SMOOTH",
"125 680 OFFCURVE",
"90 708 OFFCURVE",
"47 708 CURVE SMOOTH",
"2 708 OFFCURVE",
"-32 680 OFFCURVE",
"-32 632 CURVE SMOOTH"
);
},
{
closed = 1;
nodes = (
"183 584 OFFCURVE",
"217 555 OFFCURVE",
"261 555 CURVE SMOOTH",
"305 555 OFFCURVE",
"339 584 OFFCURVE",
"339 632 CURVE SMOOTH",
"339 680 OFFCURVE",
"305 708 OFFCURVE",
"261 708 CURVE SMOOTH",
"217 708 OFFCURVE",
"183 680 OFFCURVE",
"183 632 CURVE SMOOTH"
);
},
{
closed = 1;
nodes = (
"231 521 LINE",
"77 521 LINE",
"77 0 LINE",
"231 0 LINE"
);
}
);
width = 306;
}
);
unicode = 03CA;
},
{
glyphname = upsilondieresis;
layers = (
{
hints = (
{
place = "{39, 154}";
type = Stem;
},
{
place = "{102, 157}";
type = Stem;
},
{
place = "{317, 156}";
type = Stem;
},
{
place = "{380, 154}";
type = Stem;
},
{
horizontal = 1;
place = "{-12, 132}";
type = Stem;
},
{
horizontal = 1;
place = "{522, -20}";
target = down;
type = TopGhost;
},
{
horizontal = 1;
place = "{555, 153}";
type = Stem;
}
);
layerId = "61C708DC-9E63-4DDF-9A9E-D605D0F8404A";
paths = (
{
closed = 1;
nodes = (
"102 584 OFFCURVE",
"136 555 OFFCURVE",
"181 555 CURVE SMOOTH",
"224 555 OFFCURVE",
"259 584 OFFCURVE",
"259 632 CURVE SMOOTH",
"259 680 OFFCURVE",
"224 708 OFFCURVE",
"181 708 CURVE SMOOTH",
"136 708 OFFCURVE",
"102 680 OFFCURVE",
"102 632 CURVE SMOOTH"
);
},
{
closed = 1;
nodes = (
"317 584 OFFCURVE",
"351 555 OFFCURVE",
"395 555 CURVE SMOOTH",
"439 555 OFFCURVE",
"473 584 OFFCURVE",
"473 632 CURVE SMOOTH",
"473 680 OFFCURVE",
"439 708 OFFCURVE",
"395 708 CURVE SMOOTH",
"351 708 OFFCURVE",
"317 680 OFFCURVE",
"317 632 CURVE SMOOTH"
);
},
{
closed = 1;
nodes = (
"534 522 LINE",
"380 522 LINE",
"380 228 LINE SMOOTH",
"380 169 OFFCURVE",
"349 120 OFFCURVE",
"286 120 CURVE SMOOTH",
"221 120 OFFCURVE",
"193 168 OFFCURVE",
"193 228 CURVE SMOOTH",
"193 522 LINE",
"39 522 LINE",
"39 231 LINE SMOOTH",
"39 68 OFFCURVE",
"128 -12 OFFCURVE",
"287 -12 CURVE SMOOTH",
"441 -12 OFFCURVE",
"534 70 OFFCURVE",
"534 234 CURVE SMOOTH"
);
}
);
width = 580;
}
);
unicode = 03CB;
},
{
glyphname = upsilondieresistonos;
layers = (
{
hints = (
{
place = "{46, 143}";
type = Stem;
},
{
place = "{48, 154}";
type = Stem;
},
{
place = "{389, 154}";
type = Stem;
},
{
horizontal = 1;
place = "{-12, 132}";
type = Stem;
},
{
horizontal = 1;
place = "{522, -20}";
target = down;
type = TopGhost;
},
{
horizontal = 1;
place = "{595, 141}";
type = Stem;
},
{
horizontal = 1;
place = "{597, 173}";
type = Stem;
}
);
layerId = "61C708DC-9E63-4DDF-9A9E-D605D0F8404A";
paths = (
{
closed = 1;
nodes = (
"192 597 LINE",
"292 597 LINE",
"440 770 LINE",
"263 770 LINE"
);
},
{
closed = 1;
nodes = (
"515 597 OFFCURVE",
"543 631 OFFCURVE",
"543 668 CURVE SMOOTH",
"543 704 OFFCURVE",
"515 739 OFFCURVE",
"472 739 CURVE SMOOTH",
"432 739 OFFCURVE",
"403 704 OFFCURVE",
"403 668 CURVE SMOOTH",
"403 631 OFFCURVE",
"432 597 OFFCURVE",
"472 597 CURVE SMOOTH"
);
},
{
closed = 1;
nodes = (
"46 625 OFFCURVE",
"80 595 OFFCURVE",
"117 595 CURVE SMOOTH",
"154 595 OFFCURVE",
"189 625 OFFCURVE",
"189 666 CURVE SMOOTH",
"189 706 OFFCURVE",
"154 736 OFFCURVE",
"117 736 CURVE SMOOTH",
"80 736 OFFCURVE",
"46 706 OFFCURVE",
"46 666 CURVE SMOOTH"
);
},
{
closed = 1;
nodes = (
"543 522 LINE",
"389 522 LINE",
"389 228 LINE SMOOTH",
"389 169 OFFCURVE",
"358 120 OFFCURVE",
"295 120 CURVE SMOOTH",
"230 120 OFFCURVE",
"202 168 OFFCURVE",
"202 228 CURVE SMOOTH",
"202 522 LINE",
"48 522 LINE",
"48 231 LINE SMOOTH",
"48 68 OFFCURVE",
"137 -12 OFFCURVE",
"296 -12 CURVE SMOOTH",
"450 -12 OFFCURVE",
"543 70 OFFCURVE",
"543 234 CURVE SMOOTH"
);
}
);
width = 589;
}
);
unicode = 03B0;
},
{
glyphname = Omegatonos;
layers = (
{
hints = (
{
place = "{223, 161}";
type = Stem;
},
{
place = "{763, 161}";
type = Stem;
},
{
horizontal = 1;
place = "{1, 136}";
type = Stem;
},
{
horizontal = 1;
place = "{529, 173}";
type = Stem;
},
{
horizontal = 1;
place = "{573, 143}";
type = Stem;
}
);
layerId = "61C708DC-9E63-4DDF-9A9E-D605D0F8404A";
paths = (
{
closed = 1;
nodes = (
"617 1 LINE",
"949 1 LINE",
"949 137 LINE",
"782 137 LINE",
"873 183 OFFCURVE",
"924 295 OFFCURVE",
"924 394 CURVE SMOOTH",
"924 599 OFFCURVE",
"770 716 OFFCURVE",
"574 716 CURVE SMOOTH",
"381 716 OFFCURVE",
"223 599 OFFCURVE",
"223 395 CURVE SMOOTH",
"223 296 OFFCURVE",
"274 182 OFFCURVE",
"365 137 CURVE",
"198 137 LINE",
"198 1 LINE",
"531 1 LINE",
"531 143 LINE",
"439 186 OFFCURVE",
"384 267 OFFCURVE",
"384 369 CURVE SMOOTH",
"384 485 OFFCURVE",
"451 573 OFFCURVE",
"573 573 CURVE SMOOTH",
"695 573 OFFCURVE",
"763 487 OFFCURVE",
"763 369 CURVE SMOOTH",
"763 265 OFFCURVE",
"709 190 OFFCURVE",
"617 143 CURVE"
);
},
{
closed = 1;
nodes = (
"0 529 LINE",
"109 529 LINE",
"297 702 LINE",
"100 702 LINE"
);
}
);
width = 993;
}
);
unicode = 038F;
},
{
glyphname = omega;
layers = (
{
hints = (
{
horizontal = 1;
place = "{-12, 128}";
type = Stem;
},
{
place = "{35, 151}";
type = Stem;
},
{
place = "{357, 155}";
type = Stem;
},
{
place = "{686, 151}";
type = Stem;
}
);
layerId = "61C708DC-9E63-4DDF-9A9E-D605D0F8404A";
paths = (
{
closed = 1;
nodes = (
"512 409 LINE",
"357 409 LINE",
"357 252 LINE SMOOTH",
"357 183 OFFCURVE",
"335 116 OFFCURVE",
"276 116 CURVE SMOOTH",
"220 116 OFFCURVE",
"186 178 OFFCURVE",
"186 271 CURVE SMOOTH",
"186 355 OFFCURVE",
"212 424 OFFCURVE",
"306 537 CURVE",
"148 537 LINE",
"67 449 OFFCURVE",
"35 358 OFFCURVE",
"35 265 CURVE SMOOTH",
"35 111 OFFCURVE",
"119 -12 OFFCURVE",
"271 -12 CURVE SMOOTH",
"355 -12 OFFCURVE",
"403 23 OFFCURVE",
"436 71 CURVE",
"469 23 OFFCURVE",
"517 -12 OFFCURVE",
"600 -12 CURVE SMOOTH",
"751 -12 OFFCURVE",
"837 102 OFFCURVE",
"837 265 CURVE SMOOTH",
"837 364 OFFCURVE",
"804 450 OFFCURVE",
"724 537 CURVE",
"566 537 LINE",
"659 425 OFFCURVE",
"686 353 OFFCURVE",
"686 271 CURVE SMOOTH",
"686 178 OFFCURVE",
"652 116 OFFCURVE",
"595 116 CURVE SMOOTH",
"548 116 OFFCURVE",
"512 157 OFFCURVE",
"512 252 CURVE SMOOTH"
);
}
);
width = 873;
}
);
unicode = 03C9;
},
{
glyphname = omegatonos;
layers = (
{
hints = (
{
horizontal = 1;
place = "{-12, 128}";
type = Stem;
},
{
horizontal = 1;
place = "{579, 173}";
type = Stem;
},
{
place = "{35, 151}";
type = Stem;
},
{
place = "{357, 155}";
type = Stem;
},
{
place = "{686, 151}";
type = Stem;
}
);
layerId = "61C708DC-9E63-4DDF-9A9E-D605D0F8404A";
paths = (
{
closed = 1;
nodes = (
"377 579 LINE",
"486 579 LINE",
"674 752 LINE",
"477 752 LINE"
);
},
{
closed = 1;
nodes = (
"512 409 LINE",
"357 409 LINE",
"357 252 LINE SMOOTH",
"357 183 OFFCURVE",
"335 116 OFFCURVE",
"276 116 CURVE SMOOTH",
"220 116 OFFCURVE",
"186 178 OFFCURVE",
"186 271 CURVE SMOOTH",
"186 355 OFFCURVE",
"212 424 OFFCURVE",
"306 537 CURVE",
"148 537 LINE",
"67 449 OFFCURVE",
"35 358 OFFCURVE",
"35 265 CURVE SMOOTH",
"35 111 OFFCURVE",
"119 -12 OFFCURVE",
"271 -12 CURVE SMOOTH",
"355 -12 OFFCURVE",
"403 23 OFFCURVE",
"436 71 CURVE",
"469 23 OFFCURVE",
"517 -12 OFFCURVE",
"600 -12 CURVE SMOOTH",
"751 -12 OFFCURVE",
"837 102 OFFCURVE",
"837 265 CURVE SMOOTH",
"837 364 OFFCURVE",
"804 450 OFFCURVE",
"724 537 CURVE",
"566 537 LINE",
"659 425 OFFCURVE",
"686 353 OFFCURVE",
"686 271 CURVE SMOOTH",
"686 178 OFFCURVE",
"652 116 OFFCURVE",
"595 116 CURVE SMOOTH",
"548 116 OFFCURVE",
"512 157 OFFCURVE",
"512 252 CURVE SMOOTH"
);
}
);
width = 872;
}
);
unicode = 03CE;
},
{
glyphname = epsilontonos;
layers = (
{
hints = (
{
place = "{35, 151}";
type = Stem;
},
{
place = "{56, 151}";
type = Stem;
},
{
horizontal = 1;
place = "{-12, 130}";
type = Stem;
},
{
horizontal = 1;
place = "{210, 114}";
type = Stem;
},
{
horizontal = 1;
place = "{403, 130}";
type = Stem;
},
{
horizontal = 1;
place = "{579, 173}";
type = Stem;
}
);
layerId = "61C708DC-9E63-4DDF-9A9E-D605D0F8404A";
paths = (
{
closed = 1;
nodes = (
"189 579 LINE",
"298 579 LINE",
"486 752 LINE",
"289 752 LINE"
);
},
{
closed = 1;
nodes = (
"228 118 OFFCURVE",
"186 134 OFFCURVE",
"186 163 CURVE SMOOTH",
"186 190 OFFCURVE",
"212 210 OFFCURVE",
"283 210 CURVE SMOOTH",
"350 210 LINE",
"350 324 LINE",
"298 324 LINE SMOOTH",
"247 324 OFFCURVE",
"207 336 OFFCURVE",
"207 365 CURVE SMOOTH",
"207 390 OFFCURVE",
"240 403 OFFCURVE",
"280 403 CURVE SMOOTH",
"313 403 OFFCURVE",
"358 395 OFFCURVE",
"413 362 CURVE",
"451 484 LINE",
"391 519 OFFCURVE",
"328 533 OFFCURVE",
"268 533 CURVE SMOOTH",
"153 533 OFFCURVE",
"56 488 OFFCURVE",
"56 389 CURVE SMOOTH",
"56 336 OFFCURVE",
"88 294 OFFCURVE",
"148 271 CURVE",
"75 251 OFFCURVE",
"35 205 OFFCURVE",
"35 146 CURVE SMOOTH",
"35 46 OFFCURVE",
"144 -12 OFFCURVE",
"267 -12 CURVE SMOOTH",
"328 -12 OFFCURVE",
"397 3 OFFCURVE",
"460 32 CURVE",
"432 158 LINE",
"365 126 OFFCURVE",
"322 118 OFFCURVE",
"279 118 CURVE SMOOTH"
);
}
);
width = 508;
}
);
unicode = 03AD;
},
{
glyphname = xi;
layers = (
{
hints = (
{
place = "{35, 149}";
type = Stem;
},
{
place = "{82, 150}";
type = Stem;
},
{
place = "{302, 140}";
type = Stem;
},
{
horizontal = 1;
place = "{313, 125}";
type = Stem;
},
{
horizontal = 1;
place = "{605, 130}";
type = Stem;
}
);
layerId = "61C708DC-9E63-4DDF-9A9E-D605D0F8404A";
paths = (
{
closed = 1;
nodes = (
"300 -22 OFFCURVE",
"302 -61 OFFCURVE",
"302 -77 CURVE SMOOTH",
"302 -102 OFFCURVE",
"290 -131 OFFCURVE",
"277 -156 CURVE",
"409 -167 LINE",
"426 -127 OFFCURVE",
"442 -87 OFFCURVE",
"442 -42 CURVE SMOOTH",
"442 15 OFFCURVE",
"418 83 OFFCURVE",
"303 107 CURVE SMOOTH",
"227 122 OFFCURVE",
"184 158 OFFCURVE",
"184 211 CURVE SMOOTH",
"184 292 OFFCURVE",
"267 313 OFFCURVE",
"386 313 CURVE",
"386 438 LINE",
"274 438 OFFCURVE",
"232 473 OFFCURVE",
"232 518 CURVE SMOOTH",
"232 594 OFFCURVE",
"332 605 OFFCURVE",
"444 605 CURVE",
"444 735 LINE",
"66 735 LINE",
"66 611 LINE",
"169 611 LINE",
"117 591 OFFCURVE",
"82 553 OFFCURVE",
"82 501 CURVE SMOOTH",
"82 442 OFFCURVE",
"130 402 OFFCURVE",
"197 378 CURVE",
"96 354 OFFCURVE",
"35 282 OFFCURVE",
"35 191 CURVE SMOOTH",
"35 90 OFFCURVE",
"109 10 OFFCURVE",
"225 -9 CURVE SMOOTH"
);
}
);
width = 453;
}
);
unicode = 03BE;
},
{
glyphname = zeta;
layers = (
{
hints = (
{
horizontal = 1;
place = "{612, 123}";
type = Stem;
},
{
place = "{37, 149}";
type = Stem;
},
{
place = "{317, 140}";
type = Stem;
}
);
layerId = "61C708DC-9E63-4DDF-9A9E-D605D0F8404A";
paths = (
{
closed = 1;
nodes = (
"460 735 LINE",
"83 735 LINE",
"83 612 LINE",
"279 612 LINE",
"122 500 OFFCURVE",
"37 364 OFFCURVE",
"37 231 CURVE SMOOTH",
"37 91 OFFCURVE",
"125 20 OFFCURVE",
"246 -7 CURVE SMOOTH",
"304 -20 OFFCURVE",
"317 -47 OFFCURVE",
"317 -74 CURVE SMOOTH",
"317 -99 OFFCURVE",
"304 -131 OFFCURVE",
"291 -156 CURVE",
"424 -167 LINE",
"441 -127 OFFCURVE",
"457 -86 OFFCURVE",
"457 -41 CURVE SMOOTH",
"457 31 OFFCURVE",
"419 84 OFFCURVE",
"314 107 CURVE SMOOTH",
"222 128 OFFCURVE",
"186 172 OFFCURVE",
"186 241 CURVE SMOOTH",
"186 368 OFFCURVE",
"296 514 OFFCURVE",
"460 614 CURVE"
);
}
);
width = 462;
}
);
unicode = 03B6;
},
{
glyphname = uni03C2;
layers = (
{
hints = (
{
horizontal = 1;
place = "{402, 130}";
type = Stem;
},
{
place = "{37, 150}";
type = Stem;
},
{
place = "{304, 140}";
type = Stem;
}
);
layerId = "61C708DC-9E63-4DDF-9A9E-D605D0F8404A";
paths = (
{
closed = 1;
nodes = (
"404 -167 LINE",
"423 -127 OFFCURVE",
"444 -88 OFFCURVE",
"444 -43 CURVE SMOOTH",
"444 27 OFFCURVE",
"394 69 OFFCURVE",
"317 106 CURVE",
"260 130 OFFCURVE",
"187 177 OFFCURVE",
"187 270 CURVE SMOOTH",
"187 339 OFFCURVE",
"231 402 OFFCURVE",
"303 402 CURVE SMOOTH",
"344 402 OFFCURVE",
"384 385 OFFCURVE",
"412 357 CURVE",
"478 462 LINE",
"430 510 OFFCURVE",
"363 532 OFFCURVE",
"295 532 CURVE SMOOTH",
"138 532 OFFCURVE",
"37 410 OFFCURVE",
"37 258 CURVE SMOOTH",
"37 117 OFFCURVE",
"115 38 OFFCURVE",
"216 -5 CURVE",
"262 -20 OFFCURVE",
"304 -44 OFFCURVE",
"304 -80 CURVE SMOOTH",
"304 -109 OFFCURVE",
"288 -135 OFFCURVE",
"269 -156 CURVE"
);
}
);
width = 532;
}
);
unicode = 03C2;
},
{
glyphname = phi;
layers = (
{
hints = (
{
horizontal = 1;
place = "{-168, 21}";
target = up;
type = BottomGhost;
},
{
horizontal = 1;
place = "{-5, 121}";
type = Stem;
},
{
horizontal = 1;
place = "{407, 130}";
type = Stem;
},
{
place = "{35, 145}";
type = Stem;
},
{
place = "{336, 150}";
type = Stem;
},
{
place = "{649, 146}";
type = Stem;
}
);
layerId = "61C708DC-9E63-4DDF-9A9E-D605D0F8404A";
paths = (
{
closed = 1;
nodes = (
"336 -168 LINE",
"486 -168 LINE",
"486 -5 LINE",
"670 3 OFFCURVE",
"795 136 OFFCURVE",
"795 293 CURVE SMOOTH",
"795 431 OFFCURVE",
"712 537 OFFCURVE",
"557 537 CURVE SMOOTH",
"375 537 OFFCURVE",
"336 401 OFFCURVE",
"336 251 CURVE SMOOTH",
"336 116 LINE",
"223 119 OFFCURVE",
"180 201 OFFCURVE",
"180 308 CURVE SMOOTH",
"180 373 OFFCURVE",
"211 444 OFFCURVE",
"292 537 CURVE",
"142 537 LINE",
"69 460 OFFCURVE",
"35 374 OFFCURVE",
"35 291 CURVE SMOOTH",
"35 109 OFFCURVE",
"167 6 OFFCURVE",
"336 -5 CURVE"
);
},
{
closed = 1;
nodes = (
"486 282 LINE",
"489 367 OFFCURVE",
"516 407 OFFCURVE",
"565 407 CURVE SMOOTH",
"637 407 OFFCURVE",
"649 327 OFFCURVE",
"649 294 CURVE SMOOTH",
"649 288 OFFCURVE",
"649 282 OFFCURVE",
"648 277 CURVE",
"641 173 OFFCURVE",
"589 120 OFFCURVE",
"486 116 CURVE"
);
}
);
width = 831;
}
);
unicode = 03C6;
},
{
glyphname = Agrave;
layers = (
{
hints = (
{
horizontal = 1;
place = "{0, 21}";
target = up;
type = BottomGhost;
},
{
horizontal = 1;
place = "{149, 126}";
type = Stem;
},
{
horizontal = 1;
place = "{705, -20}";
target = down;
type = TopGhost;
},
{
place = "{19, 751}";
type = Stem;
}
);
layerId = "61C708DC-9E63-4DDF-9A9E-D605D0F8404A";
paths = (
{
closed = 1;
nodes = (
"369 750 LINE",
"479 750 LINE",
"378 923 LINE",
"229 878 LINE"
);
},
{
closed = 1;
nodes = (
"538 149 LINE",
"600 0 LINE",
"770 0 LINE",
"468 705 LINE",
"320 705 LINE",
"19 0 LINE",
"185 0 LINE",
"247 149 LINE"
);
},
{
closed = 1;
nodes = (
"393 519 LINE",
"490 275 LINE",
"295 275 LINE"
);
}
);
width = 794;
}
);
unicode = 00C0;
},
{
glyphname = Aacute;
layers = (
{
hints = (
{
horizontal = 1;
place = "{0, 21}";
target = up;
type = BottomGhost;
},
{
horizontal = 1;
place = "{149, 126}";
type = Stem;
},
{
horizontal = 1;
place = "{705, -20}";
target = down;
type = TopGhost;
},
{
place = "{19, 751}";
type = Stem;
}
);
layerId = "61C708DC-9E63-4DDF-9A9E-D605D0F8404A";
paths = (
{
closed = 1;
nodes = (
"583 878 LINE",
"433 923 LINE",
"333 750 LINE",
"442 750 LINE"
);
},
{
closed = 1;
nodes = (
"538 149 LINE",
"600 0 LINE",
"770 0 LINE",
"468 705 LINE",
"320 705 LINE",
"19 0 LINE",
"185 0 LINE",
"247 149 LINE"
);
},
{
closed = 1;
nodes = (
"393 519 LINE",
"490 275 LINE",
"295 275 LINE"
);
}
);
width = 794;
}
);
unicode = 00C1;
},
{
glyphname = Acircumflex;
layers = (
{
hints = (
{
horizontal = 1;
place = "{0, 21}";
target = up;
type = BottomGhost;
},
{
horizontal = 1;
place = "{149, 126}";
type = Stem;
},
{
horizontal = 1;
place = "{705, -20}";
target = down;
type = TopGhost;
},
{
horizontal = 1;
place = "{756, 171}";
type = Stem;
},
{
place = "{19, 751}";
type = Stem;
}
);
layerId = "61C708DC-9E63-4DDF-9A9E-D605D0F8404A";
paths = (
{
closed = 1;
nodes = (
"440 927 LINE",
"350 927 LINE",
"221 756 LINE",
"330 756 LINE",
"395 824 LINE",
"460 756 LINE",
"569 756 LINE"
);
},
{
closed = 1;
nodes = (
"538 149 LINE",
"600 0 LINE",
"770 0 LINE",
"468 705 LINE",
"320 705 LINE",
"19 0 LINE",
"185 0 LINE",
"247 149 LINE"
);
},
{
closed = 1;
nodes = (
"393 519 LINE",
"490 275 LINE",
"295 275 LINE"
);
}
);
width = 794;
}
);
unicode = 00C2;
},
{
glyphname = Atilde;
layers = (
{
hints = (
{
place = "{19, 751}";
type = Stem;
},
{
horizontal = 1;
place = "{0, 21}";
target = up;
type = BottomGhost;
},
{
horizontal = 1;
place = "{149, 126}";
type = Stem;
},
{
horizontal = 1;
place = "{705, -20}";
target = down;
type = TopGhost;
},
{
horizontal = 1;
place = "{766, 102}";
type = Stem;
},
{
horizontal = 1;
place = "{802, 102}";
type = Stem;
}
);
layerId = "61C708DC-9E63-4DDF-9A9E-D605D0F8404A";
paths = (
{
closed = 1;
nodes = (
"300 755 LINE",
"311 791 OFFCURVE",
"325 802 OFFCURVE",
"342 802 CURVE SMOOTH",
"375 802 OFFCURVE",
"412 766 OFFCURVE",
"460 766 CURVE SMOOTH",
"517 766 OFFCURVE",
"552 820 OFFCURVE",
"575 897 CURVE",
"489 913 LINE",
"481 881 OFFCURVE",
"469 868 OFFCURVE",
"453 868 CURVE SMOOTH",
"424 868 OFFCURVE",
"380 904 OFFCURVE",
"333 904 CURVE SMOOTH",
"273 904 OFFCURVE",
"234 850 OFFCURVE",
"213 771 CURVE"
);
},
{
closed = 1;
nodes = (
"538 149 LINE",
"600 0 LINE",
"770 0 LINE",
"468 705 LINE",
"320 705 LINE",
"19 0 LINE",
"185 0 LINE",
"247 149 LINE"
);
},
{
closed = 1;
nodes = (
"393 519 LINE",
"490 275 LINE",
"295 275 LINE"
);
}
);
width = 794;
}
);
unicode = 00C3;
},
{
glyphname = Adieresis;
layers = (
{
hints = (
{
horizontal = 1;
place = "{0, 21}";
target = up;
type = BottomGhost;
},
{
horizontal = 1;
place = "{149, 126}";
type = Stem;
},
{
horizontal = 1;
place = "{705, -20}";
target = down;
type = TopGhost;
},
{
horizontal = 1;
place = "{764, 153}";
type = Stem;
},
{
place = "{209, 157}";
type = Stem;
},
{
place = "{424, 156}";
type = Stem;
}
);
layerId = "61C708DC-9E63-4DDF-9A9E-D605D0F8404A";
paths = (
{
closed = 1;
nodes = (
"209 793 OFFCURVE",
"243 764 OFFCURVE",
"288 764 CURVE SMOOTH",
"331 764 OFFCURVE",
"366 793 OFFCURVE",
"366 841 CURVE SMOOTH",
"366 889 OFFCURVE",
"331 917 OFFCURVE",
"288 917 CURVE SMOOTH",
"243 917 OFFCURVE",
"209 889 OFFCURVE",
"209 841 CURVE SMOOTH"
);
},
{
closed = 1;
nodes = (
"424 793 OFFCURVE",
"458 764 OFFCURVE",
"502 764 CURVE SMOOTH",
"546 764 OFFCURVE",
"580 793 OFFCURVE",
"580 841 CURVE SMOOTH",
"580 889 OFFCURVE",
"546 917 OFFCURVE",
"502 917 CURVE SMOOTH",
"458 917 OFFCURVE",
"424 889 OFFCURVE",
"424 841 CURVE SMOOTH"
);
},
{
closed = 1;
nodes = (
"538 149 LINE",
"600 0 LINE",
"770 0 LINE",
"468 705 LINE",
"320 705 LINE",
"19 0 LINE",
"185 0 LINE",
"247 149 LINE"
);
},
{
closed = 1;
nodes = (
"393 519 LINE",
"490 275 LINE",
"295 275 LINE"
);
}
);
width = 794;
}
);
unicode = 00C4;
},
